<svg version="1.1" id="Layer_1" xmlns="http://www.w3.org/2000/svg" xmlns:xlink="http://www.w3.org/1999/xlink" x="0px" y="0px"
	 width="100" viewBox="0 0 96 94" enable-background="new 0 0 96 94" xml:space="preserve">
<path fill="#171716" opacity="1.000000" stroke="none" 
	d="
M1.000000,61.000000 
	C1.000000,51.979103 1.000000,42.958210 1.367927,33.242599 
	C1.806056,28.060118 2.023300,23.568396 1.902807,19.085749 
	C1.794379,15.051991 1.315488,11.028192 1.000000,7.000000 
	C1.000000,5.009140 1.000000,3.018279 1.000000,1.021609 
	C33.000000,1.015799 65.000000,1.015799 97.000000,1.015799 
	C97.000000,3.022463 97.000000,5.013327 96.701996,7.795417 
	C96.294601,18.011101 96.136742,27.435471 96.120163,36.860088 
	C96.117149,38.572872 96.691948,40.286671 97.000000,42.000000 
	C97.000000,49.354252 97.000000,56.708500 96.649353,64.768875 
	C96.265602,69.327271 96.232483,73.179558 96.147949,77.495148 
	C96.064354,83.638977 96.032173,89.319489 96.000000,95.000000 
	C87.645767,95.000000 79.291534,95.000000 70.230316,94.642380 
	C58.012299,94.260750 46.501270,94.236732 34.525543,94.153442 
	C25.364166,94.074707 16.667059,94.005035 7.971191,94.079849 
	C6.311611,94.094124 4.656937,94.678596 3.000000,95.000000 
	C3.000000,95.000000 2.500000,95.000000 2.454880,94.744049 
	C2.289995,94.305260 2.170231,94.122421 2.009225,93.540802 
	C1.907499,92.073715 1.847013,91.005409 1.836206,89.480682 
	C1.847013,85.009949 1.808141,80.995651 1.816627,76.518600 
	C1.575991,71.037239 1.287995,66.018623 1.000000,61.000000 
M94.017426,71.205276 
	C93.963066,70.136108 93.908699,69.066933 94.012077,67.072502 
	C94.012077,46.001019 94.012077,24.929531 94.012077,3.670056 
	C63.713596,3.670056 33.983727,3.670056 4.046514,3.670056 
	C4.046514,30.903730 4.046514,57.974983 3.763699,85.800316 
	C3.851319,86.858253 3.938938,87.916199 3.830503,89.657158 
	C4.535581,90.316368 5.240659,90.975578 6.636991,91.837273 
	C7.108236,91.773048 7.579482,91.708817 8.831010,91.779533 
	C9.883200,91.739235 10.935390,91.698929 12.644116,91.856308 
	C13.091448,91.791313 13.538779,91.726326 14.916987,91.790512 
	C36.944775,91.751518 58.972565,91.712517 81.651352,91.866547 
	C82.094955,91.803276 82.538567,91.740005 83.658852,91.812775 
	C84.114006,91.764847 84.569168,91.716927 85.665321,91.853851 
	C86.100487,91.788277 86.535645,91.722694 87.718719,91.790810 
	C88.475449,91.767426 89.232185,91.744049 90.492401,91.879631 
	C90.661057,91.829369 90.829720,91.779099 91.663200,91.886459 
	C92.110992,91.851883 92.558777,91.817299 93.511856,91.878220 
	C93.611572,91.589661 93.711296,91.301102 93.994217,90.105431 
	C93.951935,86.405312 93.909653,82.705185 94.026024,78.139549 
	C93.966972,76.090973 93.907913,74.042404 94.017426,71.205276 
z"/>
<path fill="#9B9B96" opacity="1.000000" stroke="none" 
	d="
M34.990238,94.212715 
	C46.501270,94.236732 58.012299,94.260750 69.761665,94.642380 
	C58.645771,95.000000 47.291546,95.000000 35.466640,94.803177 
	C34.995964,94.606346 34.990238,94.212715 34.990238,94.212715 
z"/>
<path fill="#656565" opacity="1.000000" stroke="none" 
	d="
M97.000000,41.531342 
	C96.691948,40.286671 96.117149,38.572872 96.120163,36.860088 
	C96.136742,27.435471 96.294601,18.011101 96.701996,8.293322 
	C97.000000,19.020895 97.000000,30.041788 97.000000,41.531342 
z"/>
<path fill="#A1A19E" opacity="1.000000" stroke="none" 
	d="
M34.525543,94.153442 
	C34.990238,94.212715 34.995964,94.606346 34.997982,94.803177 
	C24.645771,95.000000 14.291543,95.000000 3.468657,95.000000 
	C4.656937,94.678596 6.311611,94.094124 7.971191,94.079849 
	C16.667059,94.005035 25.364166,94.074707 34.525543,94.153442 
z"/>
<path fill="#A0A0A0" opacity="1.000000" stroke="none" 
	d="
M1.000000,7.468652 
	C1.315488,11.028192 1.794379,15.051991 1.902807,19.085749 
	C2.023300,23.568396 1.806056,28.060118 1.367927,32.773945 
	C1.000000,24.645767 1.000000,16.291536 1.000000,7.468652 
z"/>
<path fill="#909D95" opacity="1.000000" stroke="none" 
	d="
M96.500000,95.000000 
	C96.032173,89.319489 96.064354,83.638977 96.348206,77.489601 
	C96.599884,77.020737 97.000000,77.000000 97.000000,77.000000 
	C97.000000,83.000000 97.000000,89.000000 96.500000,95.000000 
z"/>
<path fill="#6B7072" opacity="1.000000" stroke="none" 
	d="
M1.000000,61.466862 
	C1.287995,66.018623 1.575991,71.037239 1.624368,76.521126 
	C1.384750,76.986389 1.000000,77.000000 1.000000,77.000000 
	C1.000000,71.977905 1.000000,66.955818 1.000000,61.466862 
z"/>
<path fill="#6F655F" opacity="1.000000" stroke="none" 
	d="
M1.000000,77.462929 
	C1.000000,77.000000 1.384750,76.986389 1.577009,76.983871 
	C1.808141,80.995651 1.847013,85.009949 1.639892,89.496956 
	C1.393898,89.969658 1.000000,90.000000 1.000000,90.000000 
	C1.000000,85.975288 1.000000,81.950569 1.000000,77.462929 
z"/>
<path fill="#978E85" opacity="1.000000" stroke="none" 
	d="
M97.000000,76.539368 
	C97.000000,77.000000 96.599884,77.020737 96.399628,77.026291 
	C96.232483,73.179558 96.265602,69.327271 96.649353,65.237495 
	C97.000000,68.692909 97.000000,72.385818 97.000000,76.539368 
z"/>
<path fill="#545659" opacity="1.000000" stroke="none" 
	d="
M1.000000,90.400017 
	C1.000000,90.000000 1.393898,89.969658 1.590212,89.953384 
	C1.847013,91.005409 1.907499,92.073715 1.745504,93.536903 
	C1.348683,93.954521 1.174341,93.977257 1.000000,94.000000 
	C1.000000,92.933342 1.000000,91.866692 1.000000,90.400017 
z"/>
<path fill="#A1A19E" opacity="1.000000" stroke="none" 
	d="
M1.000000,94.500000 
	C1.174341,93.977257 1.348683,93.954521 1.786745,93.935684 
	C2.170231,94.122421 2.289995,94.305260 2.204880,94.744049 
	C1.666667,95.000000 1.333333,95.000000 1.000000,94.500000 
z"/>
<path fill="#FCFBFB" opacity="1.000000" stroke="none" 
	d="
M5.945739,91.634781 
	C5.240659,90.975578 4.535581,90.316368 4.181546,89.109970 
	C4.370564,87.390602 4.208539,86.218422 4.046514,85.046234 
	C4.046514,57.974983 4.046514,30.903730 4.046514,3.670056 
	C33.983727,3.670056 63.713596,3.670056 94.012077,3.670056 
	C94.012077,24.929531 94.012077,46.001019 93.719467,67.535805 
	C93.426865,67.999107 92.999390,68.000305 92.639900,68.047539 
	C90.521431,69.728043 88.762459,71.361313 86.745285,72.749557 
	C85.145042,71.411407 83.802986,70.318283 82.290375,69.098587 
	C81.923241,68.735794 81.861275,68.468399 81.883446,67.950317 
	C81.717979,67.442421 81.531502,67.211792 81.119255,66.826065 
	C80.957687,66.438049 80.950424,66.262909 80.942993,65.819244 
	C80.530312,65.032028 80.117798,64.513336 79.439781,63.741405 
	C79.050285,63.020912 78.926292,62.553665 79.075317,61.865982 
	C79.345253,60.889103 79.585815,60.022217 79.300842,59.393562 
	C76.842926,53.971447 74.604065,48.412964 71.660019,43.260780 
	C69.554985,39.576897 66.466377,36.455055 63.564953,32.928772 
	C63.103142,32.228096 62.893005,31.681084 62.960815,30.942034 
	C62.268833,27.601730 61.657688,24.272459 60.194874,21.372845 
	C59.312538,19.623859 57.106449,18.542692 55.311554,17.033621 
	C54.924446,16.649136 54.874794,16.365540 54.987133,15.672918 
	C54.282837,14.222570 53.570377,13.154315 52.899734,12.081877 
	C52.941547,12.077693 52.912598,12.156604 52.861320,11.932990 
	C52.686577,11.417192 52.488388,11.190275 52.060783,10.881473 
	C51.906090,10.734322 51.893051,10.307511 51.847931,10.059546 
	C51.598286,9.551194 51.393761,9.290809 50.903126,8.800034 
	C49.687016,8.934997 48.250488,9.037289 47.903500,9.705422 
	C43.198174,18.765636 38.644035,27.904367 34.022476,37.022518 
	C33.992401,37.021336 34.028214,37.069717 33.839802,37.135605 
	C33.412930,37.398903 33.354168,37.640049 33.272980,38.138039 
	C32.972614,38.726070 32.874382,39.100994 32.501587,39.708908 
	C28.274103,47.569725 24.252237,55.162827 20.387653,62.835148 
	C16.518372,70.516792 12.806200,78.277573 8.860710,86.312775 
	C8.462404,87.745865 8.228551,88.869850 7.997292,89.996918 
	C7.999886,90.000000 7.992334,89.995201 7.699371,90.020813 
	C6.919518,90.575882 6.432629,91.105331 5.945739,91.634781 
M80.177063,52.549057 
	C80.213768,51.554790 80.250465,50.560520 80.287163,49.566254 
	C79.713882,49.617641 79.140610,49.669029 78.567329,49.720413 
	C78.877289,50.723099 79.187248,51.725788 80.177063,52.549057 
z"/>
<path fill="#FCF7F6" opacity="1.000000" stroke="none" 
	d="
M82.460938,69.225159 
	C83.802986,70.318283 85.145042,71.411407 86.788177,73.093475 
	C89.005959,75.893013 89.466873,79.957451 93.867363,79.005066 
	C93.909653,82.705185 93.951935,86.405312 93.722275,90.632767 
	C93.219643,91.308632 93.071724,91.516174 93.006569,91.782715 
	C92.558777,91.817299 92.110992,91.851883 91.235161,91.670738 
	C90.458755,91.282982 90.186020,91.371529 89.988914,91.720665 
	C89.232185,91.744049 88.475449,91.767426 87.189880,91.545929 
	C86.115471,91.423698 85.569893,91.546349 85.024323,91.668999 
	C84.569168,91.716927 84.114006,91.764847 83.163742,91.563850 
	C82.112534,91.434456 81.556442,91.553993 81.000351,91.673523 
	C58.972565,91.712517 36.944775,91.751518 14.295431,91.541290 
	C13.111776,91.414253 12.549679,91.536446 11.987580,91.658630 
	C10.935390,91.698929 9.883200,91.739235 8.459347,91.436813 
	C8.055902,90.727791 8.024117,90.361496 7.992334,89.995201 
	C7.992334,89.995201 7.999886,90.000000 8.296738,89.873009 
	C10.057506,88.555824 11.521422,87.365631 13.233448,85.939301 
	C15.755137,84.289230 18.028719,82.875298 20.352074,81.381783 
	C20.401844,81.302208 20.338554,81.479027 20.622288,81.484917 
	C21.386131,81.207001 21.866243,80.923187 22.392460,80.623482 
	C22.438564,80.607590 22.530210,80.574211 22.847397,80.522087 
	C23.781357,80.305267 24.398130,80.140572 25.301144,80.000252 
	C26.065475,79.748085 26.543568,79.471542 27.149441,79.050674 
	C27.277220,78.906342 27.432604,78.553497 27.220821,78.277206 
	C27.149477,78.185074 27.289915,78.369240 27.782417,78.536697 
	C29.048857,78.322517 29.963232,78.125061 31.217680,77.994568 
	C32.381519,77.747650 33.205284,77.433762 34.350739,76.999100 
	C35.542645,76.260719 36.412865,75.643105 37.467644,74.864471 
	C37.550251,74.126900 37.448296,73.550346 37.309181,72.580231 
	C37.311378,71.135216 37.350735,70.083771 37.569069,68.907494 
	C37.917797,68.543915 38.057396,68.288673 38.485924,68.012192 
	C39.438759,68.013145 40.072514,68.018845 40.750278,68.403748 
	C40.982140,70.496437 41.169991,72.209915 41.541000,74.256691 
	C42.149860,74.855904 42.575558,75.121819 43.292686,75.589874 
	C45.396610,75.580780 47.209099,75.369537 49.445850,75.114395 
	C51.571712,75.153793 53.273319,75.237099 55.257206,75.544373 
	C56.730022,75.825142 57.920551,75.881966 59.473347,75.929138 
	C60.547642,76.043205 61.259674,76.166924 62.193306,76.514084 
	C63.021931,76.775162 63.628956,76.812805 64.533737,76.867859 
	C65.211052,77.002609 65.590607,77.119934 66.163879,77.435532 
	C66.714737,77.657486 67.071869,77.681175 67.793846,77.744659 
	C72.108070,79.193398 76.057457,80.602341 80.281212,82.181946 
	C81.688164,82.927101 82.820740,83.501595 83.971901,84.038330 
	C83.990494,84.000572 83.930321,84.059578 84.056793,84.314163 
	C84.530426,84.700066 84.877594,84.831367 85.277901,85.092789 
	C85.331039,85.222900 85.575455,85.358559 85.575455,85.358559 
	C85.575455,85.358559 85.850258,85.307533 86.078674,85.581375 
	C86.535530,85.920990 86.763969,85.986771 87.219734,86.321152 
	C88.308807,86.548805 89.170555,86.507866 90.032310,86.466927 
	C89.776993,85.944756 89.521683,85.422577 89.222137,84.582870 
	C89.093025,83.849632 89.008163,83.433922 88.965149,82.655060 
	C86.824974,77.936333 84.642960,73.580742 82.460938,69.225159 
z"/>
<path fill="#FCFDFE" opacity="1.000000" stroke="none" 
	d="
M93.946693,78.572311 
	C89.466873,79.957451 89.005959,75.893013 87.046371,73.338501 
	C88.762459,71.361313 90.521431,69.728043 92.640182,68.402641 
	C93.282921,69.804947 93.565887,70.899391 93.848854,71.993828 
	C93.907913,74.042404 93.966972,76.090973 93.946693,78.572311 
z"/>
<path fill="#E6D8D6" opacity="1.000000" stroke="none" 
	d="
M3.905106,85.423279 
	C4.208539,86.218422 4.370564,87.390602 4.279574,88.768463 
	C3.938938,87.916199 3.851319,86.858253 3.905106,85.423279 
z"/>
<path fill="#FCF7F6" opacity="1.000000" stroke="none" 
	d="
M93.933136,71.599548 
	C93.565887,70.899391 93.282921,69.804947 92.999672,68.355408 
	C92.999390,68.000305 93.426865,67.999107 93.640594,67.998436 
	C93.908699,69.066933 93.963066,70.136108 93.933136,71.599548 
z"/>
<path fill="#E6D8D6" opacity="1.000000" stroke="none" 
	d="
M7.699371,90.020813 
	C8.024117,90.361496 8.055902,90.727791 8.069206,91.369339 
	C7.579482,91.708817 7.108236,91.773048 6.291365,91.736023 
	C6.432629,91.105331 6.919518,90.575882 7.699371,90.020813 
z"/>
<path fill="#E6D8D6" opacity="1.000000" stroke="none" 
	d="
M12.315848,91.757469 
	C12.549679,91.536446 13.111776,91.414253 13.829992,91.476700 
	C13.538779,91.726326 13.091448,91.791313 12.315848,91.757469 
z"/>
<path fill="#E1E4E3" opacity="1.000000" stroke="none" 
	d="
M81.325851,91.770035 
	C81.556442,91.553993 82.112534,91.434456 82.825394,91.495834 
	C82.538567,91.740005 82.094955,91.803276 81.325851,91.770035 
z"/>
<path fill="#E1E4E3" opacity="1.000000" stroke="none" 
	d="
M85.344818,91.761429 
	C85.569893,91.546349 86.115471,91.423698 86.815926,91.479080 
	C86.535645,91.722694 86.100487,91.788277 85.344818,91.761429 
z"/>
<path fill="#E1E4E3" opacity="1.000000" stroke="none" 
	d="
M93.259216,91.830467 
	C93.071724,91.516174 93.219643,91.308632 93.630676,91.086319 
	C93.711296,91.301102 93.611572,91.589661 93.259216,91.830467 
z"/>
<path fill="#E1E4E3" opacity="1.000000" stroke="none" 
	d="
M90.240662,91.800148 
	C90.186020,91.371529 90.458755,91.282982 90.902756,91.591919 
	C90.829720,91.779099 90.661057,91.829369 90.240662,91.800148 
z"/>
<path fill="#ED0507" opacity="1.000000" stroke="none" 
	d="
M32.776150,39.475918 
	C32.874382,39.100994 32.972614,38.726070 33.429035,38.046383 
	C33.962200,37.551640 34.042530,37.327675 34.028214,37.069717 
	C34.028214,37.069717 33.992401,37.021336 34.374069,36.974937 
	C35.380829,36.421478 36.246975,36.042145 36.593781,35.387627 
	C40.120857,28.731075 43.532364,22.013296 47.057922,15.355923 
	C47.693333,14.156062 48.700470,13.153062 49.998547,11.453573 
	C52.346409,15.630578 54.529724,18.902416 56.101818,22.445461 
	C58.943623,28.850079 61.420410,35.416660 64.009277,42.219025 
	C63.643963,43.015366 63.318989,43.508297 62.729187,43.797081 
	C60.929249,42.762653 59.394142,41.932373 57.896820,41.086510 
	C57.934605,41.070923 57.938942,41.152554 57.813965,40.896988 
	C57.354774,40.490108 57.020565,40.338802 56.392540,40.185379 
	C55.433552,39.800339 54.768368,39.417404 54.208466,38.790264 
	C52.216785,38.502590 50.119835,38.459122 47.702995,38.579159 
	C46.909714,38.798206 46.436317,38.853752 45.716255,38.674625 
	C44.071999,39.480022 42.674400,40.520088 41.241287,41.758011 
	C41.205772,41.955872 41.093681,42.341969 40.921997,42.289284 
	C40.750313,42.236599 40.394123,42.282864 40.101860,42.336258 
	C39.456947,42.851250 39.104298,43.312855 38.416702,43.940788 
	C37.712582,44.807446 37.058418,45.491905 37.018402,46.210564 
	C36.626270,53.253132 35.975578,60.309849 36.140434,67.345161 
	C36.256466,72.296814 35.373158,75.727089 29.889700,76.639969 
	C28.988707,76.789963 28.246140,77.891594 27.430355,78.553413 
	C27.289915,78.369240 27.149477,78.185074 26.897381,78.139603 
	C26.236498,78.597092 25.687273,78.915878 25.113306,79.211456 
	C25.088566,79.188248 25.155777,79.200218 24.795998,79.140091 
	C23.800882,79.578049 23.165548,80.076134 22.530212,80.574211 
	C22.530210,80.574211 22.438564,80.607590 22.076777,80.485687 
	C21.256178,80.735542 20.797367,81.107285 20.338554,81.479027 
	C20.338554,81.479027 20.401844,81.302208 19.968885,81.235382 
	C17.131872,81.810806 14.727818,82.453049 12.168493,83.136772 
	C12.236829,82.384666 12.137005,81.830750 12.344479,81.440010 
	C18.540651,69.770523 24.840492,58.155170 30.920578,46.425835 
	C31.998110,44.347130 32.180439,41.804382 32.776150,39.475918 
z"/>
<path fill="#EE0404" opacity="1.000000" stroke="none" 
	d="
M62.994011,44.001228 
	C63.318989,43.508297 63.643963,43.015366 64.352539,42.287285 
	C66.866936,44.325790 68.997734,46.599449 71.108643,48.885620 
	C71.088745,48.898129 71.111038,48.863495 71.064911,49.244400 
	C72.322693,51.738888 73.626610,53.852463 75.144043,56.228790 
	C76.505814,58.356503 77.654053,60.221462 78.802292,62.086422 
	C78.926292,62.553665 79.050285,63.020912 79.417511,63.982475 
	C79.810577,64.934204 79.960411,65.391609 80.074112,66.233124 
	C82.385818,72.076950 84.733658,77.536674 86.839142,83.242065 
	C85.707962,83.678345 84.819145,83.868965 83.930321,84.059578 
	C83.930321,84.059578 83.990494,84.000572 83.926636,83.678001 
	C82.920715,81.443573 81.978645,79.531723 80.747833,77.033882 
	C80.407860,78.421692 80.201347,79.264671 79.674545,80.054337 
	C78.557190,79.669510 77.760132,79.338005 76.749054,78.760040 
	C75.690414,78.356277 74.845795,78.198975 73.631760,77.977280 
	C69.447327,76.908562 65.683403,75.550140 61.804245,74.990532 
	C57.074089,74.308167 52.249130,74.101227 47.461376,74.051048 
	C42.685631,74.000992 43.429195,70.189674 43.170837,67.652824 
	C42.817368,64.182121 45.552273,65.233498 47.713612,65.274078 
	C49.523186,65.308052 51.348331,64.512253 53.560650,64.056793 
	C56.103600,63.703529 59.283936,64.653984 58.371185,60.465767 
	C58.408882,60.439709 58.454807,60.360394 58.773224,60.405354 
	C59.364075,59.925262 59.636505,59.400215 59.943214,58.921814 
	C59.977493,58.968460 59.877327,58.910400 60.266869,58.951885 
	C61.439625,58.992779 62.222836,58.992188 63.054985,59.100742 
	C63.103916,59.209888 63.382984,59.235172 63.382984,59.235172 
	C63.382984,59.235172 62.991505,59.006130 62.989143,58.584679 
	C62.989197,53.442562 62.991604,48.721897 62.994011,44.001228 
M64.505928,61.449680 
	C64.505928,61.449680 64.538040,61.516354 64.505928,61.449680 
z"/>
<path fill="#D61920" opacity="1.000000" stroke="none" 
	d="
M71.128532,48.873108 
	C68.997734,46.599449 66.866936,44.325790 64.392876,41.983875 
	C61.420410,35.416660 58.943623,28.850079 56.101818,22.445461 
	C54.529724,18.902416 52.346409,15.630578 49.998547,11.453573 
	C48.700470,13.153062 47.693333,14.156062 47.057922,15.355923 
	C43.532364,22.013296 40.120857,28.731075 36.593781,35.387627 
	C36.246975,36.042145 35.380829,36.421478 34.404140,36.976120 
	C38.644035,27.904367 43.198174,18.765636 47.903500,9.705422 
	C48.250488,9.037289 49.687016,8.934997 50.909119,9.063490 
	C51.431831,9.807394 51.662441,10.057453 51.893051,10.307512 
	C51.893051,10.307511 51.906090,10.734322 52.065514,11.126004 
	C52.327602,11.866855 52.556824,12.079827 52.912598,12.156604 
	C52.912598,12.156604 52.941547,12.077693 52.934425,12.410173 
	C53.611191,13.846774 54.295078,14.950893 54.978966,16.055012 
	C54.874794,16.365540 54.924446,16.649136 55.404282,17.388248 
	C58.014713,22.291821 60.348793,26.712944 62.682873,31.134068 
	C62.893005,31.681084 63.103142,32.228096 63.623550,33.284492 
	C66.332062,38.820286 68.730301,43.846695 71.128532,48.873108 
z"/>
<path fill="#D61920" opacity="1.000000" stroke="none" 
	d="
M32.501587,39.708908 
	C32.180439,41.804382 31.998110,44.347130 30.920578,46.425835 
	C24.840492,58.155170 18.540651,69.770523 12.344479,81.440010 
	C12.137005,81.830750 12.236829,82.384666 12.168493,83.136772 
	C14.727818,82.453049 17.131872,81.810806 19.919113,81.314957 
	C18.028719,82.875298 15.755137,84.289230 12.836456,85.893463 
	C11.135957,86.057060 10.080559,86.030365 9.025161,86.003662 
	C12.806200,78.277573 16.518372,70.516792 20.387653,62.835148 
	C24.252237,55.162827 28.274103,47.569725 32.501587,39.708908 
z"/>
<path fill="#FCF7F6" opacity="1.000000" stroke="none" 
	d="
M71.108643,48.885620 
	C68.730301,43.846695 66.332062,38.820286 63.875229,33.438156 
	C66.466377,36.455055 69.554985,39.576897 71.660019,43.260780 
	C74.604065,48.412964 76.842926,53.971447 79.300842,59.393562 
	C79.585815,60.022217 79.345253,60.889103 79.075317,61.865982 
	C77.654053,60.221462 76.505814,58.356503 75.149025,55.881989 
	C73.664001,53.136120 72.387520,50.999809 71.111038,48.863495 
	C71.111038,48.863495 71.088745,48.898129 71.108643,48.885620 
z"/>
<path fill="#CC2126" opacity="1.000000" stroke="none" 
	d="
M87.081497,82.996399 
	C84.733658,77.536674 82.385818,72.076950 80.284988,66.282913 
	C80.531990,65.948601 80.943153,66.087776 80.943153,66.087776 
	C80.950424,66.262909 80.957687,66.438049 81.115433,67.068741 
	C81.357414,67.875191 81.580086,68.090363 81.933914,68.169807 
	C81.861275,68.468399 81.923241,68.735794 82.290375,69.098587 
	C84.642960,73.580742 86.824974,77.936333 88.657623,82.651123 
	C87.899330,83.005684 87.490410,83.001038 87.081497,82.996399 
z"/>
<path fill="#FCF7F6" opacity="1.000000" stroke="none" 
	d="
M62.960815,30.942032 
	C60.348793,26.712944 58.014713,22.291821 55.587906,17.516071 
	C57.106449,18.542692 59.312538,19.623859 60.194874,21.372845 
	C61.657688,24.272459 62.268833,27.601730 62.960815,30.942032 
z"/>
<path fill="#E6D8D6" opacity="1.000000" stroke="none" 
	d="
M8.860709,86.312775 
	C10.080559,86.030365 11.135957,86.057060 12.588347,86.129593 
	C11.521422,87.365631 10.057506,88.555824 8.294144,89.869919 
	C8.228551,88.869850 8.462404,87.745865 8.860709,86.312775 
z"/>
<path fill="#FCF7F6" opacity="1.000000" stroke="none" 
	d="
M79.837135,52.638767 
	C79.187248,51.725788 78.877289,50.723099 78.567329,49.720413 
	C79.140610,49.669029 79.713882,49.617641 80.287163,49.566254 
	C80.250465,50.560520 80.213768,51.554790 79.837135,52.638767 
z"/>
<path fill="#FCF7F6" opacity="1.000000" stroke="none" 
	d="
M54.987133,15.672918 
	C54.295078,14.950893 53.611191,13.846774 52.892609,12.414357 
	C53.570377,13.154315 54.282837,14.222570 54.987133,15.672918 
z"/>
<path fill="#FCF7F6" opacity="1.000000" stroke="none" 
	d="
M80.942993,65.819244 
	C80.943153,66.087776 80.531990,65.948601 80.321121,65.898811 
	C79.960411,65.391609 79.810577,64.934204 79.683006,64.235718 
	C80.117798,64.513336 80.530312,65.032028 80.942993,65.819244 
z"/>
<path fill="#FCF7F6" opacity="1.000000" stroke="none" 
	d="
M51.847931,10.059546 
	C51.662441,10.057453 51.431831,9.807394 51.195229,9.293879 
	C51.393761,9.290809 51.598286,9.551194 51.847931,10.059546 
z"/>
<path fill="#FCF7F6" opacity="1.000000" stroke="none" 
	d="
M52.861320,11.932990 
	C52.556824,12.079827 52.327602,11.866855 52.220207,11.273155 
	C52.488388,11.190275 52.686577,11.417192 52.861320,11.932990 
z"/>
<path fill="#FCF7F6" opacity="1.000000" stroke="none" 
	d="
M81.883446,67.950317 
	C81.580086,68.090363 81.357414,67.875191 81.269730,67.281631 
	C81.531502,67.211792 81.717979,67.442421 81.883446,67.950317 
z"/>
<path fill="#D61920" opacity="1.000000" stroke="none" 
	d="
M33.839802,37.135605 
	C34.042530,37.327675 33.962200,37.551640 33.631165,37.833275 
	C33.354168,37.640049 33.412930,37.398903 33.839802,37.135605 
z"/>
<path fill="#D01D28" opacity="1.000000" stroke="none" 
	d="
M76.963074,79.006493 
	C77.760132,79.338005 78.557190,79.669510 79.672012,80.370331 
	C79.995461,81.163513 80.001144,81.587402 80.006836,82.011284 
	C76.057457,80.602341 72.108070,79.193398 67.605545,77.537766 
	C66.691650,77.273125 66.330910,77.255188 65.970161,77.237259 
	C65.590607,77.119934 65.211052,77.002609 64.299026,76.669258 
	C63.168274,76.399040 62.569988,76.344841 61.971706,76.290642 
	C61.259674,76.166924 60.547642,76.043205 59.177452,75.724159 
	C57.337837,75.459358 56.156380,75.389885 54.974922,75.320412 
	C53.273319,75.237099 51.571712,75.153793 49.019955,75.029465 
	C46.446953,75.121544 44.724102,75.254646 43.001255,75.387741 
	C42.575558,75.121819 42.149860,74.855904 41.695084,73.828293 
	C41.612282,69.720428 41.558559,66.374245 41.591778,62.678299 
	C41.759041,62.102112 41.839363,61.875690 42.264896,61.710342 
	C43.072544,61.825771 43.534988,61.880131 44.241745,62.149845 
	C45.314133,62.588318 46.142200,62.811436 47.254814,63.269791 
	C49.251873,63.565712 50.964386,63.626396 52.802719,63.782082 
	C52.928543,63.877090 53.166584,64.083885 53.166584,64.083885 
	C51.348331,64.512253 49.523186,65.308052 47.713612,65.274078 
	C45.552273,65.233498 42.817368,64.182121 43.170837,67.652824 
	C43.429195,70.189674 42.685631,74.000992 47.461376,74.051048 
	C52.249130,74.101227 57.074089,74.308167 61.804245,74.990532 
	C65.683403,75.550140 69.447327,76.908562 73.855545,78.211143 
	C75.286858,78.675095 76.124969,78.840790 76.963074,79.006493 
z"/>
<path fill="#CD2029" opacity="1.000000" stroke="none" 
	d="
M27.782417,78.536697 
	C28.246140,77.891594 28.988707,76.789963 29.889700,76.639969 
	C35.373158,75.727089 36.256466,72.296814 36.140434,67.345161 
	C35.975578,60.309849 36.626270,53.253132 37.018402,46.210564 
	C37.058418,45.491905 37.712582,44.807446 38.508636,44.024624 
	C38.935520,43.942131 39.113953,44.110027 39.028595,44.461941 
	C38.571781,46.191105 38.200329,47.568359 37.683548,49.282188 
	C37.594009,50.583199 37.649803,51.547638 37.529976,52.898918 
	C37.385139,55.533863 37.415936,57.781960 37.391499,60.424244 
	C37.379242,61.876808 37.422215,62.935188 37.337578,64.399948 
	C37.270008,66.214996 37.330048,67.623657 37.390091,69.032326 
	C37.350735,70.083771 37.311378,71.135216 37.192078,72.912811 
	C37.169117,74.101135 37.226101,74.563309 37.283089,75.025490 
	C36.412865,75.643105 35.542645,76.260719 34.013657,76.947037 
	C32.529133,77.319695 31.703371,77.623650 30.877609,77.927605 
	C29.963232,78.125061 29.048857,78.322517 27.782417,78.536697 
z"/>
<path fill="#DA1619" opacity="1.000000" stroke="none" 
	d="
M80.281212,82.181946 
	C80.001144,81.587402 79.995461,81.163513 79.992310,80.423645 
	C80.201347,79.264671 80.407860,78.421692 80.747833,77.033882 
	C81.978645,79.531723 82.920715,81.443573 83.908051,83.715759 
	C82.820740,83.501595 81.688164,82.927101 80.281212,82.181946 
z"/>
<path fill="#FCCAC7" opacity="1.000000" stroke="none" 
	d="
M41.504837,63.028061 
	C41.558559,66.374245 41.612282,69.720428 41.511925,73.495010 
	C41.169991,72.209915 40.982140,70.496437 40.803528,68.023613 
	C40.761349,66.502014 40.709930,65.739761 40.728905,64.714722 
	C41.034481,63.977306 41.269657,63.502682 41.504837,63.028061 
z"/>
<path fill="#FEF2F4" opacity="1.000000" stroke="none" 
	d="
M40.658508,64.977501 
	C40.709930,65.739761 40.761349,66.502014 40.759521,67.644409 
	C40.072514,68.018845 39.438759,68.013145 38.447121,67.633080 
	C38.132275,66.500084 38.175316,65.741447 38.522461,64.988037 
	C39.437214,64.987999 40.047863,64.982750 40.658508,64.977501 
z"/>
<path fill="#DA1619" opacity="1.000000" stroke="none" 
	d="
M86.839142,83.242065 
	C87.490410,83.001038 87.899330,83.005684 88.615768,83.014267 
	C89.008163,83.433922 89.093025,83.849632 88.894470,84.635498 
	C88.071510,85.354607 87.531960,85.703583 86.992416,86.052559 
	C86.763969,85.986771 86.535530,85.920990 85.992393,85.496918 
	C85.677704,85.138626 85.224762,84.962669 85.224762,84.962669 
	C84.877594,84.831367 84.530426,84.700066 84.056793,84.314163 
	C84.819145,83.868965 85.707962,83.678345 86.839142,83.242065 
z"/>
<path fill="#CC2126" opacity="1.000000" stroke="none" 
	d="
M87.219734,86.321152 
	C87.531960,85.703583 88.071510,85.354607 88.938713,84.953018 
	C89.521683,85.422577 89.776993,85.944756 90.032310,86.466927 
	C89.170555,86.507866 88.308807,86.548805 87.219734,86.321152 
z"/>
<path fill="#FCCAC7" opacity="1.000000" stroke="none" 
	d="
M43.292686,75.589874 
	C44.724102,75.254646 46.446953,75.121544 48.595695,75.073372 
	C47.209099,75.369537 45.396610,75.580780 43.292686,75.589874 
z"/>
<path fill="#FCCAC7" opacity="1.000000" stroke="none" 
	d="
M38.218353,64.982819 
	C38.175316,65.741447 38.132275,66.500084 38.128044,67.637825 
	C38.057396,68.288673 37.917797,68.543915 37.569069,68.907494 
	C37.330048,67.623657 37.270008,66.214996 37.513504,64.519325 
	C37.977203,64.468376 38.110977,64.718536 38.218353,64.982819 
z"/>
<path fill="#FCCAC7" opacity="1.000000" stroke="none" 
	d="
M55.257206,75.544373 
	C56.156380,75.389885 57.337837,75.459358 58.815189,75.733810 
	C57.920551,75.881966 56.730022,75.825142 55.257206,75.544373 
z"/>
<path fill="#D61920" opacity="1.000000" stroke="none" 
	d="
M22.847397,80.522087 
	C23.165548,80.076134 23.800882,79.578049 24.770771,79.335800 
	C25.105326,79.591644 25.014904,79.975876 25.014904,79.975876 
	C24.398130,80.140572 23.781357,80.305267 22.847397,80.522087 
z"/>
<path fill="#FCCAC7" opacity="1.000000" stroke="none" 
	d="
M31.217682,77.994568 
	C31.703371,77.623650 32.529133,77.319695 33.691971,77.067802 
	C33.205284,77.433762 32.381519,77.747650 31.217682,77.994568 
z"/>
<path fill="#E6D8D6" opacity="1.000000" stroke="none" 
	d="
M25.301144,80.000252 
	C25.014904,79.975876 25.105326,79.591644 25.130550,79.395935 
	C25.155777,79.200218 25.088566,79.188248 25.428694,79.211945 
	C26.186434,79.222099 26.604046,79.208549 27.021660,79.195007 
	C26.543568,79.471542 26.065475,79.748085 25.301144,80.000252 
z"/>
<path fill="#D61920" opacity="1.000000" stroke="none" 
	d="
M20.622288,81.484917 
	C20.797367,81.107285 21.256178,80.735542 22.030670,80.501587 
	C21.866243,80.923187 21.386131,81.207001 20.622288,81.484917 
z"/>
<path fill="#CD2029" opacity="1.000000" stroke="none" 
	d="
M27.149439,79.050674 
	C26.604046,79.208549 26.186434,79.222099 25.453434,79.235153 
	C25.687273,78.915878 26.236498,78.597092 27.109165,78.415894 
	C27.432604,78.553497 27.277220,78.906342 27.149439,79.050674 
z"/>
<path fill="#FCCAC7" opacity="1.000000" stroke="none" 
	d="
M62.193306,76.514084 
	C62.569988,76.344841 63.168274,76.399040 64.001266,76.651840 
	C63.628956,76.812805 63.021931,76.775162 62.193306,76.514084 
z"/>
<path fill="#FCCAC7" opacity="1.000000" stroke="none" 
	d="
M37.467644,74.864471 
	C37.226101,74.563309 37.169117,74.101135 37.229233,73.306381 
	C37.448296,73.550346 37.550251,74.126900 37.467644,74.864471 
z"/>
<path fill="#CC2126" opacity="1.000000" stroke="none" 
	d="
M85.277901,85.092789 
	C85.224762,84.962669 85.677704,85.138626 85.763977,85.223083 
	C85.850258,85.307533 85.575455,85.358559 85.575455,85.358559 
	C85.575455,85.358559 85.331039,85.222900 85.277901,85.092789 
z"/>
<path fill="#FCCAC7" opacity="1.000000" stroke="none" 
	d="
M66.163879,77.435532 
	C66.330910,77.255188 66.691650,77.273125 67.240700,77.497963 
	C67.071869,77.681175 66.714737,77.657486 66.163879,77.435532 
z"/>
<path fill="#FEF2F4" opacity="1.000000" stroke="none" 
	d="
M37.705597,52.512074 
	C37.649803,51.547638 37.594009,50.583199 37.957069,49.296288 
	C38.558456,48.971741 38.740982,48.969666 39.302345,48.967514 
	C44.624779,47.907696 43.640785,44.394928 43.121803,40.734528 
	C44.168056,39.940464 45.065487,39.424877 45.962917,38.909294 
	C46.436317,38.853752 46.909714,38.798206 48.124710,38.671242 
	C50.611935,38.744701 52.357563,38.889584 54.103188,39.034470 
	C54.768368,39.417404 55.433552,39.800339 56.504917,40.449596 
	C57.253716,40.861465 57.596329,41.007008 57.938942,41.152554 
	C57.938942,41.152554 57.934605,41.070923 58.046394,41.407207 
	C63.320225,47.006241 62.973347,52.820667 59.877327,58.910400 
	C59.877327,58.910400 59.977493,58.968460 59.685844,59.011127 
	C59.081070,59.489326 58.767941,59.924862 58.454811,60.360397 
	C58.454807,60.360394 58.408882,60.439709 58.151245,60.545090 
	C57.656132,60.872143 57.375591,60.997299 56.804474,61.054653 
	C56.220009,61.220016 56.014370,61.466305 55.775978,62.123146 
	C54.723545,62.613235 53.835171,62.802410 52.586254,62.933693 
	C50.473896,62.928719 48.722084,62.981636 46.970268,63.034554 
	C46.142200,62.811436 45.314133,62.588318 44.068214,61.904594 
	C43.093060,61.232510 42.535755,61.021034 41.895920,60.485771 
	C40.605804,59.780537 39.398228,59.399094 38.151627,58.557350 
	C37.976940,56.235390 37.841270,54.373730 37.705597,52.512074 
M55.075150,43.643429 
	C55.677467,44.333813 56.279789,45.024197 56.882107,45.714581 
	C57.183197,45.333641 57.484287,44.952705 57.785374,44.571766 
	C56.859890,44.045006 55.934406,43.518250 54.800606,42.237469 
	C52.153133,41.796299 49.505661,41.355129 46.858189,40.913960 
	C46.837261,41.612228 46.816338,42.310497 46.795410,43.008766 
	C49.527493,43.008766 52.259575,43.008766 55.075150,43.643429 
M47.514473,54.166401 
	C51.136703,54.423477 54.758930,54.680553 60.242214,55.069710 
	C57.798119,53.282158 56.492085,51.716209 54.889103,51.303432 
	C52.702927,50.740479 50.289974,50.992817 47.975018,51.008430 
	C42.571579,51.044888 41.537842,53.081451 44.189297,58.205948 
	C45.037376,56.924793 45.907173,55.610836 47.514473,54.166401 
M52.881809,47.040810 
	C50.813938,47.174641 48.746071,47.308472 46.678200,47.442303 
	C46.705173,47.944271 46.732143,48.446243 46.759117,48.948212 
	C48.816761,48.948212 50.878979,49.013359 52.926544,48.869705 
	C53.197044,48.850723 53.392838,47.766956 52.881809,47.040810 
z"/>
<path fill="#D31618" opacity="1.000000" stroke="none" 
	d="
M60.266869,58.951885 
	C62.973347,52.820667 63.320225,47.006241 58.008614,41.422791 
	C59.394142,41.932373 60.929249,42.762653 62.729183,43.797081 
	C62.991604,48.721897 62.989197,53.442562 62.993366,58.581615 
	C62.999947,59.000000 63.006050,58.991596 63.006050,58.991596 
	C62.222836,58.992188 61.439625,58.992779 60.266869,58.951885 
z"/>
<path fill="#F2FEFC" opacity="1.000000" stroke="none" 
	d="
M42.972977,41.013008 
	C43.640785,44.394928 44.624779,47.907696 39.461777,48.630791 
	C39.484413,46.831455 39.726440,45.368759 40.045162,43.677254 
	C40.121853,43.448441 40.447697,43.092396 40.632919,43.048859 
	C41.062580,42.847492 41.154423,42.626377 41.093681,42.341969 
	C41.093681,42.341969 41.205772,41.955872 41.532661,41.688759 
	C42.230698,41.285431 42.601837,41.149220 42.972977,41.013008 
z"/>
<path fill="#CD2029" opacity="1.000000" stroke="none" 
	d="
M54.208466,38.790264 
	C52.357563,38.889584 50.611935,38.744701 48.444595,38.507736 
	C50.119835,38.459122 52.216785,38.502590 54.208466,38.790264 
z"/>
<path fill="#CD2029" opacity="1.000000" stroke="none" 
	d="
M43.121803,40.734531 
	C42.601837,41.149220 42.230698,41.285431 41.568180,41.490898 
	C42.674400,40.520088 44.071999,39.480022 45.716255,38.674625 
	C45.065487,39.424877 44.168056,39.940464 43.121803,40.734531 
z"/>
<path fill="#CD2029" opacity="1.000000" stroke="none" 
	d="
M40.447697,43.092396 
	C40.447697,43.092396 40.121853,43.448441 39.827461,43.711582 
	C39.533066,43.974724 39.113953,44.110027 39.113953,44.110027 
	C39.113953,44.110027 38.935520,43.942131 38.843582,43.858295 
	C39.104298,43.312855 39.456947,42.851250 40.105442,42.539116 
	C40.401287,42.688580 40.447697,43.092396 40.447697,43.092396 
z"/>
<path fill="#D31618" opacity="1.000000" stroke="none" 
	d="
M57.813965,40.896988 
	C57.596329,41.007008 57.253716,40.861465 56.798729,40.451706 
	C57.020565,40.338802 57.354774,40.490108 57.813965,40.896988 
z"/>
<path fill="#FCCAC7" opacity="1.000000" stroke="none" 
	d="
M40.632919,43.048859 
	C40.447697,43.092396 40.401287,42.688580 40.397705,42.485722 
	C40.394123,42.282864 40.750313,42.236599 40.921997,42.289284 
	C41.154423,42.626377 41.062580,42.847492 40.632919,43.048859 
z"/>
<path fill="#D61920" opacity="1.000000" stroke="none" 
	d="
M71.064911,49.244400 
	C72.387520,50.999809 73.664001,53.136120 74.935501,55.619236 
	C73.626610,53.852463 72.322693,51.738888 71.064911,49.244400 
z"/>
<path fill="#D31618" opacity="1.000000" stroke="none" 
	d="
M57.051991,61.025932 
	C57.375591,60.997299 57.656132,60.872143 58.113552,60.571148 
	C59.283936,64.653984 56.103600,63.703529 53.560650,64.056793 
	C53.166584,64.083885 52.928543,63.877090 52.882996,63.613274 
	C52.837444,63.349457 52.946796,62.991592 52.946796,62.991592 
	C53.835171,62.802410 54.723545,62.613235 56.022820,62.088993 
	C56.784210,61.633907 56.990299,61.391243 57.051991,61.025932 
z"/>
<path fill="#DA1619" opacity="1.000000" stroke="none" 
	d="
M76.749054,78.760040 
	C76.124969,78.840790 75.286858,78.675095 74.224960,78.275543 
	C74.845795,78.198975 75.690414,78.356277 76.749054,78.760040 
z"/>
<path fill="#D31618" opacity="1.000000" stroke="none" 
	d="
M58.773228,60.405357 
	C58.767941,59.924862 59.081070,59.489326 59.651566,58.964478 
	C59.636505,59.400215 59.364075,59.925262 58.773228,60.405357 
z"/>
<path fill="#D31618" opacity="1.000000" stroke="none" 
	d="
M64.521988,61.483017 
	C64.538040,61.516354 64.505928,61.449680 64.521988,61.483017 
z"/>
<path fill="#D31618" opacity="1.000000" stroke="none" 
	d="
M62.995728,59.003067 
	C62.991505,59.006130 63.382984,59.235172 63.382984,59.235172 
	C63.382984,59.235172 63.103916,59.209888 63.054985,59.100742 
	C63.006050,58.991596 62.999947,59.000000 62.995728,59.003067 
z"/>
<path fill="#FCF7F6" opacity="1.000000" stroke="none" 
	d="
M38.190647,59.017651 
	C39.398228,59.399094 40.605804,59.780537 41.846519,60.693817 
	C41.879658,61.225658 41.919689,61.649273 41.919689,61.649273 
	C41.839363,61.875690 41.759041,62.102112 41.591774,62.678299 
	C41.269657,63.502682 41.034481,63.977306 40.728909,64.714722 
	C40.047863,64.982750 39.437214,64.987999 38.522461,64.988037 
	C38.110977,64.718536 37.977203,64.468376 37.641109,64.112946 
	C37.422215,62.935188 37.379242,61.876808 37.564892,60.298111 
	C37.951817,59.537956 38.084194,59.284576 38.190647,59.017651 
z"/>
<path fill="#FCCAC7" opacity="1.000000" stroke="none" 
	d="
M52.586254,62.933693 
	C52.946796,62.991592 52.837444,63.349457 52.757172,63.518265 
	C50.964386,63.626396 49.251873,63.565712 47.254814,63.269791 
	C48.722084,62.981636 50.473896,62.928719 52.586254,62.933693 
z"/>
<path fill="#FCCAC7" opacity="1.000000" stroke="none" 
	d="
M42.264896,61.710342 
	C41.919689,61.649273 41.879658,61.225658 41.929054,61.017609 
	C42.535755,61.021034 43.093060,61.232510 43.823895,61.689240 
	C43.534988,61.880131 43.072544,61.825771 42.264896,61.710342 
z"/>
<path fill="#FCCAC7" opacity="1.000000" stroke="none" 
	d="
M39.028595,44.461941 
	C39.113953,44.110027 39.533066,43.974724 39.750771,43.940395 
	C39.726440,45.368759 39.484413,46.831455 39.082947,48.630871 
	C38.740982,48.969666 38.558456,48.971741 38.102402,48.959709 
	C38.200329,47.568359 38.571781,46.191105 39.028595,44.461941 
z"/>
<path fill="#FCCAC7" opacity="1.000000" stroke="none" 
	d="
M38.151627,58.557350 
	C38.084194,59.284576 37.951817,59.537956 37.620121,59.903923 
	C37.415936,57.781960 37.385139,55.533863 37.529972,52.898918 
	C37.841270,54.373730 37.976940,56.235390 38.151627,58.557350 
z"/>
<path fill="#F4FEF8" opacity="1.000000" stroke="none" 
	d="
M47.145721,54.231640 
	C45.907173,55.610836 45.037376,56.924793 44.189297,58.205948 
	C41.537842,53.081451 42.571579,51.044888 47.975018,51.008430 
	C50.289974,50.992817 52.702927,50.740479 54.889103,51.303432 
	C56.492085,51.716209 57.798119,53.282158 60.242214,55.069710 
	C54.758930,54.680553 51.136703,54.423477 47.145721,54.231640 
z"/>
<path fill="#F4FEF8" opacity="1.000000" stroke="none" 
	d="
M53.252518,47.108570 
	C53.392838,47.766956 53.197044,48.850723 52.926544,48.869705 
	C50.878979,49.013359 48.816761,48.948212 46.759117,48.948212 
	C46.732143,48.446243 46.705173,47.944271 46.678200,47.442303 
	C48.746071,47.308472 50.813938,47.174641 53.252518,47.108570 
z"/>
<path fill="#F2FEFC" opacity="1.000000" stroke="none" 
	d="
M54.991657,43.008766 
	C52.259575,43.008766 49.527493,43.008766 46.795410,43.008766 
	C46.816338,42.310497 46.837261,41.612228 46.858189,40.913960 
	C49.505661,41.355129 52.153133,41.796299 54.900322,42.618721 
	C55.000038,42.999973 54.991657,43.008766 54.991657,43.008766 
z"/>
<path fill="#F2FEFC" opacity="1.000000" stroke="none" 
	d="
M55.004478,42.995735 
	C55.934406,43.518250 56.859890,44.045006 57.785374,44.571766 
	C57.484287,44.952705 57.183197,45.333641 56.882107,45.714581 
	C56.279789,45.024197 55.677467,44.333813 55.033401,43.326096 
	C54.991657,43.008766 55.000038,42.999973 55.004478,42.995735 
z"/>
<path fill="#FCCAC7" opacity="1.000000" stroke="none" 
	d="
M56.804474,61.054653 
	C56.990299,61.391243 56.784210,61.633907 56.186874,61.788082 
	C56.014370,61.466305 56.220009,61.220016 56.804474,61.054653 
z"/>
</svg>