<svg version="1.1" id="Layer_1" xmlns="http://www.w3.org/2000/svg" xmlns:xlink="http://www.w3.org/1999/xlink" x="0px" y="0px"
	 width="100%" viewBox="0 0 629 123" enable-background="new 0 0 629 123" xml:space="preserve">
<path fill="#FFFFFF" opacity="1.000000" stroke="none" 
	d="
M50.000000,124.000000 
	C33.735680,124.000000 17.471361,124.000000 1.000000,124.000000 
	C1.000000,105.979637 1.000000,87.958473 1.350338,69.638519 
	C4.563645,83.363327 11.471292,94.720230 23.169550,102.951302 
	C20.967916,90.306015 16.475422,78.411194 18.848314,65.251007 
	C21.877890,48.448795 27.594440,33.343922 41.762638,22.892490 
	C50.448132,16.485474 60.240814,13.001064 71.251961,16.038065 
	C79.480774,18.307665 87.594559,25.500526 87.055420,34.907677 
	C86.453499,45.410305 82.042885,53.643085 73.576294,59.795593 
	C72.084938,60.879330 70.687309,62.092033 68.597443,63.764530 
	C78.409409,64.245522 87.258995,65.200859 93.802361,71.527328 
	C100.437614,77.942635 102.245216,86.381531 100.399574,95.695114 
	C102.291695,94.122581 103.834091,92.633957 104.991333,90.889778 
	C112.586357,79.442566 116.453026,67.100090 115.079742,53.110664 
	C113.112282,33.068439 103.763077,17.895771 86.376106,7.873563 
	C81.537666,5.084591 76.140724,3.264552 71.000000,1.000000 
	C257.268646,1.000000 443.537323,1.000000 629.902954,1.000000 
	C629.902954,41.920879 629.902954,82.842064 629.902954,124.000000 
	C437.645844,124.000000 245.291580,124.000000 52.581520,123.638023 
	C52.530991,122.703064 53.074398,122.142593 53.105263,121.555191 
	C53.476036,114.497833 58.269318,114.620911 63.421654,114.933380 
	C65.285637,115.046417 67.195152,114.408798 69.083893,114.113708 
	C68.287964,112.318954 67.593674,111.604797 66.761627,111.361305 
	C59.163559,109.137733 54.174324,103.914833 51.071056,96.997490 
	C42.347897,77.553139 45.200596,59.043537 56.160622,41.332829 
	C57.541191,39.101910 58.882702,36.846813 60.242310,34.602917 
	C59.792656,34.235470 59.343002,33.868023 58.893349,33.500576 
	C54.724632,37.381012 49.719349,40.677227 46.531208,45.242451 
	C32.312542,65.602753 29.968550,95.073730 45.005711,116.369270 
	C46.758091,118.850975 48.339390,121.453491 50.000000,124.000000 
M278.000000,75.447334 
	C278.000000,78.569809 278.000000,81.692284 278.000000,84.814758 
	C278.223419,84.800407 278.446869,84.786057 278.670288,84.771706 
	C278.670288,70.252579 278.670288,55.733452 278.670288,41.214325 
	C278.446869,41.214840 278.223419,41.215351 278.000000,41.215866 
	C278.000000,52.298283 278.000000,63.380703 278.000000,75.447334 
M508.001221,72.484879 
	C508.001221,65.372414 508.001221,58.259949 508.001221,51.147480 
	C507.667877,51.151871 507.334564,51.156261 507.001221,51.160648 
	C507.001221,56.785534 507.001251,62.410423 507.001251,68.035309 
	C507.001251,73.651741 507.001221,79.268173 507.001221,84.884605 
	C507.334564,84.879257 507.667877,84.873917 508.001221,84.868568 
	C508.001221,81.071251 508.001221,77.273926 508.001221,72.484879 
M259.000885,49.575554 
	C259.000885,46.764919 259.000885,43.954281 259.000885,41.143646 
	C258.771759,41.151985 258.542664,41.160320 258.313538,41.168659 
	C258.313538,49.386116 258.313538,57.603569 258.313538,65.821022 
	C258.542664,65.821869 258.771759,65.822708 259.000885,65.823547 
	C259.000885,60.732719 259.000885,55.641888 259.000885,49.575554 
M304.425812,76.000916 
	C299.696381,76.000916 294.966949,76.000916 290.237518,76.000916 
	C290.249939,76.218369 290.262329,76.435814 290.274750,76.653267 
	C297.766663,76.653267 305.258606,76.653267 312.750519,76.653267 
	C312.747894,76.435814 312.745270,76.218369 312.742676,76.000916 
	C310.291382,76.000916 307.840118,76.000916 304.425812,76.000916 
z"/>
<path fill="#1DA1F2" opacity="1.000000" stroke="none" 
	d="
M70.531349,1.000000 
	C76.140724,3.264552 81.537666,5.084591 86.376106,7.873563 
	C103.763077,17.895771 113.112282,33.068439 115.079742,53.110664 
	C116.453026,67.100090 112.586357,79.442566 104.991333,90.889778 
	C103.834091,92.633957 102.291695,94.122581 100.399574,95.695114 
	C102.245216,86.381531 100.437614,77.942635 93.802361,71.527328 
	C87.258995,65.200859 78.409409,64.245522 68.597443,63.764530 
	C70.687309,62.092033 72.084938,60.879330 73.576294,59.795593 
	C82.042885,53.643085 86.453499,45.410305 87.055420,34.907677 
	C87.594559,25.500526 79.480774,18.307665 71.251961,16.038065 
	C60.240814,13.001064 50.448132,16.485474 41.762638,22.892490 
	C27.594440,33.343922 21.877890,48.448795 18.848314,65.251007 
	C16.475422,78.411194 20.967916,90.306015 23.169550,102.951302 
	C11.471292,94.720230 4.563645,83.363327 1.350338,69.169861 
	C1.000000,61.979053 1.000000,54.958103 1.351671,47.300808 
	C4.465244,31.512503 12.214286,19.343712 24.857552,10.815557 
	C30.988968,6.679782 38.250244,4.219066 45.000000,1.000000 
	C53.354233,1.000000 61.708466,1.000000 70.531349,1.000000 
z"/>
<path fill="#2D36C3" opacity="1.000000" stroke="none" 
	d="
M50.333332,124.000000 
	C48.339390,121.453491 46.758091,118.850975 45.005711,116.369270 
	C29.968550,95.073730 32.312542,65.602753 46.531208,45.242451 
	C49.719349,40.677227 54.724632,37.381012 58.893349,33.500576 
	C59.343002,33.868023 59.792656,34.235470 60.242310,34.602917 
	C58.882702,36.846813 57.541191,39.101910 56.160622,41.332829 
	C45.200596,59.043537 42.347897,77.553139 51.071056,96.997490 
	C54.174324,103.914833 59.163559,109.137733 66.761627,111.361305 
	C67.593674,111.604797 68.287964,112.318954 69.083893,114.113708 
	C67.195152,114.408798 65.285637,115.046417 63.421654,114.933380 
	C58.269318,114.620911 53.476036,114.497833 53.105263,121.555191 
	C53.074398,122.142593 52.530991,122.703064 52.112862,123.638023 
	C51.555553,124.000000 51.111111,124.000000 50.333332,124.000000 
z"/>
<path fill="#FFFFFF" opacity="1.000000" stroke="none" 
	d="
M44.531342,1.000000 
	C38.250244,4.219066 30.988968,6.679782 24.857552,10.815557 
	C12.214286,19.343712 4.465244,31.512503 1.351671,46.832230 
	C1.000000,31.741589 1.000000,16.483177 1.000000,1.000000 
	C15.353446,1.000000 29.708065,1.000000 44.531342,1.000000 
z"/>
<path fill="#EFEFEF" opacity="1.000000" stroke="none" 
	d="
M278.000000,74.955231 
	C278.000000,63.380703 278.000000,52.298283 278.000000,41.215866 
	C278.223419,41.215351 278.446869,41.214840 278.670288,41.214325 
	C278.670288,55.733452 278.670288,70.252579 278.670288,84.771706 
	C278.446869,84.786057 278.223419,84.800407 278.000000,84.814758 
	C278.000000,81.692284 278.000000,78.569809 278.000000,74.955231 
z"/>
<path fill="#D5D5D5" opacity="1.000000" stroke="none" 
	d="
M508.001221,72.980743 
	C508.001221,77.273926 508.001221,81.071251 508.001221,84.868568 
	C507.667877,84.873917 507.334564,84.879257 507.001221,84.884605 
	C507.001221,79.268173 507.001251,73.651741 507.001251,68.035309 
	C507.001251,62.410423 507.001221,56.785534 507.001221,51.160648 
	C507.334564,51.156261 507.667877,51.151871 508.001221,51.147480 
	C508.001221,58.259949 508.001221,65.372414 508.001221,72.980743 
z"/>
<path fill="#EFEFEF" opacity="1.000000" stroke="none" 
	d="
M259.000885,50.063305 
	C259.000885,55.641888 259.000885,60.732719 259.000885,65.823547 
	C258.771759,65.822708 258.542664,65.821869 258.313538,65.821022 
	C258.313538,57.603569 258.313538,49.386116 258.313538,41.168659 
	C258.542664,41.160320 258.771759,41.151985 259.000885,41.143646 
	C259.000885,43.954281 259.000885,46.764919 259.000885,50.063305 
z"/>
<path fill="#F3F3F3" opacity="1.000000" stroke="none" 
	d="
M304.907349,76.000916 
	C307.840118,76.000916 310.291382,76.000916 312.742676,76.000916 
	C312.745270,76.218369 312.747894,76.435814 312.750519,76.653267 
	C305.258606,76.653267 297.766663,76.653267 290.274750,76.653267 
	C290.262329,76.435814 290.249939,76.218369 290.237518,76.000916 
	C294.966949,76.000916 299.696381,76.000916 304.907349,76.000916 
z"/>
</svg>