<svg version="1.1" id="Layer_1" xmlns="http://www.w3.org/2000/svg" xmlns:xlink="http://www.w3.org/1999/xlink" x="0px" y="0px"
	 width="100%" viewBox="0 0 160 107" enable-background="new 0 0 160 107" xml:space="preserve">
<path fill="#000000" opacity="1.000000" stroke="none" 
	d="
M1.000000,96.000000 
	C1.000000,64.415031 1.000000,32.830059 1.000000,1.000000 
	C25.687021,1.000000 50.374851,1.000000 75.816704,1.278036 
	C68.518463,9.725556 60.540932,17.970449 52.393730,26.044130 
	C43.563190,34.794979 46.815887,50.542267 58.785168,52.930656 
	C62.285522,53.629128 65.971664,53.396534 70.123245,53.620377 
	C70.123245,57.110027 70.123245,61.007103 70.123245,64.672852 
	C73.391365,64.672852 76.129181,64.672852 78.732590,64.672852 
	C78.732590,49.633041 78.732590,34.921719 78.732590,19.173912 
	C74.089432,23.630159 68.556602,26.255491 69.954277,33.452671 
	C70.265747,35.056545 69.969971,36.773205 70.005798,38.436817 
	C70.079651,41.865520 68.186638,43.952065 65.167618,44.900646 
	C61.162319,46.159126 57.969608,43.893291 56.623386,40.762100 
	C55.804371,38.857151 56.828903,35.233219 58.310108,33.446636 
	C62.116299,28.855722 66.294029,24.423370 70.958015,20.729008 
	C77.541382,15.514297 80.430443,9.254972 79.000000,1.000000 
	C80.714355,1.000000 82.428719,1.000000 84.571533,1.468657 
	C85.000000,22.834995 85.000000,43.732677 85.000000,64.810623 
	C87.803795,64.810623 90.204041,64.810623 92.924805,64.810623 
	C92.924805,60.549213 92.924805,56.462475 92.924805,52.273376 
	C93.871941,52.578419 94.495934,52.781212 95.121056,52.980442 
	C104.131836,55.852222 110.692825,51.396797 113.978279,46.011124 
	C118.066689,39.309208 116.817879,32.320206 110.683472,26.180626 
	C103.518295,19.009405 96.319359,11.871462 89.213280,4.642200 
	C88.243797,3.655905 87.726608,2.225031 87.000000,1.000000 
	C111.596390,1.000000 136.192780,1.000000 161.000000,1.000000 
	C161.000000,27.353853 161.000000,53.708267 160.531525,80.531342 
	C152.888153,81.515511 145.547714,79.792870 138.525528,82.651337 
	C139.144257,83.002724 139.765076,82.941345 140.365707,83.024971 
	C140.746765,83.078018 141.097778,83.346855 142.115204,83.827164 
	C139.657501,83.827164 138.037750,83.827164 136.471451,83.827164 
	C136.596069,82.841728 136.700211,82.018181 136.724243,81.828140 
	C128.822723,81.828140 121.204231,81.828140 113.585739,81.828140 
	C113.585571,82.131599 113.585411,82.435066 113.585243,82.738525 
	C114.613586,82.934578 115.641930,83.130623 116.670265,83.326668 
	C116.663506,83.491951 116.656746,83.657242 116.649986,83.822533 
	C115.203728,83.932465 113.757477,84.042397 111.568146,84.208809 
	C113.071663,84.835930 113.894180,85.179008 114.716698,85.522079 
	C112.716736,85.624962 111.302444,84.768906 109.984871,83.783508 
	C108.851753,82.936073 107.861618,81.184708 106.752090,81.136925 
	C100.644577,80.873848 94.519806,81.011238 88.400955,81.011238 
	C88.395470,81.562843 88.389992,82.114449 88.384514,82.666054 
	C89.731491,82.908173 91.078468,83.150291 91.624870,83.248505 
	C90.033241,84.152550 88.145737,85.224655 86.258232,86.296768 
	C86.937134,87.144249 87.616035,87.991730 88.327362,88.879692 
	C87.020927,88.939537 85.550705,89.006882 83.883484,88.890755 
	C83.548744,88.592247 83.410988,88.477211 83.515640,88.077393 
	C84.577293,85.675949 85.396545,83.559296 86.448898,80.840408 
	C78.195274,81.621521 70.729721,79.728073 62.687225,82.593857 
	C64.600403,82.939339 65.643005,83.127609 66.685608,83.315880 
	C66.678497,83.479492 66.671387,83.643097 66.664276,83.806709 
	C65.222252,83.924232 63.780224,84.041756 62.191978,84.171196 
	C62.720818,84.739479 63.151531,85.202324 63.937637,86.047058 
	C62.357384,85.930519 61.261494,85.849693 60.296803,85.778542 
	C60.912319,84.137123 61.441128,82.726921 62.195538,80.715103 
	C54.246304,81.810265 46.725414,79.590263 39.051563,82.471954 
	C40.496181,82.904549 41.456573,83.192131 42.416962,83.479721 
	C40.656231,83.949821 38.255352,84.462265 37.551449,83.595924 
	C33.663662,78.810989 28.685120,79.801796 23.856045,80.658585 
	C19.149984,81.493553 14.547372,82.913284 9.904913,84.098122 
	C9.735867,84.141266 9.625836,84.415657 9.447236,84.632027 
	C10.237737,84.934967 10.932519,85.201225 12.252851,85.707214 
	C10.104162,85.934059 8.594794,86.093407 7.085427,86.252754 
	C6.770951,86.685837 6.456474,87.118919 6.141997,87.552002 
	C6.997046,87.842232 7.852094,88.132462 9.100502,88.556213 
	C7.558961,88.915215 6.534048,89.153900 4.831872,89.550308 
	C6.306858,89.942604 7.011767,90.130081 8.518358,90.530785 
	C6.044651,90.955368 4.471396,91.225403 2.898142,91.495438 
	C2.929032,91.820114 2.959921,92.144798 2.990810,92.469475 
	C3.839587,92.782661 4.688365,93.095856 6.140284,93.631599 
	C4.416081,93.937325 3.356818,94.125145 1.558400,94.444031 
	C3.391777,94.907715 4.464120,95.178917 5.536464,95.450127 
	C5.502960,95.633415 5.469456,95.816711 5.435952,96.000000 
	C3.957301,96.000000 2.478651,96.000000 1.000000,96.000000 
z"/>
<path fill="#FFFFFF" opacity="1.000000" stroke="none" 
	d="
M1.000000,96.428467 
	C2.478651,96.000000 3.957301,96.000000 5.435952,96.000000 
	C5.469456,95.816711 5.502960,95.633415 5.536464,95.450127 
	C4.464120,95.178917 3.391777,94.907715 1.558400,94.444031 
	C3.356818,94.125145 4.416081,93.937325 6.140284,93.631599 
	C4.688365,93.095856 3.839587,92.782661 2.990810,92.469475 
	C2.959921,92.144798 2.929032,91.820114 2.898142,91.495438 
	C4.471396,91.225403 6.044651,90.955368 8.518358,90.530785 
	C7.011767,90.130081 6.306858,89.942604 4.831872,89.550308 
	C6.534048,89.153900 7.558961,88.915215 9.100502,88.556213 
	C7.852094,88.132462 6.997046,87.842232 6.141997,87.552002 
	C6.456474,87.118919 6.770951,86.685837 7.085427,86.252754 
	C8.594794,86.093407 10.104162,85.934059 12.252851,85.707214 
	C10.932519,85.201225 10.237737,84.934967 9.447236,84.632027 
	C9.625836,84.415657 9.735867,84.141266 9.904913,84.098122 
	C14.547372,82.913284 19.149984,81.493553 23.856045,80.658585 
	C28.685120,79.801796 33.663662,78.810989 37.551449,83.595924 
	C38.255352,84.462265 40.656231,83.949821 42.416962,83.479721 
	C41.456573,83.192131 40.496181,82.904549 39.051563,82.471954 
	C46.725414,79.590263 54.246304,81.810265 62.195538,80.715103 
	C61.441128,82.726921 60.912319,84.137123 60.296803,85.778542 
	C61.261494,85.849693 62.357384,85.930519 63.937637,86.047058 
	C63.151531,85.202324 62.720818,84.739479 62.191978,84.171196 
	C63.780224,84.041756 65.222252,83.924232 66.664276,83.806709 
	C66.671387,83.643097 66.678497,83.479492 66.685608,83.315880 
	C65.643005,83.127609 64.600403,82.939339 62.687225,82.593857 
	C70.729721,79.728073 78.195274,81.621521 86.448898,80.840408 
	C85.396545,83.559296 84.577293,85.675949 83.187027,88.341370 
	C79.569183,88.890129 76.522354,88.890129 73.475525,88.890129 
	C73.469513,89.193123 73.463493,89.496117 73.457474,89.799110 
	C76.283371,89.946663 79.109268,90.094208 82.256638,90.258545 
	C80.974213,92.561455 79.972435,94.360390 78.878792,96.324287 
	C81.560417,96.125916 83.563652,95.977730 85.566879,95.829552 
	C85.584045,95.634262 85.601212,95.438972 85.618370,95.243683 
	C84.539024,95.085251 83.459679,94.926826 81.510353,94.640701 
	C83.112549,94.120193 83.825958,93.888428 84.484886,93.674362 
	C83.967148,92.916107 83.484306,92.208969 82.776932,91.172974 
	C84.783516,91.035530 86.214638,90.937508 88.046074,90.812057 
	C86.453819,90.114288 85.267151,89.594254 84.080482,89.074226 
	C85.550705,89.006882 87.020927,88.939537 88.327362,88.879692 
	C87.616035,87.991730 86.937134,87.144249 86.258232,86.296768 
	C88.145737,85.224655 90.033241,84.152550 91.624870,83.248505 
	C91.078468,83.150291 89.731491,82.908173 88.384514,82.666054 
	C88.389992,82.114449 88.395470,81.562843 88.400955,81.011238 
	C94.519806,81.011238 100.644577,80.873848 106.752090,81.136925 
	C107.861618,81.184708 108.851753,82.936073 109.984871,83.783508 
	C111.302444,84.768906 112.716736,85.624962 114.716698,85.522079 
	C113.894180,85.179008 113.071663,84.835930 111.568146,84.208809 
	C113.757477,84.042397 115.203728,83.932465 116.649986,83.822533 
	C116.656746,83.657242 116.663506,83.491951 116.670265,83.326668 
	C115.641930,83.130623 114.613586,82.934578 113.585243,82.738525 
	C113.585411,82.435066 113.585571,82.131599 113.585739,81.828140 
	C121.204231,81.828140 128.822723,81.828140 136.724243,81.828140 
	C136.700211,82.018181 136.596069,82.841728 136.471451,83.827164 
	C138.037750,83.827164 139.657501,83.827164 142.115204,83.827164 
	C141.097778,83.346855 140.746765,83.078018 140.365707,83.024971 
	C139.765076,82.941345 139.144257,83.002724 138.525528,82.651337 
	C145.547714,79.792870 152.888153,81.515511 160.531525,81.000000 
	C161.000000,82.066673 161.000000,83.133339 160.666718,84.306625 
	C158.145233,91.164848 151.997589,88.223404 147.608002,90.021652 
	C150.355743,90.021652 153.103470,90.021652 155.910843,90.021652 
	C154.855453,96.538551 153.293274,97.930237 147.680099,98.031960 
	C145.896439,98.064285 144.119614,98.473473 142.339661,98.710213 
	C142.416336,99.183266 142.492996,99.656319 142.569656,100.129372 
	C145.319336,100.129372 148.069016,100.129372 151.084579,100.129372 
	C149.951904,103.019547 148.975952,105.509773 148.000000,108.000000 
	C132.645767,108.000000 117.291542,108.000000 101.767654,107.744240 
	C102.030937,106.141945 102.463882,104.795410 103.005775,103.110023 
	C103.757767,103.044754 105.205559,102.919106 107.854622,102.689209 
	C105.599571,102.129814 104.525658,101.863426 102.415009,101.339859 
	C104.882607,101.050400 106.233017,100.891998 107.583435,100.733589 
	C107.582558,100.569290 107.581680,100.404999 107.580803,100.240707 
	C106.499084,100.075317 105.417366,99.909927 104.001419,99.693443 
	C105.880211,99.032471 107.405739,98.495781 108.931267,97.959091 
	C108.854317,97.568626 108.777374,97.178162 108.700424,96.787697 
	C103.557800,97.292336 98.415169,97.796982 92.897202,98.338455 
	C91.644211,101.444740 90.322105,104.722366 89.000000,108.000000 
	C84.643097,108.000000 80.286201,108.000000 75.750198,107.748001 
	C75.406364,107.023262 75.241623,106.550537 75.455765,106.041695 
	C76.784897,105.936523 77.735146,105.867462 78.685158,105.798424 
	C77.966011,104.987663 77.399071,104.348495 76.520142,103.357590 
	C78.246552,103.102440 79.420967,102.928871 81.205162,102.665184 
	C79.848366,102.126289 79.113663,101.834480 77.951218,101.372772 
	C79.532288,101.065575 80.572945,100.863388 81.786537,100.627594 
	C76.981148,96.545906 72.209419,97.599838 67.388893,99.991692 
	C70.182487,99.991692 72.976089,99.991692 76.487015,99.991692 
	C75.659081,102.075630 75.030724,103.657211 74.148254,105.455597 
	C73.596085,106.448265 73.298042,107.224136 73.000000,108.000000 
	C50.645771,108.000000 28.291542,108.000000 5.780665,107.713486 
	C6.560223,106.687752 7.496430,105.948532 8.697713,105.000000 
	C6.030227,105.000000 3.515114,105.000000 1.000000,105.000000 
	C1.000000,104.555557 1.000000,104.111107 1.299694,103.639450 
	C2.601508,103.270798 3.603627,102.929352 5.485006,102.288322 
	C3.420998,102.155632 2.210499,102.077812 1.000000,102.000000 
	C1.000000,100.285645 1.000000,98.571281 1.000000,96.428467 
M16.027298,94.718712 
	C14.499427,97.734383 15.061714,99.285461 18.880081,98.797798 
	C18.272957,97.858307 17.774630,97.087181 16.808771,95.592567 
	C23.528141,95.592567 29.567802,95.592567 36.900661,95.592567 
	C34.573620,95.126907 33.492931,94.910652 31.127918,94.437393 
	C33.528248,94.051468 34.604336,93.878448 35.600994,93.718208 
	C34.963356,92.970787 34.415337,92.328415 33.611565,91.386253 
	C35.613968,91.067612 37.091930,90.832428 39.739647,90.411102 
	C30.656469,88.720543 22.667135,86.385719 16.027298,94.718712 
M47.715111,97.999992 
	C46.253017,98.301712 44.790928,98.603432 43.328838,98.905151 
	C43.396244,99.302345 43.463654,99.699547 43.531059,100.096741 
	C46.285431,100.096741 49.039799,100.096741 52.175713,100.096741 
	C51.825878,101.219711 51.607292,101.921364 51.330486,102.809906 
	C52.812149,102.809906 54.237522,102.809906 56.532532,102.809906 
	C54.920033,102.166527 54.110195,101.843407 52.900063,101.360573 
	C54.393166,101.076843 55.462181,100.873703 57.245865,100.534760 
	C55.719959,100.048538 54.979900,99.812729 54.280060,99.589729 
	C55.499046,98.975060 56.688457,98.375305 57.877865,97.775558 
	C57.788387,97.538460 57.698906,97.301353 57.609428,97.064255 
	C54.606472,97.376167 51.603519,97.688080 47.715111,97.999992 
M121.573318,99.999992 
	C124.906151,100.337761 128.238983,100.675522 131.571808,101.013283 
	C131.623291,100.835075 131.674759,100.656860 131.726242,100.478645 
	C130.909470,100.178177 130.092712,99.877701 129.296112,99.584641 
	C130.500488,99.008614 131.749634,98.411171 132.998795,97.813728 
	C132.915237,97.518356 132.831696,97.222984 132.748154,96.927612 
	C127.827599,97.455406 122.907043,97.983192 117.986488,98.510979 
	C117.995964,98.856094 118.005440,99.201218 118.014915,99.546333 
	C118.896500,99.697479 119.778084,99.848625 121.573318,99.999992 
M37.492302,88.994827 
	C37.902920,88.873184 38.313538,88.751541 38.724155,88.629890 
	C38.614552,88.425858 38.504951,88.221817 38.395348,88.017776 
	C37.855465,88.333527 37.315578,88.649277 37.492302,88.994827 
M80.211746,97.479019 
	C80.998650,97.635544 81.785553,97.792068 82.572456,97.948593 
	C82.608894,97.741730 82.645340,97.534866 82.681778,97.328003 
	C82.046066,97.230148 81.410347,97.132301 80.211746,97.479019 
M35.069794,86.523796 
	C35.283066,86.605011 35.496342,86.686234 35.709614,86.767448 
	C35.643406,86.537964 35.577202,86.308479 35.069794,86.523796 
z"/>
<path fill="#FFFFFF" opacity="1.000000" stroke="none" 
	d="
M78.625000,1.000000 
	C80.430443,9.254972 77.541382,15.514297 70.958015,20.729008 
	C66.294029,24.423370 62.116299,28.855722 58.310108,33.446636 
	C56.828903,35.233219 55.804371,38.857151 56.623386,40.762100 
	C57.969608,43.893291 61.162319,46.159126 65.167618,44.900646 
	C68.186638,43.952065 70.079651,41.865520 70.005798,38.436817 
	C69.969971,36.773205 70.265747,35.056545 69.954277,33.452671 
	C68.556602,26.255491 74.089432,23.630159 78.732590,19.173912 
	C78.732590,34.921719 78.732590,49.633041 78.732590,64.672852 
	C76.129181,64.672852 73.391365,64.672852 70.123245,64.672852 
	C70.123245,61.007103 70.123245,57.110027 70.123245,53.620377 
	C65.971664,53.396534 62.285522,53.629128 58.785168,52.930656 
	C46.815887,50.542267 43.563190,34.794979 52.393730,26.044130 
	C60.540932,17.970449 68.518463,9.725556 76.285362,1.278036 
	C76.750000,1.000000 77.500000,1.000000 78.625000,1.000000 
z"/>
<path fill="#FFFFFF" opacity="1.000000" stroke="none" 
	d="
M86.666672,1.000000 
	C87.726608,2.225031 88.243797,3.655905 89.213280,4.642200 
	C96.319359,11.871462 103.518295,19.009405 110.683472,26.180626 
	C116.817879,32.320206 118.066689,39.309208 113.978279,46.011124 
	C110.692825,51.396797 104.131836,55.852222 95.121056,52.980442 
	C94.495934,52.781212 93.871941,52.578419 92.924805,52.273376 
	C92.924805,56.462475 92.924805,60.549213 92.924805,64.810623 
	C90.204041,64.810623 87.803795,64.810623 85.000000,64.810623 
	C85.000000,43.732677 85.000000,22.834995 85.000000,1.468657 
	C85.444443,1.000000 85.888893,1.000000 86.666672,1.000000 
M107.040085,36.393936 
	C102.696091,31.187410 98.352097,25.980886 94.008102,20.774361 
	C93.000015,26.596682 92.963470,31.554625 93.010391,36.511776 
	C93.056412,41.373096 95.909523,44.905437 99.765663,44.999893 
	C104.754364,45.122082 106.899727,42.908726 107.040085,36.393936 
z"/>
<path fill="#000000" opacity="1.000000" stroke="none" 
	d="
M148.476669,108.000000 
	C148.975952,105.509773 149.951904,103.019547 151.084579,100.129372 
	C148.069016,100.129372 145.319336,100.129372 142.569656,100.129372 
	C142.492996,99.656319 142.416336,99.183266 142.339661,98.710213 
	C144.119614,98.473473 145.896439,98.064285 147.680099,98.031960 
	C153.293274,97.930237 154.855453,96.538551 155.910843,90.021652 
	C153.103470,90.021652 150.355743,90.021652 147.608002,90.021652 
	C151.997589,88.223404 158.145233,91.164848 160.666718,84.706619 
	C161.000000,92.568764 161.000000,100.137535 161.000000,108.000000 
	C156.989136,108.000000 152.971222,108.000000 148.476669,108.000000 
z"/>
<path fill="#000000" opacity="1.000000" stroke="none" 
	d="
M89.460632,108.000000 
	C90.322105,104.722366 91.644211,101.444740 92.897202,98.338455 
	C98.415169,97.796982 103.557800,97.292336 108.700424,96.787697 
	C108.777374,97.178162 108.854317,97.568626 108.931267,97.959091 
	C107.405739,98.495781 105.880211,99.032471 104.001419,99.693443 
	C105.417366,99.909927 106.499084,100.075317 107.580803,100.240707 
	C107.581680,100.404999 107.582558,100.569290 107.583435,100.733589 
	C106.233017,100.891998 104.882607,101.050400 102.415009,101.339859 
	C104.525658,101.863426 105.599571,102.129814 107.854622,102.689209 
	C105.205559,102.919106 103.757767,103.044754 103.005775,103.110023 
	C102.463882,104.795410 102.030937,106.141945 101.298996,107.744240 
	C97.307091,108.000000 93.614182,108.000000 89.460632,108.000000 
z"/>
<path fill="#000000" opacity="1.000000" stroke="none" 
	d="
M1.000000,105.500000 
	C3.515114,105.000000 6.030227,105.000000 8.697713,105.000000 
	C7.496430,105.948532 6.560223,106.687752 5.312008,107.713486 
	C3.748004,107.170662 0.685187,109.962959 1.000000,105.500000 
z"/>
<path fill="#000000" opacity="1.000000" stroke="none" 
	d="
M1.000000,102.250000 
	C2.210499,102.077812 3.420998,102.155632 5.485006,102.288322 
	C3.603627,102.929352 2.601508,103.270798 1.299694,103.306122 
	C1.000000,103.000000 1.000000,102.500000 1.000000,102.250000 
z"/>
<path fill="#000000" opacity="1.000000" stroke="none" 
	d="
M75.076889,106.077805 
	C75.241623,106.550537 75.406364,107.023262 75.285553,107.748001 
	C74.555557,108.000000 74.111107,108.000000 73.333328,108.000000 
	C73.298042,107.224136 73.596085,106.448265 74.309402,105.671356 
	C74.842087,105.806145 74.959488,105.941978 75.076889,106.077805 
z"/>
<path fill="#000000" opacity="1.000000" stroke="none" 
	d="
M16.218428,94.393860 
	C22.667135,86.385719 30.656469,88.720543 39.739647,90.411102 
	C37.091930,90.832428 35.613968,91.067612 33.611565,91.386253 
	C34.415337,92.328415 34.963356,92.970787 35.600994,93.718208 
	C34.604336,93.878448 33.528248,94.051468 31.127918,94.437393 
	C33.492931,94.910652 34.573620,95.126907 36.900661,95.592567 
	C29.567802,95.592567 23.528141,95.592567 16.808771,95.592567 
	C17.774630,97.087181 18.272957,97.858307 18.880081,98.797798 
	C15.061714,99.285461 14.499427,97.734383 16.218428,94.393860 
z"/>
<path fill="#000000" opacity="1.000000" stroke="none" 
	d="
M74.563530,105.454559 
	C75.030724,103.657211 75.659081,102.075630 76.487015,99.991692 
	C72.976089,99.991692 70.182487,99.991692 67.388893,99.991692 
	C72.209419,97.599838 76.981148,96.545906 81.786537,100.627594 
	C80.572945,100.863388 79.532288,101.065575 77.951218,101.372772 
	C79.113663,101.834480 79.848366,102.126289 81.205162,102.665184 
	C79.420967,102.928871 78.246552,103.102440 76.520142,103.357590 
	C77.399071,104.348495 77.966011,104.987663 78.685158,105.798424 
	C77.735146,105.867462 76.784897,105.936523 75.455765,106.041695 
	C74.959488,105.941978 74.842087,105.806145 74.563530,105.454559 
z"/>
<path fill="#000000" opacity="1.000000" stroke="none" 
	d="
M48.157837,97.999992 
	C51.603519,97.688080 54.606472,97.376167 57.609428,97.064255 
	C57.698906,97.301353 57.788387,97.538460 57.877865,97.775558 
	C56.688457,98.375305 55.499046,98.975060 54.280060,99.589729 
	C54.979900,99.812729 55.719959,100.048538 57.245865,100.534760 
	C55.462181,100.873703 54.393166,101.076843 52.900063,101.360573 
	C54.110195,101.843407 54.920033,102.166527 56.532532,102.809906 
	C54.237522,102.809906 52.812149,102.809906 51.330486,102.809906 
	C51.607292,101.921364 51.825878,101.219711 52.175713,100.096741 
	C49.039799,100.096741 46.285431,100.096741 43.531059,100.096741 
	C43.463654,99.699547 43.396244,99.302345 43.328838,98.905151 
	C44.790928,98.603432 46.253017,98.301712 48.157837,97.999992 
z"/>
<path fill="#000000" opacity="1.000000" stroke="none" 
	d="
M121.116493,99.999878 
	C119.778084,99.848625 118.896500,99.697479 118.014915,99.546333 
	C118.005440,99.201218 117.995964,98.856094 117.986488,98.510979 
	C122.907043,97.983192 127.827599,97.455406 132.748154,96.927612 
	C132.831696,97.222984 132.915237,97.518356 132.998795,97.813728 
	C131.749634,98.411171 130.500488,99.008614 129.296112,99.584641 
	C130.092712,99.877701 130.909470,100.178177 131.726242,100.478645 
	C131.674759,100.656860 131.623291,100.835075 131.571808,101.013283 
	C128.238983,100.675522 124.906151,100.337761 121.116493,99.999878 
z"/>
<path fill="#000000" opacity="1.000000" stroke="none" 
	d="
M83.883484,88.890755 
	C85.267151,89.594254 86.453819,90.114288 88.046074,90.812057 
	C86.214638,90.937508 84.783516,91.035530 82.776932,91.172974 
	C83.484306,92.208969 83.967148,92.916107 84.484886,93.674362 
	C83.825958,93.888428 83.112549,94.120193 81.510353,94.640701 
	C83.459679,94.926826 84.539024,95.085251 85.618370,95.243683 
	C85.601212,95.438972 85.584045,95.634262 85.566879,95.829552 
	C83.563652,95.977730 81.560417,96.125916 78.878792,96.324287 
	C79.972435,94.360390 80.974213,92.561455 82.256638,90.258545 
	C79.109268,90.094208 76.283371,89.946663 73.457474,89.799110 
	C73.463493,89.496117 73.469513,89.193123 73.475525,88.890129 
	C76.522354,88.890129 79.569183,88.890129 82.944626,88.626160 
	C83.410988,88.477211 83.548744,88.592247 83.883484,88.890755 
z"/>
<path fill="#000000" opacity="1.000000" stroke="none" 
	d="
M37.133999,88.979927 
	C37.315578,88.649277 37.855465,88.333527 38.395348,88.017776 
	C38.504951,88.221817 38.614552,88.425858 38.724155,88.629890 
	C38.313538,88.751541 37.902920,88.873184 37.133999,88.979927 
z"/>
<path fill="#000000" opacity="1.000000" stroke="none" 
	d="
M80.493195,97.256729 
	C81.410347,97.132301 82.046066,97.230148 82.681778,97.328003 
	C82.645340,97.534866 82.608894,97.741730 82.572456,97.948593 
	C81.785553,97.792068 80.998650,97.635544 80.493195,97.256729 
z"/>
<path fill="#000000" opacity="1.000000" stroke="none" 
	d="
M35.290394,86.301392 
	C35.577202,86.308479 35.643406,86.537964 35.709614,86.767448 
	C35.496342,86.686234 35.283066,86.605011 35.290394,86.301392 
z"/>
<path fill="#000000" opacity="1.000000" stroke="none" 
	d="
M107.275146,36.701908 
	C106.899727,42.908726 104.754364,45.122082 99.765663,44.999893 
	C95.909523,44.905437 93.056412,41.373096 93.010391,36.511776 
	C92.963470,31.554625 93.000015,26.596682 94.008102,20.774361 
	C98.352097,25.980886 102.696091,31.187410 107.275146,36.701908 
z"/>
</svg>