<svg data-testid="brand-logo-pii" width="204" height="59" viewBox="0 0 204 59" fill="none" xmlns="http://www.w3.org/2000/svg"><path d="M137.697 54.2321C137.761 54.1364 137.845 54.0556 137.943 53.9949C138.041 53.9342 138.15 53.8951 138.264 53.88C138.264 53.88 152.207 49.1058 170.752 50.0546C170.752 50.0546 171.806 50.0129 171.52 50.4784C171.355 50.7529 171.042 50.7767 170.445 50.8006C170.116 50.828 169.785 50.836 169.456 50.8245C169.456 50.8245 171.352 51.5675 163.865 51.4213C163.865 51.4213 164.526 52.1046 161.771 51.9076C161.771 51.9076 154.091 51.5526 138.571 54.3962C138.571 54.3962 137.351 54.6618 137.685 54.2411L137.697 54.2321Z" fill="#242E4A"></path><path d="M153.448 38.7576C153.448 38.7576 152.523 37.579 152.68 38.9366C152.733 41.0589 152.621 43.1821 152.343 45.2864C152.287 45.1393 152.212 45 152.122 44.8716C152.122 44.8716 151.315 43.7885 150.414 44.0868C150.414 44.0868 149.263 44.4539 148.595 46.2114C148.595 46.2114 148.125 47.4258 148.258 48.3389C148.258 48.3389 148.214 50.7409 151.106 49.0431C151.347 48.8839 151.57 48.6977 151.77 48.4881C151.677 48.7478 151.613 49.017 151.578 49.2908C151.578 49.2908 151.475 49.9263 151.761 50.0845C151.87 50.1471 151.989 50.0606 152.243 49.4459C152.243 49.4459 154.31 44.1137 154.41 41.9146C154.41 41.9146 155.134 40.8195 153.448 38.7576ZM149.859 48.3479C149.859 48.3479 149.646 48.2076 149.661 47.5631C149.729 46.8255 150.012 46.1247 150.473 45.549C150.473 45.549 150.683 45.2774 150.854 45.2506C150.911 45.2506 151.005 45.3222 151.046 45.6653C151.046 45.7489 150.816 45.7668 150.905 46.0324C150.905 46.0324 151.303 47.0558 152.148 46.5963C152.113 46.8052 152.074 47.017 152.036 47.2289C151.596 47.8436 150.671 48.9118 149.859 48.3508V48.3479ZM160.551 44.0212C160.551 44.0212 162.222 45.8115 162.154 47.0648C162.154 47.0648 161.927 48.8014 159.083 48.7417C159.083 48.7417 158.383 48.6373 159.083 48.1808C159.083 48.1808 160.929 47.584 159.718 45.3341C159.718 45.3341 158.575 46.6888 157.819 47.4408C155.654 49.5742 155.229 48.7925 155.229 48.7925C154.405 47.5989 155.007 44.991 155.007 44.991C155.326 43.6124 156.032 44.0958 156.032 44.0958C157.066 44.2659 156.679 45.167 156.679 45.167C156.549 45.8593 156.383 45.7847 156.383 45.7847C156.064 46.0413 155.999 47.1841 155.999 47.1841C156.126 47.8137 155.571 48.6761 157.181 47.2826C157.559 46.8977 159.479 44.7165 159.786 43.8571C159.786 43.8571 160.105 43.0186 160.563 44.0093L160.551 44.0212ZM158.073 41.3596C158.062 41.4831 158.024 41.6025 157.96 41.7085C157.897 41.8146 157.81 41.9045 157.707 41.9713C157.429 42.1861 156.853 42.5472 156.67 42.4964C156.487 42.4457 156.693 41.8489 156.702 41.6818C156.705 41.5126 156.722 41.3439 156.753 41.1776C156.768 40.9921 156.853 40.8196 156.99 40.6958C157.128 40.5719 157.307 40.5062 157.491 40.5121C157.68 40.5457 157.849 40.6537 157.96 40.8125C158.07 40.9714 158.114 41.1681 158.082 41.3596H158.073ZM169.869 43.687C170.362 43.0246 170.711 43.323 170.711 43.323C170.758 43.3498 170.855 43.323 170.897 43.323C171.555 43.2722 171.015 43.9198 171.015 43.9198C170.581 44.6049 170.227 45.3377 169.958 46.104C169.859 46.3794 169.776 46.6603 169.71 46.9454C169.509 47.8078 170.409 47.1961 170.409 47.1961C170.515 47.1105 170.614 47.0167 170.705 46.9156C170.757 46.8607 170.824 46.8224 170.897 46.8052C171.086 46.7783 170.767 45.7907 170.767 45.7907C170.628 45.3998 170.655 45.3819 170.655 45.3819C170.566 44.9015 170.832 44.7851 170.832 44.7851C171.127 44.612 171.337 45.0656 171.337 45.0656C171.553 45.5132 171.713 45.9863 171.812 46.474C172.028 47.3691 171.358 47.3035 171.358 47.3035C171.075 47.4308 170.819 47.6121 170.604 47.8376C170.088 48.227 169.474 48.4627 168.832 48.5179C167.807 48.5537 167.887 47.6407 167.887 47.6407C167.887 46.656 169.854 43.696 169.854 43.696L169.869 43.687ZM165.734 44.985C166.207 45.3192 166.998 46.0562 166.865 46.8261C166.865 46.8261 166.638 48.5597 163.797 48.5C163.797 48.5 163.501 48.5 163.481 48.2912C163.481 48.1479 163.543 48.0345 163.776 47.9391C163.776 47.9391 165.625 47.3423 164.414 45.0924L163.315 45.9548C163.315 45.9548 162.869 46.4531 162.902 45.7429C162.918 45.5461 162.988 45.3578 163.106 45.1998C163.106 45.1998 164.136 44.5852 164.479 43.6273C164.65 42.9918 165.569 42.4576 165.66 42.9918C165.699 43.2335 165.427 43.3797 165.291 43.5527C164.996 43.9406 165.38 44.7463 165.728 44.985H165.734ZM147.423 48.4493C147.419 48.4246 147.406 48.4023 147.387 48.3867C147.31 48.3329 146.935 48.506 146.563 48.7328L146.401 48.8283C146.289 48.8936 146.181 48.9664 146.079 49.0461C146.079 49.0461 145.839 49.2371 145.866 48.8044V48.7865C145.866 48.691 145.89 48.5687 145.896 48.4374C145.896 48.4374 146.223 47.1095 146.365 46.7395C146.365 46.7395 146.442 46.3874 146.566 45.9906C146.566 45.9906 147.124 45.3938 146.096 45.2118C146.096 45.2118 145.606 43.9884 145.077 45.913C145.045 45.7789 144.985 45.6536 144.899 45.5458C144.814 45.4381 144.707 45.3505 144.584 45.2894C144.508 45.251 144.424 45.2286 144.339 45.2237C144.287 45.228 144.235 45.228 144.183 45.2237C144.183 45.2237 143.686 45.0507 143.161 45.719C142.599 46.3427 140.96 48.327 141.335 49.989C141.335 49.989 141.536 50.8484 142.292 50.8454C142.948 50.8281 143.576 50.5753 144.064 50.1322C144.231 49.9762 144.387 49.8087 144.531 49.6309C144.542 49.7406 144.561 49.8492 144.587 49.9562C144.587 49.9771 144.587 49.998 144.602 50.0188C144.628 50.1481 144.692 50.2666 144.785 50.359C144.866 50.4265 144.962 50.4747 145.064 50.5C145.166 50.5253 145.273 50.5271 145.376 50.5052C145.407 50.4997 145.437 50.4918 145.467 50.4813C145.467 50.4813 146.525 50.2217 146.501 49.7682C146.501 49.5444 146.569 49.4996 146.569 49.4996C146.588 49.4876 146.602 49.4698 146.61 49.4489C146.618 49.4279 146.619 49.4049 146.613 49.3833C146.613 49.3833 147.458 48.8104 147.428 48.4523L147.423 48.4493ZM144.383 49.0819C144.292 49.2623 144.156 49.4155 143.988 49.5265C143.988 49.5265 142.83 50.2456 142.868 49.2281C142.9 48.8587 142.977 48.4948 143.099 48.145C143.419 47.3447 143.88 46.6097 144.46 45.9757C144.534 45.8981 144.602 45.8921 144.643 45.9488C144.728 46.1069 144.802 46.2703 144.865 46.4382L144.942 46.5575C144.765 47.2906 144.632 48.034 144.546 48.7835C144.505 48.8897 144.45 48.9901 144.383 49.0819ZM136.306 43.5259C136.527 43.9347 136.229 44.5881 136.229 44.5881C134.944 47.2408 133.34 53.51 133.018 54.7901C133.011 54.8085 133.005 54.8275 133.001 54.8468C132.971 54.9602 132.956 55.0228 132.956 55.0228C132.936 55.1183 132.912 55.2019 132.888 55.2824C132.846 55.5216 132.827 55.7645 132.832 56.0075C132.832 56.3507 132.832 56.6968 132.726 56.7416C132.431 56.8758 132.289 56.485 132.209 56.0612C131.995 55.9736 131.815 55.8201 131.692 55.6226C130.653 54.9184 131.429 52.958 131.429 52.958C132.138 50.1233 135.644 44.1376 135.644 44.1376C136.055 43.4692 136.235 43.3886 136.303 43.5408L136.306 43.5259ZM141.622 53.5577C142.177 54.3395 142.605 54.8945 142.487 54.999C142.109 55.3272 140.42 53.9844 140.42 53.9844C138.402 52.2592 136.837 50.0577 135.863 47.575C135.852 47.539 135.85 47.5009 135.857 47.464C135.865 47.4271 135.881 47.3925 135.904 47.3632C136.004 47.2498 136.167 47.1871 136.595 47.1394C136.368 47.029 136.3 46.9991 136.317 46.9245C136.359 46.7992 136.775 46.8022 136.775 46.8022C137.103 46.8022 137.339 46.7694 137.339 46.7694C137.821 46.7157 138.063 46.6709 138.063 46.6709C139.085 46.5068 139.487 46.0562 139.487 46.0562C140.497 45.0238 138.872 43.9854 138.872 43.9854C134.761 41.5983 131.444 42.7292 131.444 42.7292C131.278 42.7886 131.097 42.7886 130.93 42.7292C130.499 42.5859 131.264 41.9683 131.264 41.9683C133.308 40.2585 134.377 40.7747 134.377 40.7747C138.344 41.0403 140.086 43.135 140.086 43.135C141.468 44.6269 141.111 45.7877 140.925 46.1189C140.249 47.3691 138.648 47.399 138.648 47.399C138.397 47.399 138.178 47.4199 137.986 47.4229C138.122 47.6041 138.23 47.8054 138.305 48.0196C138.6 48.9924 141.631 53.5756 141.631 53.5756L141.622 53.5577ZM178.75 47.8257C178.75 47.8257 180.921 49.6369 178.227 49.5414C178.227 49.5414 177.705 49.5832 177.386 48.4941C177.386 48.4941 176.458 46.3576 176.526 45.549C176.168 45.978 175.869 46.4549 175.64 46.9663C175.513 47.2892 175.351 47.5973 175.159 47.8854C175.048 48.0563 174.92 48.2152 174.778 48.3598C173.596 49.4758 173.472 48.0614 173.472 48.0614C173.23 46.847 173.844 44.9015 173.844 44.9015C174.293 43.5557 174.949 44.1107 174.949 44.1107C175.862 44.3524 175.492 45.2386 175.492 45.2386C175.297 45.916 175.123 45.7698 175.123 45.7698C175.029 45.8552 174.953 45.9601 174.902 46.0775C174.851 46.1949 174.826 46.3219 174.828 46.4501C174.828 46.4501 174.745 47.202 175.076 46.6232C175.33 46.1099 175.811 45.2536 176.166 44.979C176.166 44.979 176.686 44.4211 176.99 44.8806C176.99 44.8806 178.298 47.5422 178.762 47.8346L178.75 47.8257Z" fill="#242E4A"></path><path d="M172.784 50.1651C173.351 50.1979 173.989 50.2068 174.872 50.2934C175.33 50.3381 176.054 50.3381 176.139 50.6395C176.225 50.9409 175.888 51.1975 175.271 51.3198C175.012 51.3884 174.744 51.4225 174.476 51.4213C174.143 51.4213 173.428 51.4362 173.41 51.0483C173.392 50.8066 172.926 50.8096 172.616 50.7947C171.99 50.7708 172.055 50.5918 172.19 50.3769C172.273 50.2456 172.441 50.1591 172.781 50.1651H172.784Z" fill="#242E4A"></path><path d="M68.8628 19.78C68.8628 13.1289 63.5466 11.9085 58.0265 11.9085C55.3831 11.9085 52.6955 12.3591 50.6428 13.5347C48.5901 14.7104 47.2079 16.6857 47.0307 19.6696C45.7489 15.2803 42.6684 11.9115 37.3403 11.9115C36.0746 11.8775 34.8213 12.1711 33.6995 12.7644C32.5778 13.3577 31.6248 14.231 30.9312 15.3012H30.8426V12.5888H23.5859V49.1893H31.2V33.5358H31.2886C32.8569 35.6603 35.0514 36.7584 37.9192 36.7584C41.9507 36.7584 44.7122 34.5831 46.2628 31.4978C47.0484 35.0785 50.1673 36.7584 53.995 36.7584C56.7713 36.7584 59.6804 35.9438 61.6534 33.861C61.7103 34.6169 61.8601 35.3626 62.0994 36.0811H69.7489C68.8628 34.2251 68.8628 32.0528 68.8628 30.0625V19.78ZM35.5446 30.8652C32.0949 30.8652 30.9312 28.1946 30.9312 24.0798C30.9312 19.2369 33.5274 17.7898 35.5889 17.7898C38.947 17.7898 40.1107 21.0929 40.1107 24.0798C40.1107 27.2905 38.947 30.8652 35.5446 30.8652ZM56.8599 31.9842C55.1587 31.9842 53.6819 31.2143 53.6819 29.3166C53.6819 27.4188 55.1144 26.7355 56.8156 26.3327C58.4725 25.8791 60.4424 25.7359 61.5175 25.0645C61.6977 29.9133 60.4868 31.9842 56.8599 31.9842ZM59.5918 21.4868C55.77 22.2716 50.4006 22.185 47.7218 24.969C47.7218 24.9243 47.7218 24.8795 47.7218 24.8347C47.7317 23.1382 47.5101 21.4483 47.0632 19.8128H54.125C54.4853 17.8226 55.8291 16.8707 57.932 16.8707C59.5003 16.8707 61.6032 17.551 61.6032 19.3175C61.6061 20.7766 60.8884 21.2421 59.5918 21.4987V21.4868Z" fill="#242E4A"></path><path d="M102.45 21.454L110.959 12.5888H102.137L95.1961 20.4156V3.76245H87.582V12.2904C87.0362 12.1829 86.4811 12.1309 85.9251 12.1353C82.6556 12.1353 80.0595 13.7197 78.9372 16.7066H78.8485V12.5888H71.4648V36.0721H79.0789V24.4349C79.0789 21.4928 81.0489 18.8699 84.8116 18.8699C85.7514 18.8825 86.6853 19.023 87.5879 19.2877V36.0631H95.202V28.5586L97.169 26.6131L102.857 36.0691H112.04L102.45 21.454Z" fill="#242E4A"></path><path d="M120.596 12.5888H128.21V36.0721H120.596V12.5888ZM128.21 9.64968H120.596V3.76245H128.21V9.64968Z" fill="#242E4A"></path><path d="M130.729 12.5888H138.113V15.7965H138.202C139.59 13.4094 142.726 11.9174 145.503 11.9174C153.25 11.9174 153.876 17.6167 153.876 21.0094V36.0781H146.268V24.7124C146.268 21.4987 146.628 18.2433 142.464 18.2433C139.596 18.2433 138.329 20.6841 138.329 23.2652V36.0691H130.729V12.5888Z" fill="#242E4A"></path><path d="M156.422 12.5888H163.805V15.7965H163.894C165.282 13.4094 168.419 11.9174 171.195 11.9174C178.942 11.9174 179.568 17.6167 179.568 21.0094V36.0781H171.963V24.7124C171.963 21.4987 172.32 18.2433 168.156 18.2433C165.288 18.2433 164.021 20.6841 164.021 23.2652V36.0691H156.422V12.5888Z" fill="#242E4A"></path><path d="M112.004 41.4103H33.2261V49.1923H112.004V41.4103Z" fill="#242E4A"></path><path d="M121.358 43.6631C121.661 43.4347 122.029 43.3121 122.407 43.314C123.352 43.314 124.046 44.1227 124.046 45.2237C124.046 46.5217 123.284 47.2975 122.017 47.2975C121.532 47.2977 121.052 47.1961 120.608 46.9991V41.4013H121.358V43.6631ZM121.358 46.462C121.606 46.5349 121.862 46.5751 122.12 46.5814C122.279 46.5822 122.436 46.5499 122.582 46.4864C122.728 46.423 122.859 46.3299 122.968 46.2128C123.077 46.0957 123.16 45.9573 123.214 45.8061C123.267 45.6549 123.289 45.4942 123.278 45.3341C123.278 44.5255 122.855 43.9944 122.22 43.9944C122.058 43.9973 121.897 44.0337 121.749 44.1015C121.601 44.1692 121.468 44.2668 121.358 44.3882V46.462Z" fill="#242E4A"></path><path d="M125.413 49.1834H124.577L125.871 46.4024L124.394 43.3886H125.248L126.27 45.549L127.25 43.3886H128.092L125.413 49.1834Z" fill="#242E4A"></path></svg>