<svg version="1.1" id="Layer_1" xmlns="http://www.w3.org/2000/svg" xmlns:xlink="http://www.w3.org/1999/xlink" x="0px" y="0px"
	 width="100%" viewBox="0 0 3333 818" enable-background="new 0 0 3333 818" xml:space="preserve">
<path fill="#000000" opacity="1.000000" stroke="none" 
	d="
M3334.000000,785.000000 
	C3334.000000,796.323059 3334.000000,807.646118 3334.000000,819.000000 
	C3197.634033,819.000000 3061.267822,819.000000 2924.158203,818.664062 
	C2923.753662,817.965576 2924.042480,817.356873 2924.439453,817.276001 
	C2942.215088,813.649780 2950.361572,802.015930 2950.075684,783.110535 
	C2949.748291,761.448975 2950.000000,739.778687 2950.000000,718.112183 
	C2950.000000,716.506226 2950.000000,714.900208 2950.000000,713.275269 
	C2944.704590,713.275269 2939.958496,713.275269 2934.768555,713.275269 
	C2934.768555,716.236877 2934.768555,718.923279 2934.768555,722.454163 
	C2929.415527,715.983215 2923.179443,713.010986 2915.972656,711.349609 
	C2905.300537,708.889465 2889.624512,715.444763 2883.973145,725.090820 
	C2876.176270,738.399353 2875.967529,752.618469 2880.162842,766.744995 
	C2886.187256,787.031860 2910.050537,794.664917 2925.931152,784.965698 
	C2929.032471,783.071716 2931.813965,780.654297 2935.000000,778.287292 
	C2935.000000,780.304810 2934.888184,781.964294 2935.017578,783.604736 
	C2936.185547,798.414124 2925.576416,805.602844 2912.700928,806.081421 
	C2902.954590,806.443604 2895.200684,802.523926 2888.348877,796.136230 
	C2886.571533,798.641602 2884.973145,800.878906 2883.391602,803.127869 
	C2881.618652,805.648987 2881.389648,808.176270 2884.360596,809.778564 
	C2889.151855,812.362305 2894.141846,814.574585 2898.999512,817.038940 
	C2899.793701,817.441833 2900.339600,818.333923 2901.000000,819.000000 
	C1934.333374,819.000000 967.666687,819.000000 1.000000,819.000000 
	C1.000000,774.223389 1.000000,729.562561 1.420843,684.427673 
	C2.226473,683.171570 2.947592,682.388733 2.945406,681.607788 
	C2.914424,670.540283 8.512124,661.947876 15.426323,654.168884 
	C27.363894,640.738220 42.396961,631.361572 58.079536,623.013855 
	C85.901222,608.204529 115.279579,597.080811 145.055344,586.993591 
	C163.520630,580.737976 182.114960,574.855042 200.718216,569.017822 
	C213.112885,565.128662 225.647476,561.687805 238.078873,557.912659 
	C250.765411,554.060120 263.402344,550.044250 276.291443,546.075806 
	C276.521881,546.051697 276.974487,546.151428 277.218445,546.430969 
	C278.280884,546.838257 279.128540,546.869690 279.913605,547.107727 
	C316.652618,558.246643 353.458191,569.173889 390.087463,580.663025 
	C406.445496,585.793884 422.539673,591.814880 438.591827,597.861328 
	C467.693695,608.823364 496.404449,620.668030 521.731995,639.227783 
	C536.881470,650.329224 549.592224,663.161560 552.000000,683.218384 
	C552.000000,681.413757 552.000000,679.609070 552.000000,677.804443 
	C552.000000,634.148621 551.858398,590.492004 552.119141,546.837769 
	C552.171387,538.090088 549.497437,530.559082 544.953613,523.528625 
	C536.201599,509.987061 523.530090,500.689514 509.978790,492.570343 
	C500.785461,487.062225 491.243073,482.136719 482.041077,476.639709 
	C502.667633,466.536987 522.579895,455.906158 538.344299,439.107605 
	C547.285889,429.579468 552.701477,418.518219 551.872864,404.568207 
	C551.927856,361.091797 551.895569,318.079193 551.911194,274.637939 
	C550.267639,268.597015 549.485779,262.482178 546.714722,257.466309 
	C538.290222,242.217117 524.496643,232.339890 509.968109,223.569885 
	C500.797119,218.033966 491.240662,213.136612 482.039459,207.642792 
	C487.207397,204.876999 492.308044,202.627747 497.156982,199.926605 
	C511.632446,191.862930 525.791016,183.256348 537.302307,171.116302 
	C546.712158,161.192444 552.328796,149.902649 552.174866,135.467743 
	C551.697021,90.649628 552.000000,45.823200 552.000000,1.000000 
	C1479.228516,1.000000 2406.457031,1.000000 3334.000000,1.000000 
	C3334.000000,258.699310 3334.000000,516.398743 3333.693359,774.834595 
	C3330.778564,772.090515 3327.842773,769.558167 3322.953857,769.920898 
	C3317.598389,770.318176 3315.321533,771.943176 3313.585449,777.865662 
	C3312.510742,781.531799 3314.765381,786.794128 3318.697754,788.841248 
	C3322.617676,790.881714 3326.489746,790.693787 3330.005615,787.576721 
	C3331.177490,786.537720 3332.659668,785.848877 3334.000000,785.000000 
M1573.985352,435.522736 
	C1576.953857,432.221222 1580.037842,429.015564 1582.871460,425.602142 
	C1597.950562,407.438080 1604.911987,386.948608 1602.145874,363.061157 
	C1599.999390,344.522827 1592.015747,329.089142 1579.332764,316.070740 
	C1572.159912,308.708252 1563.741699,302.559082 1556.631470,296.500000 
	C1577.277222,296.500000 1599.047241,296.500000 1620.691406,296.500000 
	C1620.691406,291.647125 1620.691406,286.907593 1620.691406,282.000000 
	C1590.069824,282.000000 1559.756226,282.022827 1529.442871,281.956238 
	C1527.044556,281.950958 1524.497559,281.734985 1522.274170,280.921539 
	C1507.293457,275.440887 1491.734497,272.297760 1475.957642,271.209076 
	C1461.881958,270.237793 1447.768799,271.023865 1433.721313,273.849091 
	C1403.387817,279.949768 1376.748901,292.569550 1355.229736,315.237823 
	C1335.566528,335.951019 1325.552002,359.890625 1329.998047,388.828369 
	C1333.562378,412.027679 1346.269653,429.626556 1364.097778,443.956543 
	C1369.533325,448.325378 1375.437134,452.111420 1381.239624,456.245026 
	C1369.595093,462.861298 1358.766235,469.926392 1349.777954,479.627289 
	C1339.889282,490.299896 1333.509277,502.791077 1332.186523,517.059937 
	C1329.913818,541.578918 1337.676758,562.232605 1358.900635,576.677612 
	C1354.232910,578.505798 1349.665161,580.049011 1345.306152,582.047791 
	C1331.589600,588.337463 1318.937866,596.173035 1309.898682,608.648499 
	C1294.719116,629.599182 1296.900635,655.544373 1315.742432,673.351318 
	C1326.702026,683.709045 1339.792725,690.039795 1353.707397,694.974670 
	C1374.963257,702.513123 1397.163208,705.709900 1419.475952,706.769592 
	C1443.890381,707.929138 1468.522339,708.192627 1492.665771,703.746887 
	C1508.715210,700.791565 1524.515625,696.114746 1540.127563,691.246521 
	C1559.421143,685.230347 1576.743530,675.053101 1591.692505,661.569092 
	C1608.519043,646.391357 1621.040283,628.470703 1624.170410,604.994202 
	C1626.591797,586.833618 1623.767578,569.999084 1613.991577,554.633728 
	C1604.736450,540.087097 1591.438965,530.156128 1575.718384,523.247986 
	C1555.848267,514.516418 1534.879517,511.163361 1513.422607,509.998962 
	C1501.251953,509.338531 1489.085815,508.579712 1476.910400,508.023376 
	C1460.411133,507.269501 1443.880981,507.014374 1427.410645,505.873444 
	C1417.063721,505.156708 1406.652100,503.877991 1396.547241,501.612701 
	C1387.521240,499.589294 1381.991455,494.417206 1382.988892,483.290771 
	C1383.687622,475.496460 1388.136963,470.103729 1394.325928,466.058258 
	C1396.120117,464.885498 1399.104736,463.884430 1400.867676,464.562378 
	C1424.949341,473.823120 1449.679077,477.173553 1475.463135,475.207611 
	C1490.311279,474.075531 1504.661621,471.298218 1518.747314,466.927460 
	C1539.177734,460.587982 1557.484009,450.311218 1573.985352,435.522736 
M974.965759,186.622894 
	C986.802368,209.962234 993.151306,234.961426 997.492798,261.031586 
	C1001.458923,261.423279 1005.612305,261.833466 1009.437256,262.211212 
	C1019.456909,225.164108 1029.291382,188.801682 1039.134277,152.408249 
	C1019.885864,143.997818 1000.623840,137.267059 980.500427,132.577011 
	C958.460754,127.440315 936.154114,125.231758 913.725037,124.208122 
	C902.280396,123.685791 890.712341,125.054085 879.243958,126.065643 
	C864.075500,127.403564 849.560730,131.375946 835.283997,136.832245 
	C807.111511,147.599304 784.218506,164.907532 766.936157,189.589828 
	C753.867676,208.253967 746.712463,229.198349 745.230225,251.759949 
	C744.546631,262.164520 745.634155,272.833435 747.148926,283.202789 
	C750.036377,302.969543 758.766602,320.330322 771.888855,335.280273 
	C789.101379,354.890167 810.290649,369.364258 833.446716,381.020416 
	C858.859314,393.812469 884.535278,406.086426 909.844727,419.076721 
	C928.049927,428.420715 945.453613,438.990906 958.780457,455.178925 
	C970.800659,469.779846 975.506226,486.552582 972.773682,504.822418 
	C969.820190,524.569458 958.054260,539.015747 940.385132,547.710205 
	C920.693176,557.400085 899.761475,559.973083 877.873474,556.163025 
	C858.719482,552.828918 842.557373,544.310120 828.639099,531.107239 
	C816.473877,519.567322 807.399658,505.702881 800.075256,490.802521 
	C788.424194,467.100433 780.762451,441.990021 775.539978,416.253326 
	C771.691040,415.942810 768.014954,415.646240 764.148193,415.334320 
	C761.757446,427.186066 759.462646,439.050903 756.959778,450.871704 
	C751.018005,478.934235 745.228088,507.033936 738.749268,534.973083 
	C737.564758,540.081116 739.480957,541.604126 743.014587,542.959106 
	C752.878418,546.741516 762.669556,550.804932 772.750061,553.911560 
	C793.455627,560.292542 814.597900,564.851013 836.198425,566.980896 
	C850.854126,568.426086 865.519287,570.573364 880.199646,570.744202 
	C894.766418,570.913696 909.417603,569.528320 923.922668,567.870300 
	C942.569458,565.738892 960.334961,560.127380 977.294128,551.990845 
	C1002.459290,539.917236 1023.587646,523.063965 1038.882324,499.519623 
	C1049.265015,483.536652 1056.070312,466.172729 1058.072876,446.989136 
	C1059.927124,429.226624 1059.421021,411.792694 1054.217163,394.543427 
	C1045.226685,364.741577 1025.035767,343.920502 1000.118469,327.103088 
	C980.344910,313.757263 958.572205,304.012451 936.809692,294.442657 
	C912.430298,283.722168 887.546204,274.138550 864.638489,260.283783 
	C853.313416,253.434280 843.118469,245.277176 835.073425,234.829468 
	C825.390686,222.254959 821.059204,208.008011 822.860962,191.879257 
	C823.721497,184.176727 825.497131,176.814697 829.404297,170.371704 
	C837.618103,156.827225 849.740723,147.827698 864.826904,143.014984 
	C878.678833,138.595978 892.664551,136.041260 907.448059,137.792755 
	C916.723022,138.891617 925.653137,140.683517 934.006409,144.587738 
	C952.624268,153.289551 965.141602,168.153641 974.965759,186.622894 
M2188.000000,501.498413 
	C2188.000000,450.675812 2188.282715,399.850342 2187.771729,349.032898 
	C2187.664062,338.308258 2186.040039,327.152618 2182.680420,317.001373 
	C2176.036865,296.929688 2162.554688,282.857819 2141.892090,275.837921 
	C2125.126953,270.142059 2108.388428,269.912567 2091.261963,272.974548 
	C2067.068359,277.300049 2046.658447,289.172485 2028.032959,304.545380 
	C2022.267944,309.303497 2016.933716,314.583435 2011.000000,319.990906 
	C2011.000000,306.001038 2011.000122,292.547913 2011.000000,279.094788 
	C2010.999878,272.271088 2008.737305,270.553345 2002.026855,272.455231 
	C1985.054688,277.265472 1968.115723,282.193604 1951.129517,286.953522 
	C1926.409424,293.880676 1901.740601,301.019897 1876.864868,307.341034 
	C1870.752930,308.894135 1872.075439,311.994263 1872.128540,315.999969 
	C1873.506836,315.999969 1874.490601,316.039459 1875.470581,315.994171 
	C1897.900635,314.958405 1910.859253,331.544861 1910.932251,351.653259 
	C1911.129761,406.140381 1911.201660,460.630402 1910.742920,515.114380 
	C1910.686157,521.861511 1908.167114,529.140137 1904.939575,535.184937 
	C1899.463135,545.441528 1889.238647,549.464661 1878.257812,551.314880 
	C1878.257812,553.589417 1878.257812,555.665588 1878.257812,557.775024 
	C1931.937012,557.775024 1985.358154,557.775024 2038.764404,557.775024 
	C2039.143066,551.796326 2038.814087,552.635071 2034.058960,550.770203 
	C2029.003296,548.787476 2023.729980,545.818481 2020.193359,541.825928 
	C2012.934570,533.631226 2012.263428,522.667358 2012.193481,512.487915 
	C2011.794312,454.503601 2011.984863,396.515106 2012.089722,338.528198 
	C2012.092285,337.119019 2013.114502,335.373657 2014.198486,334.359467 
	C2021.098755,327.903473 2028.916382,322.876770 2037.841431,319.592834 
	C2052.134521,314.333801 2067.714844,315.339264 2077.388184,326.899750 
	C2084.367432,335.240631 2086.807129,345.406738 2086.865723,355.774597 
	C2087.158447,407.927979 2087.066406,460.084106 2086.910889,512.238708 
	C2086.892578,518.391663 2086.300049,524.697998 2084.844238,530.657227 
	C2082.333496,540.933838 2076.527588,549.025574 2065.362305,550.801086 
	C2060.468994,551.579285 2059.177490,553.246826 2060.293457,557.649658 
	C2114.205322,557.649658 2168.070557,557.649658 2221.833496,557.649658 
	C2221.833496,555.329224 2221.833496,553.360535 2221.833496,551.392151 
	C2219.324463,550.906738 2216.942871,550.565796 2214.624268,549.976807 
	C2203.788330,547.223938 2196.117676,541.094482 2191.637695,530.444214 
	C2187.790527,521.298767 2188.033936,511.959076 2188.000000,501.498413 
M1109.000000,414.504761 
	C1119.004883,436.390411 1129.030396,458.266602 1139.009399,480.164124 
	C1151.047485,506.580109 1162.932861,533.066650 1175.141968,559.403137 
	C1178.153076,565.898315 1180.132202,571.108826 1176.393188,578.838257 
	C1166.426025,599.443115 1158.962402,621.267090 1146.939575,640.896912 
	C1140.777344,650.958069 1133.515503,660.331543 1123.016113,666.250366 
	C1119.680786,668.130676 1115.369751,668.810486 1111.453491,669.005981 
	C1105.570557,669.299561 1102.627441,664.712891 1100.055298,660.290710 
	C1093.372437,648.801086 1089.933105,635.794006 1081.713501,624.867920 
	C1069.672607,608.862488 1042.745483,605.900330 1026.706909,615.793884 
	C1011.690857,625.056702 1004.737854,638.475647 1004.921936,656.111694 
	C1005.124390,675.507507 1014.200684,689.145569 1030.959961,697.940186 
	C1042.471680,703.981140 1054.968140,705.143311 1067.858276,705.161682 
	C1081.472046,705.181091 1094.359619,702.479370 1106.461792,696.748901 
	C1133.044434,684.161926 1152.458618,663.652832 1165.767700,637.977661 
	C1179.425781,611.629150 1191.356812,584.382019 1203.918091,557.469482 
	C1214.368530,535.079346 1224.634521,512.603088 1234.986572,490.167023 
	C1243.322388,472.100922 1251.642944,454.027832 1260.009766,435.976074 
	C1268.985718,416.609772 1277.721558,397.125031 1287.084473,377.946930 
	C1298.027466,355.532013 1309.106812,333.150238 1323.999878,312.956940 
	C1331.775391,302.414093 1340.998535,293.596771 1353.840576,289.757202 
	C1358.595459,288.335571 1358.277954,285.668701 1357.777954,282.280151 
	C1318.608398,282.280151 1279.846313,282.280151 1241.249878,282.280151 
	C1241.249878,284.346588 1241.249878,286.129974 1241.249878,287.852570 
	C1244.026733,288.453491 1246.617188,288.800537 1249.070435,289.579224 
	C1266.547119,295.126648 1274.161011,308.431549 1275.861328,325.687012 
	C1277.382080,341.119385 1275.145630,356.384552 1269.942383,371.007721 
	C1265.651245,383.068115 1260.963135,395.009186 1255.913086,406.772247 
	C1249.422729,421.890503 1242.394653,436.777924 1235.596436,451.768921 
	C1231.038574,441.856781 1226.433105,432.146637 1222.084839,422.322601 
	C1212.420044,400.486847 1202.836182,378.614899 1193.312500,356.717163 
	C1187.016846,342.241119 1181.342651,327.636963 1182.943237,311.287964 
	C1183.821655,302.315002 1187.573486,295.308868 1195.651489,291.190002 
	C1199.129517,289.416626 1203.109619,288.628052 1207.041748,287.332733 
	C1206.952148,285.610504 1206.862061,283.880951 1206.778809,282.282349 
	C1147.936768,282.282349 1089.512573,282.282349 1031.096924,282.282349 
	C1031.096924,284.553192 1031.096924,286.541229 1031.096924,288.215027 
	C1035.018555,290.548553 1038.999512,292.414612 1042.368408,295.059906 
	C1045.912109,297.842377 1048.991577,301.258667 1052.063843,304.591583 
	C1066.076782,319.793365 1074.103760,338.591156 1082.889282,356.857086 
	C1091.926147,375.645721 1100.302246,394.752167 1109.000000,414.504761 
M1866.550781,334.037872 
	C1859.000366,320.649872 1850.100708,308.509979 1838.153442,298.452637 
	C1817.940796,281.437531 1794.442139,273.216461 1768.636108,271.137573 
	C1754.227295,269.976837 1739.842773,271.370117 1725.709351,274.962067 
	C1702.064697,280.971313 1681.424194,292.420471 1663.612915,308.948364 
	C1647.694702,323.719574 1635.513794,341.095520 1626.864624,361.138519 
	C1619.677124,377.793793 1615.412109,395.101776 1614.162354,413.007874 
	C1612.903198,431.047760 1614.088501,449.115265 1619.069458,466.640198 
	C1624.807251,486.828278 1633.882080,505.468170 1647.885376,521.227112 
	C1661.971924,537.079773 1678.307129,549.977417 1698.270142,558.166687 
	C1713.582275,564.447998 1729.369995,567.947205 1745.726807,568.903320 
	C1757.535400,569.593567 1769.265015,568.533936 1780.950073,566.104065 
	C1803.144287,561.488892 1822.406006,551.403931 1839.117188,536.323242 
	C1848.753418,527.627136 1856.758545,517.483521 1863.187134,506.228821 
	C1870.958130,492.623993 1877.132202,478.319244 1880.679077,462.974304 
	C1875.659058,460.377686 1872.849731,461.075134 1869.785034,466.202576 
	C1861.274048,480.441772 1849.194824,491.369476 1834.096558,498.267578 
	C1817.274780,505.953094 1799.659668,508.926056 1781.121826,505.075134 
	C1762.472290,501.201050 1747.729858,491.521210 1735.958618,476.794464 
	C1726.561035,465.037384 1720.626465,451.640320 1716.682373,437.257874 
	C1713.197144,424.549164 1710.755493,411.689087 1711.019287,397.864502 
	C1768.218262,397.864502 1825.067261,397.864502 1882.162109,397.864502 
	C1881.734009,375.292480 1876.310547,354.522949 1866.550781,334.037872 
M1814.047485,692.265747 
	C1813.216309,689.872986 1812.385132,687.480225 1811.523560,685.000000 
	C1805.848877,685.000000 1800.351807,685.216492 1794.882080,684.921936 
	C1791.388794,684.733826 1790.106934,686.299255 1788.940186,689.308289 
	C1780.384399,711.371826 1771.643921,733.363892 1762.946167,755.372253 
	C1758.687378,766.148682 1754.395020,776.911804 1749.990967,788.000000 
	C1754.974854,788.000000 1759.468506,787.768799 1763.925293,788.075012 
	C1767.332642,788.309204 1768.949219,786.973633 1770.033325,783.875732 
	C1772.030884,778.167725 1774.374390,772.580688 1776.480469,767.182129 
	C1793.192627,767.182129 1809.469849,767.182129 1825.794678,767.182129 
	C1828.229736,773.320679 1830.507324,779.363403 1833.076416,785.279419 
	C1833.579346,786.437561 1835.173706,787.812683 1836.331543,787.876526 
	C1841.450317,788.158691 1846.593384,787.998535 1851.869873,787.998535 
	C1851.775024,787.186584 1851.819458,786.678772 1851.651367,786.255432 
	C1846.780029,773.989868 1841.887939,761.732605 1836.998169,749.474426 
	C1829.482910,730.635071 1821.966675,711.796021 1814.047485,692.265747 
M1903.000000,734.500000 
	C1903.000000,752.260498 1903.000000,770.020996 1903.000000,787.701843 
	C1908.379028,787.701843 1913.134766,787.701843 1918.323486,787.701843 
	C1918.323486,785.056458 1918.323486,782.711609 1918.323486,779.976807 
	C1936.195312,798.152039 1966.769409,790.894043 1973.070557,766.114929 
	C1975.375000,757.052734 1975.944092,747.960327 1973.930786,738.900208 
	C1970.211060,722.161621 1959.568359,711.467896 1941.546387,711.007690 
	C1932.462891,710.775696 1925.078003,714.811951 1917.906006,721.312378 
	C1917.906006,708.718994 1917.906006,697.007874 1917.906006,685.290222 
	C1912.726074,685.290222 1907.993530,685.290222 1903.000000,685.290222 
	C1903.000000,701.552673 1903.000000,717.526306 1903.000000,734.500000 
M2045.987793,717.470215 
	C2040.806763,715.379517 2035.787354,712.257263 2030.410767,711.414978 
	C2019.549072,709.713257 2009.349976,712.298401 2000.803589,719.711487 
	C1993.243164,726.269287 1988.983765,734.328186 1987.637939,744.498596 
	C1985.739990,758.841736 1989.206055,771.215942 1999.675659,780.912964 
	C2008.231567,788.837524 2019.179688,790.818970 2030.665894,790.016907 
	C2040.732056,789.314087 2049.493652,785.741516 2056.952393,778.639832 
	C2054.510986,775.321045 2052.152100,772.114624 2049.799805,768.917114 
	C2041.166870,775.097168 2032.723877,779.353149 2021.928833,777.144043 
	C2012.837524,775.283691 2003.834839,766.331421 2003.384155,755.895630 
	C2022.826416,755.895630 2042.255737,755.895630 2062.274170,755.895630 
	C2061.818359,751.589233 2061.588623,747.695496 2060.965576,743.865784 
	C2059.282715,733.522766 2055.723633,724.158691 2045.987793,717.470215 
M2527.464355,756.000000 
	C2530.569336,756.000000 2533.674316,756.000000 2537.454590,756.000000 
	C2536.930664,750.158386 2536.922363,744.864746 2535.903076,739.773682 
	C2533.698730,728.767883 2527.743164,720.346741 2517.644775,714.914978 
	C2503.560059,707.339355 2482.373291,711.351440 2471.828857,724.351807 
	C2460.998779,737.704529 2460.206299,758.637024 2468.354980,772.479797 
	C2473.832520,781.785034 2482.280518,787.431885 2493.453369,789.264954 
	C2506.888428,791.469299 2518.996582,789.104675 2530.027832,781.307312 
	C2531.034180,780.596191 2531.972656,778.134766 2531.501709,777.285522 
	C2529.810791,774.238037 2527.500488,771.534119 2525.395264,768.660217 
	C2514.672119,778.298279 2500.508057,780.607239 2490.553955,774.160767 
	C2484.790771,770.428406 2478.276855,763.109070 2479.593994,756.000000 
	C2495.190918,756.000000 2510.833252,756.000000 2527.464355,756.000000 
M3119.000000,779.453369 
	C3119.000000,765.967590 3118.977295,752.481689 3119.033936,738.996155 
	C3119.039795,737.589294 3119.063721,735.821716 3119.850830,734.840698 
	C3123.477539,730.321472 3127.822510,726.645874 3133.620361,725.156006 
	C3142.889648,722.773987 3150.478760,725.523865 3153.101807,732.748596 
	C3154.346191,736.175171 3154.861572,740.025452 3154.917969,743.695923 
	C3155.124512,757.178528 3154.991455,770.666260 3155.014160,784.152039 
	C3155.016357,785.408203 3155.217285,786.664001 3155.299805,787.617981 
	C3160.133301,787.617981 3164.531982,787.617981 3169.000000,787.617981 
	C3169.000000,769.256104 3168.856201,751.274536 3169.043945,733.296570 
	C3169.204346,717.969238 3160.218018,711.694824 3147.104736,711.043335 
	C3136.420410,710.512390 3127.224609,714.411316 3118.827393,722.334534 
	C3118.827393,709.338867 3118.827393,697.289978 3118.827393,685.312927 
	C3113.671875,685.312927 3108.943115,685.312927 3104.296875,685.312927 
	C3104.296875,719.668030 3104.296875,753.709412 3104.296875,787.685425 
	C3109.330811,787.685425 3114.059570,787.685425 3119.000000,787.685425 
	C3119.000000,785.062256 3119.000000,782.749023 3119.000000,779.453369 
M2996.507324,756.000000 
	C3011.268311,756.000000 3026.029541,756.000000 3040.744629,756.000000 
	C3042.090820,734.183289 3032.166260,714.968323 3010.002197,711.450623 
	C2996.994141,709.386047 2982.951904,713.757202 2974.105713,725.804443 
	C2966.612793,736.008728 2964.799805,747.801880 2967.122070,760.066650 
	C2968.683838,768.315857 2972.579590,775.513611 2979.173584,781.029419 
	C2988.081299,788.480896 2998.465088,790.949707 3009.791260,789.974243 
	C3019.726318,789.118591 3028.944824,786.465088 3035.923340,778.489868 
	C3033.672363,775.301025 3031.460449,772.167664 3029.249512,769.035889 
	C3006.379150,783.823303 2985.246826,777.995789 2982.519531,756.000000 
	C2986.866699,756.000000 2991.189453,756.000000 2996.507324,756.000000 
M3222.612061,711.000000 
	C3206.614502,711.835266 3192.184326,721.189880 3187.649902,738.744263 
	C3183.760254,753.802734 3186.067627,767.456299 3196.708984,779.182129 
	C3210.009033,793.837402 3237.939453,793.337463 3253.218018,781.155823 
	C3254.142334,780.418945 3255.063477,778.224060 3254.637939,777.499634 
	C3252.799805,774.370239 3250.459473,771.536072 3248.348633,768.657959 
	C3238.641113,777.015625 3228.364258,780.543396 3216.801270,775.814575 
	C3208.395752,772.377197 3202.941895,765.962769 3201.878174,755.965820 
	C3221.401367,755.965820 3240.488525,755.965820 3259.517090,755.965820 
	C3263.031006,731.127502 3247.402100,710.506958 3222.612061,711.000000 
M2195.127197,774.637390 
	C2188.333252,770.310608 2184.337646,764.256714 2183.585938,755.703247 
	C2203.102783,755.703247 2222.502930,755.703247 2241.878662,755.703247 
	C2242.409912,739.802734 2238.902588,729.648254 2230.699219,721.114807 
	C2225.357910,715.558716 2218.816162,713.359497 2211.490723,711.606934 
	C2200.479492,708.972656 2182.662354,715.658020 2175.604004,725.408630 
	C2168.250977,735.565918 2166.981445,746.556519 2168.270996,757.988831 
	C2168.931396,763.844604 2171.311768,770.160156 2174.761230,774.933716 
	C2189.201416,794.917847 2219.958740,794.224060 2235.834717,779.968079 
	C2236.442139,779.422729 2236.948242,777.822937 2236.607666,777.318726 
	C2234.637695,774.404541 2232.398926,771.671997 2230.256104,768.884094 
	C2219.670654,777.078247 2208.601807,780.952209 2195.127197,774.637390 
M2650.636719,740.000000 
	C2648.889160,740.330872 2647.147217,740.697571 2645.392822,740.986938 
	C2631.132324,743.339417 2623.523926,753.659790 2625.017822,768.838074 
	C2626.205078,780.897583 2637.628174,789.588623 2649.273682,790.064880 
	C2658.737061,790.451843 2667.229492,788.161316 2674.843018,782.044006 
	C2674.982910,784.292542 2675.091064,786.033020 2675.194824,787.699097 
	C2680.276611,787.699097 2685.020020,787.699097 2689.999023,787.699097 
	C2689.999023,769.763062 2690.407959,752.112488 2689.793701,734.497620 
	C2689.554688,727.650818 2687.027588,721.173462 2680.496826,716.737000 
	C2666.037109,706.914246 2641.983398,710.404907 2629.935547,722.108765 
	C2629.239258,722.785278 2628.869385,724.681458 2629.308350,725.485779 
	C2630.959473,728.511414 2633.009033,731.319824 2634.150146,733.055237 
	C2640.636719,729.925476 2646.263916,725.965210 2652.479980,724.496582 
	C2662.352295,722.164124 2676.537354,726.042908 2675.025391,741.606018 
	C2674.838135,743.533691 2675.000000,745.495300 2675.000000,748.098633 
	C2667.576416,743.160828 2660.110352,739.869263 2650.636719,740.000000 
M2807.062012,716.428406 
	C2803.037354,720.646423 2798.401367,724.440552 2795.119141,729.173340 
	C2788.882812,738.165283 2788.526855,748.751831 2790.188477,759.026917 
	C2791.730225,768.557556 2796.112305,776.909363 2804.345459,782.976746 
	C2812.295898,788.836060 2821.044678,790.520569 2830.595459,790.026794 
	C2843.999268,789.333679 2854.254639,783.273804 2860.627197,771.602112 
	C2865.377686,762.901367 2866.614258,753.387085 2865.093506,743.385071 
	C2863.303223,731.609863 2857.851562,722.274475 2847.633057,716.373474 
	C2834.577637,708.833984 2821.080566,709.076355 2807.062012,716.428406 
M2444.649658,697.891235 
	C2448.876465,697.098450 2453.103271,696.305603 2457.330078,695.512756 
	C2458.516602,694.676331 2459.044678,692.458557 2460.047852,690.482178 
	C2462.109375,686.421753 2460.082275,684.858032 2456.502197,684.006348 
	C2455.415039,683.747742 2454.361328,683.286377 2453.263184,683.146484 
	C2440.166748,681.478516 2427.325928,687.681213 2425.968506,702.852905 
	C2425.668701,706.205750 2424.998535,709.525391 2424.437256,713.271729 
	C2420.578125,713.271729 2416.843018,713.271729 2413.374023,713.271729 
	C2413.374023,717.790161 2413.374023,721.857727 2413.374023,726.169067 
	C2417.364502,726.169067 2420.981934,726.169067 2425.006836,726.169067 
	C2425.006836,746.811829 2425.006836,767.199402 2425.006836,787.769653 
	C2430.157715,787.769653 2434.886475,787.769653 2440.035156,787.769653 
	C2440.035156,767.157532 2440.035156,746.770569 2440.035156,725.950745 
	C2445.181152,725.950745 2449.925049,725.950745 2454.739258,725.950745 
	C2454.739258,721.444275 2454.739258,717.381042 2454.739258,712.898132 
	C2449.740967,712.898132 2444.989014,712.898132 2440.208496,712.898132 
	C2439.580322,707.263428 2440.168213,702.396545 2444.649658,697.891235 
M2111.532959,777.028320 
	C2111.163818,776.023804 2110.794678,775.019348 2110.360107,773.837524 
	C2108.429199,774.807129 2106.753662,775.794861 2104.969482,776.513062 
	C2101.619385,777.861938 2096.123535,774.807556 2096.080811,771.209045 
	C2095.903564,756.266235 2096.006348,741.320129 2096.006348,725.936523 
	C2101.193848,725.936523 2105.940430,725.936523 2110.725586,725.936523 
	C2110.725586,721.421936 2110.725586,717.355896 2110.725586,712.853149 
	C2105.719238,712.853149 2100.973145,712.853149 2095.812256,712.853149 
	C2095.812256,706.008423 2095.812256,699.600769 2095.812256,693.337646 
	C2090.629395,693.337646 2085.895996,693.337646 2080.729980,693.337646 
	C2080.729980,700.080200 2080.729980,706.491577 2080.729980,713.315063 
	C2076.213379,713.315063 2072.141113,713.315063 2068.221680,713.315063 
	C2068.221680,717.709045 2068.221680,721.660583 2068.221680,726.042480 
	C2072.503418,726.042480 2076.584473,726.042480 2081.000000,726.042480 
	C2081.000000,742.107849 2080.991455,757.733154 2081.003174,773.358398 
	C2081.009766,782.020996 2084.997314,787.622009 2093.250977,789.613220 
	C2096.408936,790.375183 2099.970215,790.461853 2103.155273,789.851929 
	C2106.707520,789.171753 2110.456543,787.885437 2113.239990,785.727844 
	C2114.190430,784.990967 2112.476074,780.818115 2111.983887,778.214355 
	C2111.953125,778.051880 2111.960449,777.882202 2111.532959,777.028320 
M2765.000000,763.427551 
	C2765.000000,751.012268 2765.000000,738.597046 2765.000000,725.753479 
	C2770.387207,725.753479 2775.124756,725.753479 2779.637451,725.753479 
	C2779.637451,721.242004 2779.637451,717.175903 2779.637451,712.680542 
	C2774.538574,712.680542 2769.801758,712.680542 2764.823730,712.680542 
	C2764.823730,705.957458 2764.823730,699.676392 2764.823730,693.238708 
	C2759.826904,693.238708 2755.096924,693.238708 2749.929688,693.238708 
	C2749.929688,699.871033 2749.929688,706.279175 2749.929688,713.106445 
	C2745.427246,713.106445 2741.347656,713.106445 2737.291016,713.106445 
	C2737.291016,717.618347 2737.291016,721.684204 2737.291016,726.179565 
	C2741.646484,726.179565 2745.722412,726.179565 2750.000000,726.179565 
	C2750.000000,742.419983 2749.806885,758.223816 2750.083008,774.019409 
	C2750.217773,781.731995 2753.427002,787.815796 2761.128174,788.990906 
	C2765.465576,789.652771 2770.049316,790.406311 2774.281250,789.692200 
	C2782.807861,788.253235 2783.659668,786.237122 2780.964111,778.084839 
	C2780.516357,776.730652 2779.958984,775.412476 2779.355957,773.823608 
	C2775.019775,776.166138 2770.224365,779.466614 2766.547852,773.777893 
	C2764.970703,771.337646 2765.453369,767.566223 2765.000000,763.427551 
M2157.248779,787.966431 
	C2160.710449,786.791870 2161.867188,784.822021 2160.047363,781.270264 
	C2158.895264,779.021606 2158.322266,776.476135 2157.406738,773.824280 
	C2156.004395,774.547485 2154.736084,775.240723 2153.434814,775.865601 
	C2148.636719,778.169739 2143.205811,775.524963 2143.104736,770.256836 
	C2142.823730,755.652954 2143.007324,741.040100 2143.007324,725.994019 
	C2148.135010,725.994019 2152.879883,725.994019 2157.759277,725.994019 
	C2157.759277,721.487671 2157.759277,717.424255 2157.759277,712.922913 
	C2152.791748,712.922913 2148.047363,712.922913 2142.889404,712.922913 
	C2142.889404,706.087463 2142.889404,699.680908 2142.889404,693.293213 
	C2137.714355,693.293213 2132.984375,693.293213 2127.822998,693.293213 
	C2127.822998,699.984802 2127.822998,706.389587 2127.822998,713.215637 
	C2123.648682,713.215637 2119.908936,713.215637 2116.343262,713.215637 
	C2116.343262,717.725830 2116.343262,721.792603 2116.343262,726.288208 
	C2120.422852,726.288208 2124.159424,726.288208 2128.000000,726.288208 
	C2128.000000,742.374878 2127.844482,758.024353 2128.127930,773.665894 
	C2128.186523,776.894531 2129.429932,780.320740 2130.912354,783.259766 
	C2134.205811,789.788391 2146.433838,792.455566 2157.248779,787.966431 
M3060.000000,771.323547 
	C3059.964355,776.303162 3060.923096,780.720703 3064.215576,784.931030 
	C3069.471191,791.652039 3084.702393,791.380249 3091.518555,786.713379 
	C3092.444336,786.079590 3093.122314,784.009888 3092.833496,782.882263 
	C3092.050781,779.828918 3090.685303,776.924866 3089.583984,774.046936 
	C3087.659912,774.839233 3086.081055,775.584900 3084.439697,776.147034 
	C3079.813721,777.731079 3075.167725,775.053223 3075.089844,770.176697 
	C3074.856445,755.573059 3075.005859,740.963318 3075.005859,725.918457 
	C3080.214111,725.918457 3084.960205,725.918457 3089.717529,725.918457 
	C3089.717529,721.404297 3089.717529,717.338562 3089.717529,712.837646 
	C3084.702881,712.837646 3079.958252,712.837646 3074.798340,712.837646 
	C3074.798340,705.993225 3074.798340,699.584717 3074.798340,693.343567 
	C3069.616211,693.343567 3064.882568,693.343567 3059.720215,693.343567 
	C3059.720215,700.093079 3059.720215,706.504517 3059.720215,713.148560 
	C3055.660400,713.148560 3052.041504,713.148560 3048.225342,713.148560 
	C3048.225342,717.477112 3048.225342,721.543518 3048.225342,726.050415 
	C3052.176758,726.050415 3055.924316,726.050415 3060.000000,726.050415 
	C3060.000000,741.113708 3060.000000,755.738708 3060.000000,771.323547 
M2350.000000,699.504883 
	C2350.000000,728.908691 2350.000000,758.312500 2350.000000,787.703613 
	C2355.294678,787.703613 2360.024414,787.703613 2364.720459,787.703613 
	C2364.720459,753.365845 2364.720459,719.325256 2364.720459,685.296814 
	C2359.704346,685.296814 2354.974854,685.296814 2350.000000,685.296814 
	C2350.000000,689.896912 2350.000000,694.202576 2350.000000,699.504883 
M2725.991943,786.269531 
	C2725.991943,752.553040 2725.991943,718.836609 2725.991943,685.378174 
	C2720.538574,685.378174 2715.801758,685.378174 2711.366455,685.378174 
	C2711.366455,719.802368 2711.366455,753.847717 2711.366455,788.383911 
	C2716.480469,787.977539 2721.198242,787.602600 2725.991943,786.269531 
M2258.000244,715.697754 
	C2258.000244,739.767883 2258.000244,763.838013 2258.000244,787.783447 
	C2263.363037,787.783447 2267.979736,787.783447 2273.000000,787.783447 
	C2273.000000,772.619995 2273.269775,757.661804 2272.846191,742.723145 
	C2272.707275,737.825195 2274.169434,734.317383 2277.868652,731.740845 
	C2280.612793,729.829773 2283.651611,728.075012 2286.821045,727.112976 
	C2290.316650,726.052063 2294.111084,725.975952 2297.718262,725.478699 
	C2297.718262,720.625732 2297.718262,715.869690 2297.718262,710.938049 
	C2287.741211,711.422119 2279.886230,715.715271 2272.698242,723.898926 
	C2272.698242,719.270325 2272.698242,716.199341 2272.698242,713.000671 
	C2268.468750,713.000671 2264.641113,712.886658 2260.829346,713.080078 
	C2259.863281,713.129028 2258.947266,714.157227 2258.000244,715.697754 
M3277.000000,765.500000 
	C3277.000000,772.920349 3277.000000,780.340698 3277.000000,787.691589 
	C3282.322754,787.691589 3287.049805,787.691589 3292.000000,787.691589 
	C3292.000000,771.768494 3292.170410,756.149658 3291.893555,740.538818 
	C3291.812744,735.983337 3293.179932,732.724548 3297.212158,731.037415 
	C3303.163818,728.547058 3309.290039,726.474182 3315.706543,724.087830 
	C3315.706543,720.594421 3315.706543,715.852783 3315.706543,711.110596 
	C3306.248291,711.329407 3298.794189,715.412476 3291.776367,722.574951 
	C3291.776367,718.661682 3291.776367,715.929382 3291.776367,713.324341 
	C3286.642578,713.324341 3281.916992,713.324341 3277.000000,713.324341 
	C3277.000000,730.598633 3277.000000,747.549316 3277.000000,765.500000 
M2386.000000,769.499512 
	C2386.000000,775.590637 2386.000000,781.681763 2386.000000,787.682922 
	C2391.336914,787.682922 2396.065674,787.682922 2400.698730,787.682922 
	C2400.698730,762.656250 2400.698730,737.947815 2400.698730,713.316833 
	C2395.663574,713.316833 2390.934814,713.316833 2386.000000,713.316833 
	C2386.000000,731.921753 2386.000000,750.210693 2386.000000,769.499512 
M2569.970459,775.785278 
	C2567.077393,770.693848 2561.625732,768.456848 2556.369629,770.204529 
	C2553.109375,771.288574 2549.776123,776.595947 2550.004639,780.339600 
	C2550.312012,785.377136 2553.901123,788.463379 2561.402344,789.563049 
	C2558.522461,793.329041 2555.807861,796.726990 2553.288086,800.263611 
	C2552.491699,801.380981 2551.619141,803.930298 2551.792236,804.027527 
	C2554.122559,805.337585 2557.597168,807.938965 2558.936035,807.135010 
	C2566.594727,802.536499 2575.218018,788.096863 2569.970459,775.785278 
M2401.981934,687.875671 
	C2398.235107,683.452454 2392.567627,681.492004 2389.111328,683.423401 
	C2384.823975,685.819214 2382.761963,691.855225 2384.732666,696.240662 
	C2386.713135,700.647522 2392.668701,702.624207 2397.893555,700.608826 
	C2401.937744,699.048828 2403.745605,693.988342 2401.981934,687.875671 
z"/>
<path fill="#000000" opacity="1.000000" stroke="none" 
	d="
M3.000000,1.000000 
	C185.359177,1.000000 367.718353,1.000000 550.538757,1.439452 
	C550.787048,3.997178 550.768921,6.156741 550.330078,8.227141 
	C546.979004,24.038326 536.304016,34.656609 524.145874,43.889210 
	C508.491730,55.776493 491.407867,65.388184 473.245117,72.885391 
	C453.704742,80.951263 434.144989,89.037720 414.254944,96.170654 
	C393.296478,103.686790 371.989929,110.253204 350.736603,116.919403 
	C334.765961,121.928673 318.624054,126.389755 302.587708,131.192780 
	C294.050018,133.749893 285.574554,136.514938 276.832794,139.110718 
	C276.594574,139.035309 276.095978,139.001648 275.867981,138.694595 
	C274.830322,138.233444 273.999023,138.151047 273.214020,137.914917 
	C242.314240,128.620026 211.292831,119.705887 180.553284,109.907646 
	C138.879227,96.624023 97.366409,82.787338 58.535927,62.194607 
	C43.307110,54.118401 28.544361,45.239952 16.888601,32.267681 
	C8.959680,23.443193 2.280938,13.792840 3.000000,1.000000 
z"/>
<path fill="#A0C637" opacity="1.000000" stroke="none" 
	d="
M276.060974,546.099854 
	C263.402344,550.044250 250.765411,554.060120 238.078873,557.912659 
	C225.647476,561.687805 213.112885,565.128662 200.718216,569.017822 
	C182.114960,574.855042 163.520630,580.737976 145.055344,586.993591 
	C115.279579,597.080811 85.901222,608.204529 58.079536,623.013855 
	C42.396961,631.361572 27.363894,640.738220 15.426323,654.168884 
	C8.512124,661.947876 2.914424,670.540283 2.945406,681.607788 
	C2.947592,682.388733 2.226473,683.171570 1.420843,683.976807 
	C1.000000,635.645752 1.000000,587.291565 1.362123,538.694946 
	C2.950291,535.343567 3.916430,532.099670 5.447311,529.148804 
	C12.112070,516.302246 22.337267,506.638031 34.345154,499.052002 
	C46.663361,491.269958 59.522541,484.344238 72.497757,477.026520 
	C73.556625,476.987793 74.262711,476.966278 75.166168,477.233429 
	C79.658836,479.656921 83.814171,482.157745 88.273689,483.863098 
	C107.361778,491.162567 126.456070,498.462311 145.709854,505.306976 
	C162.413498,511.245087 179.303650,516.667114 196.171310,522.132202 
	C206.681274,525.537415 217.280762,528.673157 227.881378,531.789368 
	C235.466446,534.019104 243.155807,535.895508 250.733521,538.148560 
	C259.214325,540.670105 267.621674,543.438782 276.060974,546.099854 
z"/>
<path fill="#0B7F35" opacity="1.000000" stroke="none" 
	d="
M2.500000,1.000000 
	C2.280938,13.792840 8.959680,23.443193 16.888601,32.267681 
	C28.544361,45.239952 43.307110,54.118401 58.535927,62.194607 
	C97.366409,82.787338 138.879227,96.624023 180.553284,109.907646 
	C211.292831,119.705887 242.314240,128.620026 273.214020,137.914917 
	C273.999023,138.151047 274.830322,138.233444 275.638855,139.000549 
	C261.213745,143.798309 246.677048,147.632919 232.387344,152.234634 
	C192.431198,165.101700 152.478806,177.996597 112.739250,191.510757 
	C99.783524,195.916550 87.487953,202.263580 74.553131,207.801727 
	C73.525391,207.935272 72.834969,207.989868 71.949265,207.747650 
	C55.302937,199.364792 39.071293,190.901138 24.972128,178.971451 
	C15.160298,170.669388 6.720325,161.328796 2.901798,148.623444 
	C2.700117,147.952393 1.653348,147.535309 1.000000,147.000000 
	C1.000000,99.666672 0.991831,52.333336 1.041929,5.000062 
	C1.043341,3.666371 1.666667,2.333339 2.500000,1.000000 
z"/>
<path fill="#A0C637" opacity="1.000000" stroke="none" 
	d="
M277.071014,139.186111 
	C285.574554,136.514938 294.050018,133.749893 302.587708,131.192780 
	C318.624054,126.389755 334.765961,121.928673 350.736603,116.919403 
	C371.989929,110.253204 393.296478,103.686790 414.254944,96.170654 
	C434.144989,89.037720 453.704742,80.951263 473.245117,72.885391 
	C491.407867,65.388184 508.491730,55.776493 524.145874,43.889210 
	C536.304016,34.656609 546.979004,24.038326 550.330078,8.227141 
	C550.768921,6.156741 550.787048,3.997178 551.000000,1.439452 
	C551.000000,1.000000 551.500000,1.000000 551.750000,1.000000 
	C552.000000,45.823200 551.697021,90.649628 552.174866,135.467743 
	C552.328796,149.902649 546.712158,161.192444 537.302307,171.116302 
	C525.791016,183.256348 511.632446,191.862930 497.156982,199.926605 
	C492.308044,202.627747 487.207397,204.876999 481.687073,207.660416 
	C480.446472,208.023499 479.740601,208.058960 478.837738,207.800079 
	C466.070618,202.055557 453.716339,196.019440 440.880280,191.291229 
	C421.170197,184.030975 401.162933,177.567078 381.217438,170.959457 
	C364.888397,165.549927 348.524689,160.229050 332.068298,155.224075 
	C313.799774,149.667969 295.408722,144.514755 277.071014,139.186111 
z"/>
<path fill="#A0C637" opacity="1.000000" stroke="none" 
	d="
M72.144531,208.044464 
	C72.834969,207.989868 73.525391,207.935272 74.737900,208.125397 
	C81.997833,211.480270 88.603386,214.928299 95.501427,217.629349 
	C109.345444,223.050186 123.278267,228.264893 137.304611,233.194275 
	C155.576599,239.615753 173.932800,245.806198 192.335800,251.842896 
	C202.520294,255.183701 212.866928,258.032837 223.153870,261.058044 
	C233.424225,264.078400 243.730881,266.976654 253.984512,270.052155 
	C261.396027,272.275177 268.746826,274.700500 275.922791,277.366577 
	C245.056824,286.825745 214.218887,295.415405 183.780350,305.242188 
	C156.428619,314.072418 129.501572,324.222290 102.418282,333.877289 
	C95.243111,336.435181 88.182625,339.314789 80.687714,342.022034 
	C79.657806,341.873871 78.948372,341.880402 78.370399,341.608032 
	C60.181919,333.035645 42.327686,323.865631 26.655058,311.062714 
	C16.400269,302.685547 7.643796,293.140106 3.782906,279.978577 
	C3.441236,278.813843 1.954761,277.984924 0.999997,277.000000 
	C1.000000,274.299713 1.000000,271.599457 1.343578,268.697021 
	C2.916723,265.721222 3.989085,262.864594 5.401999,260.187714 
	C13.140092,245.527176 25.352470,235.167831 39.060825,226.609116 
	C49.775612,219.919388 61.094223,214.196793 72.144531,208.044464 
z"/>
<path fill="#0B7F35" opacity="1.000000" stroke="none" 
	d="
M74.968796,476.944763 
	C74.262711,476.966278 73.556625,476.987793 72.296234,476.726013 
	C57.675514,468.229095 43.098133,460.761688 29.692732,451.582672 
	C17.373417,443.147278 6.833179,432.478516 2.817132,417.132965 
	C2.685791,416.631134 1.626652,416.372162 1.000004,416.000000 
	C1.000000,413.629425 1.000000,411.258881 1.360192,408.389893 
	C2.420349,406.863251 3.440753,405.927948 3.770011,404.792297 
	C6.626244,394.940643 12.297552,386.832947 19.691074,380.015259 
	C37.575462,363.523834 58.618275,352.116669 81.284309,342.880615 
	C88.979141,345.979126 96.186913,349.287659 103.621971,351.965088 
	C126.736450,360.288879 149.821075,368.723633 173.138657,376.447083 
	C194.410172,383.492798 215.973801,389.655853 237.402191,396.229126 
	C250.305496,400.187317 263.196320,404.186157 275.814697,408.411255 
	C260.487518,413.103424 245.332901,417.225311 230.409546,422.061005 
	C189.409378,435.346527 148.424103,448.689789 107.618301,462.555695 
	C96.400574,466.367493 85.834099,472.095856 74.968796,476.944763 
z"/>
<path fill="#D4E3A5" opacity="1.000000" stroke="none" 
	d="
M2901.468750,819.000000 
	C2900.339600,818.333923 2899.793701,817.441833 2898.999512,817.038940 
	C2894.141846,814.574585 2889.151855,812.362305 2884.360596,809.778564 
	C2881.389648,808.176270 2881.618652,805.648987 2883.391602,803.127869 
	C2884.973145,800.878906 2886.571533,798.641602 2888.348877,796.136230 
	C2895.200684,802.523926 2902.954590,806.443604 2912.700928,806.081421 
	C2925.576416,805.602844 2936.185547,798.414124 2935.017578,783.604736 
	C2934.888184,781.964294 2935.000000,780.304810 2935.000000,778.287292 
	C2931.813965,780.654297 2929.032471,783.071716 2925.931152,784.965698 
	C2910.050537,794.664917 2886.187256,787.031860 2880.162842,766.744995 
	C2875.967529,752.618469 2876.176270,738.399353 2883.973145,725.090820 
	C2889.624512,715.444763 2905.300537,708.889465 2915.972656,711.349609 
	C2923.179443,713.010986 2929.415527,715.983215 2934.768555,722.454163 
	C2934.768555,718.923279 2934.768555,716.236877 2934.768555,713.275269 
	C2939.958496,713.275269 2944.704590,713.275269 2950.000000,713.275269 
	C2950.000000,714.900208 2950.000000,716.506226 2950.000000,718.112183 
	C2950.000000,739.778687 2949.748291,761.448975 2950.075684,783.110535 
	C2950.361572,802.015930 2942.215088,813.649780 2924.439453,817.276001 
	C2924.042480,817.356873 2923.753662,817.965576 2923.707275,818.664062 
	C2916.645752,819.000000 2909.291504,819.000000 2901.468750,819.000000 
M2935.000244,743.571533 
	C2934.756104,740.325806 2935.677246,736.239441 2934.053711,733.988831 
	C2928.743896,726.628052 2915.747559,721.795349 2905.859863,726.486511 
	C2892.208252,732.963257 2889.445068,753.483582 2897.478516,765.993713 
	C2906.501221,780.044739 2923.674316,777.137390 2933.320068,766.983887 
	C2934.490234,765.752380 2934.860840,763.402893 2934.926758,761.547485 
	C2935.128418,755.888000 2935.000000,750.216797 2935.000244,743.571533 
z"/>
<path fill="#8EAC2C" opacity="1.000000" stroke="none" 
	d="
M80.901245,342.801849 
	C58.618275,352.116669 37.575462,363.523834 19.691074,380.015259 
	C12.297552,386.832947 6.626244,394.940643 3.770011,404.792297 
	C3.440753,405.927948 2.420349,406.863251 1.360192,407.945740 
	C1.000000,364.645782 1.000000,321.291534 0.999997,277.468658 
	C1.954761,277.984924 3.441236,278.813843 3.782906,279.978577 
	C7.643796,293.140106 16.400269,302.685547 26.655058,311.062714 
	C42.327686,323.865631 60.181919,333.035645 78.370399,341.608032 
	C78.948372,341.880402 79.657806,341.873871 80.637764,342.208984 
	C80.969582,342.420624 80.901245,342.801849 80.901245,342.801849 
z"/>
<path fill="#000000" opacity="1.000000" stroke="none" 
	d="
M71.949265,207.747635 
	C61.094223,214.196793 49.775612,219.919388 39.060825,226.609116 
	C25.352470,235.167831 13.140092,245.527176 5.401999,260.187714 
	C3.989085,262.864594 2.916723,265.721222 1.343578,268.247437 
	C1.000000,227.979111 1.000000,187.958206 1.000000,147.468658 
	C1.653348,147.535309 2.700117,147.952393 2.901798,148.623444 
	C6.720325,161.328796 15.160298,170.669388 24.972128,178.971451 
	C39.071293,190.901138 55.302937,199.364792 71.949265,207.747635 
z"/>
<path fill="#000000" opacity="1.000000" stroke="none" 
	d="
M1.000004,416.468658 
	C1.626652,416.372162 2.685791,416.631134 2.817132,417.132965 
	C6.833179,432.478516 17.373417,443.147278 29.692732,451.582672 
	C43.098133,460.761688 57.675514,468.229095 71.943443,476.743225 
	C59.522541,484.344238 46.663361,491.269958 34.345154,499.052002 
	C22.337267,506.638031 12.112070,516.302246 5.447311,529.148804 
	C3.916430,532.099670 2.950291,535.343567 1.362123,538.226318 
	C1.000000,497.645782 1.000000,457.291534 1.000004,416.468658 
z"/>
<path fill="#D4E3A5" opacity="1.000000" stroke="none" 
	d="
M3334.000000,784.545898 
	C3332.659668,785.848877 3331.177490,786.537720 3330.005615,787.576721 
	C3326.489746,790.693787 3322.617676,790.881714 3318.697754,788.841248 
	C3314.765381,786.794128 3312.510742,781.531799 3313.585449,777.865662 
	C3315.321533,771.943176 3317.598389,770.318176 3322.953857,769.920898 
	C3327.842773,769.558167 3330.778564,772.090515 3333.693359,775.285461 
	C3334.000000,778.030579 3334.000000,781.061218 3334.000000,784.545898 
z"/>
<path fill="#FFFFFF" opacity="1.000000" stroke="none" 
	d="
M1573.728516,435.770172 
	C1557.484009,450.311218 1539.177734,460.587982 1518.747314,466.927460 
	C1504.661621,471.298218 1490.311279,474.075531 1475.463135,475.207611 
	C1449.679077,477.173553 1424.949341,473.823120 1400.867676,464.562378 
	C1399.104736,463.884430 1396.120117,464.885498 1394.325928,466.058258 
	C1388.136963,470.103729 1383.687622,475.496460 1382.988892,483.290771 
	C1381.991455,494.417206 1387.521240,499.589294 1396.547241,501.612701 
	C1406.652100,503.877991 1417.063721,505.156708 1427.410645,505.873444 
	C1443.880981,507.014374 1460.411133,507.269501 1476.910400,508.023376 
	C1489.085815,508.579712 1501.251953,509.338531 1513.422607,509.998962 
	C1534.879517,511.163361 1555.848267,514.516418 1575.718384,523.247986 
	C1591.438965,530.156128 1604.736450,540.087097 1613.991577,554.633728 
	C1623.767578,569.999084 1626.591797,586.833618 1624.170410,604.994202 
	C1621.040283,628.470703 1608.519043,646.391357 1591.692505,661.569092 
	C1576.743530,675.053101 1559.421143,685.230347 1540.127563,691.246521 
	C1524.515625,696.114746 1508.715210,700.791565 1492.665771,703.746887 
	C1468.522339,708.192627 1443.890381,707.929138 1419.475952,706.769592 
	C1397.163208,705.709900 1374.963257,702.513123 1353.707397,694.974670 
	C1339.792725,690.039795 1326.702026,683.709045 1315.742432,673.351318 
	C1296.900635,655.544373 1294.719116,629.599182 1309.898682,608.648499 
	C1318.937866,596.173035 1331.589600,588.337463 1345.306152,582.047791 
	C1349.665161,580.049011 1354.232910,578.505798 1358.900635,576.677612 
	C1337.676758,562.232605 1329.913818,541.578918 1332.186523,517.059937 
	C1333.509277,502.791077 1339.889282,490.299896 1349.777954,479.627289 
	C1358.766235,469.926392 1369.595093,462.861298 1381.239624,456.245026 
	C1375.437134,452.111420 1369.533325,448.325378 1364.097778,443.956543 
	C1346.269653,429.626556 1333.562378,412.027679 1329.998047,388.828369 
	C1325.552002,359.890625 1335.566528,335.951019 1355.229736,315.237823 
	C1376.748901,292.569550 1403.387817,279.949768 1433.721313,273.849091 
	C1447.768799,271.023865 1461.881958,270.237793 1475.957642,271.209076 
	C1491.734497,272.297760 1507.293457,275.440887 1522.274170,280.921539 
	C1524.497559,281.734985 1527.044556,281.950958 1529.442871,281.956238 
	C1559.756226,282.022827 1590.069824,282.000000 1620.691406,282.000000 
	C1620.691406,286.907593 1620.691406,291.647125 1620.691406,296.500000 
	C1599.047241,296.500000 1577.277222,296.500000 1556.631470,296.500000 
	C1563.741699,302.559082 1572.159912,308.708252 1579.332764,316.070740 
	C1592.015747,329.089142 1599.999390,344.522827 1602.145874,363.061157 
	C1604.911987,386.948608 1597.950562,407.438080 1582.871460,425.602142 
	C1580.037842,429.015564 1576.953857,432.221222 1573.728516,435.770172 
M1383.656738,591.891541 
	C1380.446533,596.162964 1376.478271,600.065125 1374.181519,604.781494 
	C1369.161865,615.088562 1367.462646,625.973572 1368.814209,637.682678 
	C1370.844727,655.275085 1378.313232,669.156250 1392.792480,679.365234 
	C1408.908447,690.728271 1427.483643,693.816711 1446.444092,694.866638 
	C1462.158203,695.736816 1477.834229,694.200378 1493.068481,689.955994 
	C1512.325317,684.591003 1529.762085,676.294556 1540.961548,658.538269 
	C1549.397339,645.163452 1550.424438,630.939514 1543.341431,617.162903 
	C1537.295654,605.403992 1525.728394,600.867310 1512.952026,600.059998 
	C1498.309814,599.134644 1483.639038,598.654907 1468.979858,598.003296 
	C1453.656250,597.322083 1438.295898,597.101868 1423.019897,595.847839 
	C1412.738647,595.003784 1402.590820,592.612610 1392.350586,591.140686 
	C1389.678589,590.756714 1386.884521,591.221741 1383.656738,591.891541 
M1460.720581,284.001678 
	C1448.584229,287.443024 1441.697754,296.685547 1436.525024,307.130249 
	C1428.650757,323.029175 1426.002563,340.465759 1425.268433,357.875610 
	C1424.638428,372.814362 1425.844604,387.892792 1427.123291,402.833740 
	C1428.652954,420.707977 1433.234253,437.715515 1444.988281,452.013611 
	C1450.786011,459.066162 1458.401733,463.432251 1467.261108,462.723969 
	C1476.444702,461.989746 1483.554199,456.329163 1489.065186,448.740723 
	C1501.754272,431.268341 1505.627808,410.924988 1506.695068,390.253082 
	C1507.542480,373.840881 1506.374023,357.220428 1504.802734,340.816742 
	C1503.223267,324.325317 1498.224731,308.546082 1487.625732,295.400116 
	C1481.144653,287.361420 1472.883545,281.766968 1460.720581,284.001678 
z"/>
<path fill="#FFFFFF" opacity="1.000000" stroke="none" 
	d="
M974.736450,186.314148 
	C965.141602,168.153641 952.624268,153.289551 934.006409,144.587738 
	C925.653137,140.683517 916.723022,138.891617 907.448059,137.792755 
	C892.664551,136.041260 878.678833,138.595978 864.826904,143.014984 
	C849.740723,147.827698 837.618103,156.827225 829.404297,170.371704 
	C825.497131,176.814697 823.721497,184.176727 822.860962,191.879257 
	C821.059204,208.008011 825.390686,222.254959 835.073425,234.829468 
	C843.118469,245.277176 853.313416,253.434280 864.638489,260.283783 
	C887.546204,274.138550 912.430298,283.722168 936.809692,294.442657 
	C958.572205,304.012451 980.344910,313.757263 1000.118469,327.103088 
	C1025.035767,343.920502 1045.226685,364.741577 1054.217163,394.543427 
	C1059.421021,411.792694 1059.927124,429.226624 1058.072876,446.989136 
	C1056.070312,466.172729 1049.265015,483.536652 1038.882324,499.519623 
	C1023.587646,523.063965 1002.459290,539.917236 977.294128,551.990845 
	C960.334961,560.127380 942.569458,565.738892 923.922668,567.870300 
	C909.417603,569.528320 894.766418,570.913696 880.199646,570.744202 
	C865.519287,570.573364 850.854126,568.426086 836.198425,566.980896 
	C814.597900,564.851013 793.455627,560.292542 772.750061,553.911560 
	C762.669556,550.804932 752.878418,546.741516 743.014587,542.959106 
	C739.480957,541.604126 737.564758,540.081116 738.749268,534.973083 
	C745.228088,507.033936 751.018005,478.934235 756.959778,450.871704 
	C759.462646,439.050903 761.757446,427.186066 764.148193,415.334320 
	C768.014954,415.646240 771.691040,415.942810 775.539978,416.253326 
	C780.762451,441.990021 788.424194,467.100433 800.075256,490.802521 
	C807.399658,505.702881 816.473877,519.567322 828.639099,531.107239 
	C842.557373,544.310120 858.719482,552.828918 877.873474,556.163025 
	C899.761475,559.973083 920.693176,557.400085 940.385132,547.710205 
	C958.054260,539.015747 969.820190,524.569458 972.773682,504.822418 
	C975.506226,486.552582 970.800659,469.779846 958.780457,455.178925 
	C945.453613,438.990906 928.049927,428.420715 909.844727,419.076721 
	C884.535278,406.086426 858.859314,393.812469 833.446716,381.020416 
	C810.290649,369.364258 789.101379,354.890167 771.888855,335.280273 
	C758.766602,320.330322 750.036377,302.969543 747.148926,283.202789 
	C745.634155,272.833435 744.546631,262.164520 745.230225,251.759949 
	C746.712463,229.198349 753.867676,208.253967 766.936157,189.589828 
	C784.218506,164.907532 807.111511,147.599304 835.283997,136.832245 
	C849.560730,131.375946 864.075500,127.403564 879.243958,126.065643 
	C890.712341,125.054085 902.280396,123.685791 913.725037,124.208122 
	C936.154114,125.231758 958.460754,127.440315 980.500427,132.577011 
	C1000.623840,137.267059 1019.885864,143.997818 1039.134277,152.408249 
	C1029.291382,188.801682 1019.456909,225.164108 1009.437256,262.211212 
	C1005.612305,261.833466 1001.458923,261.423279 997.492798,261.031586 
	C993.151306,234.961426 986.802368,209.962234 974.736450,186.314148 
z"/>
<path fill="#FFFFFF" opacity="1.000000" stroke="none" 
	d="
M2188.000000,501.997925 
	C2188.033936,511.959076 2187.790527,521.298767 2191.637695,530.444214 
	C2196.117676,541.094482 2203.788330,547.223938 2214.624268,549.976807 
	C2216.942871,550.565796 2219.324463,550.906738 2221.833496,551.392151 
	C2221.833496,553.360535 2221.833496,555.329224 2221.833496,557.649658 
	C2168.070557,557.649658 2114.205322,557.649658 2060.293457,557.649658 
	C2059.177490,553.246826 2060.468994,551.579285 2065.362305,550.801086 
	C2076.527588,549.025574 2082.333496,540.933838 2084.844238,530.657227 
	C2086.300049,524.697998 2086.892578,518.391663 2086.910889,512.238708 
	C2087.066406,460.084106 2087.158447,407.927979 2086.865723,355.774597 
	C2086.807129,345.406738 2084.367432,335.240631 2077.388184,326.899750 
	C2067.714844,315.339264 2052.134521,314.333801 2037.841431,319.592834 
	C2028.916382,322.876770 2021.098755,327.903473 2014.198486,334.359467 
	C2013.114502,335.373657 2012.092285,337.119019 2012.089722,338.528198 
	C2011.984863,396.515106 2011.794312,454.503601 2012.193481,512.487915 
	C2012.263428,522.667358 2012.934570,533.631226 2020.193359,541.825928 
	C2023.729980,545.818481 2029.003296,548.787476 2034.058960,550.770203 
	C2038.814087,552.635071 2039.143066,551.796326 2038.764404,557.775024 
	C1985.358154,557.775024 1931.937012,557.775024 1878.257812,557.775024 
	C1878.257812,555.665588 1878.257812,553.589417 1878.257812,551.314880 
	C1889.238647,549.464661 1899.463135,545.441528 1904.939575,535.184937 
	C1908.167114,529.140137 1910.686157,521.861511 1910.742920,515.114380 
	C1911.201660,460.630402 1911.129761,406.140381 1910.932251,351.653259 
	C1910.859253,331.544861 1897.900635,314.958405 1875.470581,315.994171 
	C1874.490601,316.039459 1873.506836,315.999969 1872.128540,315.999969 
	C1872.075439,311.994263 1870.752930,308.894135 1876.864868,307.341034 
	C1901.740601,301.019897 1926.409424,293.880676 1951.129517,286.953522 
	C1968.115723,282.193604 1985.054688,277.265472 2002.026855,272.455231 
	C2008.737305,270.553345 2010.999878,272.271088 2011.000000,279.094788 
	C2011.000122,292.547913 2011.000000,306.001038 2011.000000,319.990906 
	C2016.933716,314.583435 2022.267944,309.303497 2028.032959,304.545380 
	C2046.658447,289.172485 2067.068359,277.300049 2091.261963,272.974548 
	C2108.388428,269.912567 2125.126953,270.142059 2141.892090,275.837921 
	C2162.554688,282.857819 2176.036865,296.929688 2182.680420,317.001373 
	C2186.040039,327.152618 2187.664062,338.308258 2187.771729,349.032898 
	C2188.282715,399.850342 2188.000000,450.675812 2188.000000,501.997925 
z"/>
<path fill="#FFFFFF" opacity="1.000000" stroke="none" 
	d="
M1108.983765,414.112183 
	C1100.302246,394.752167 1091.926147,375.645721 1082.889282,356.857086 
	C1074.103760,338.591156 1066.076782,319.793365 1052.063843,304.591583 
	C1048.991577,301.258667 1045.912109,297.842377 1042.368408,295.059906 
	C1038.999512,292.414612 1035.018555,290.548553 1031.096924,288.215027 
	C1031.096924,286.541229 1031.096924,284.553192 1031.096924,282.282349 
	C1089.512573,282.282349 1147.936768,282.282349 1206.778809,282.282349 
	C1206.862061,283.880951 1206.952148,285.610504 1207.041748,287.332733 
	C1203.109619,288.628052 1199.129517,289.416626 1195.651489,291.190002 
	C1187.573486,295.308868 1183.821655,302.315002 1182.943237,311.287964 
	C1181.342651,327.636963 1187.016846,342.241119 1193.312500,356.717163 
	C1202.836182,378.614899 1212.420044,400.486847 1222.084839,422.322601 
	C1226.433105,432.146637 1231.038574,441.856781 1235.596436,451.768921 
	C1242.394653,436.777924 1249.422729,421.890503 1255.913086,406.772247 
	C1260.963135,395.009186 1265.651245,383.068115 1269.942383,371.007721 
	C1275.145630,356.384552 1277.382080,341.119385 1275.861328,325.687012 
	C1274.161011,308.431549 1266.547119,295.126648 1249.070435,289.579224 
	C1246.617188,288.800537 1244.026733,288.453491 1241.249878,287.852570 
	C1241.249878,286.129974 1241.249878,284.346588 1241.249878,282.280151 
	C1279.846313,282.280151 1318.608398,282.280151 1357.777954,282.280151 
	C1358.277954,285.668701 1358.595459,288.335571 1353.840576,289.757202 
	C1340.998535,293.596771 1331.775391,302.414093 1323.999878,312.956940 
	C1309.106812,333.150238 1298.027466,355.532013 1287.084473,377.946930 
	C1277.721558,397.125031 1268.985718,416.609772 1260.009766,435.976074 
	C1251.642944,454.027832 1243.322388,472.100922 1234.986572,490.167023 
	C1224.634521,512.603088 1214.368530,535.079346 1203.918091,557.469482 
	C1191.356812,584.382019 1179.425781,611.629150 1165.767700,637.977661 
	C1152.458618,663.652832 1133.044434,684.161926 1106.461792,696.748901 
	C1094.359619,702.479370 1081.472046,705.181091 1067.858276,705.161682 
	C1054.968140,705.143311 1042.471680,703.981140 1030.959961,697.940186 
	C1014.200684,689.145569 1005.124390,675.507507 1004.921936,656.111694 
	C1004.737854,638.475647 1011.690857,625.056702 1026.706909,615.793884 
	C1042.745483,605.900330 1069.672607,608.862488 1081.713501,624.867920 
	C1089.933105,635.794006 1093.372437,648.801086 1100.055298,660.290710 
	C1102.627441,664.712891 1105.570557,669.299561 1111.453491,669.005981 
	C1115.369751,668.810486 1119.680786,668.130676 1123.016113,666.250366 
	C1133.515503,660.331543 1140.777344,650.958069 1146.939575,640.896912 
	C1158.962402,621.267090 1166.426025,599.443115 1176.393188,578.838257 
	C1180.132202,571.108826 1178.153076,565.898315 1175.141968,559.403137 
	C1162.932861,533.066650 1151.047485,506.580109 1139.009399,480.164124 
	C1129.030396,458.266602 1119.004883,436.390411 1108.983765,414.112183 
z"/>
<path fill="#FFFFFF" opacity="1.000000" stroke="none" 
	d="
M1866.760742,334.362793 
	C1876.310547,354.522949 1881.734009,375.292480 1882.162109,397.864502 
	C1825.067261,397.864502 1768.218262,397.864502 1711.019287,397.864502 
	C1710.755493,411.689087 1713.197144,424.549164 1716.682373,437.257874 
	C1720.626465,451.640320 1726.561035,465.037384 1735.958618,476.794464 
	C1747.729858,491.521210 1762.472290,501.201050 1781.121826,505.075134 
	C1799.659668,508.926056 1817.274780,505.953094 1834.096558,498.267578 
	C1849.194824,491.369476 1861.274048,480.441772 1869.785034,466.202576 
	C1872.849731,461.075134 1875.659058,460.377686 1880.679077,462.974304 
	C1877.132202,478.319244 1870.958130,492.623993 1863.187134,506.228821 
	C1856.758545,517.483521 1848.753418,527.627136 1839.117188,536.323242 
	C1822.406006,551.403931 1803.144287,561.488892 1780.950073,566.104065 
	C1769.265015,568.533936 1757.535400,569.593567 1745.726807,568.903320 
	C1729.369995,567.947205 1713.582275,564.447998 1698.270142,558.166687 
	C1678.307129,549.977417 1661.971924,537.079773 1647.885376,521.227112 
	C1633.882080,505.468170 1624.807251,486.828278 1619.069458,466.640198 
	C1614.088501,449.115265 1612.903198,431.047760 1614.162354,413.007874 
	C1615.412109,395.101776 1619.677124,377.793793 1626.864624,361.138519 
	C1635.513794,341.095520 1647.694702,323.719574 1663.612915,308.948364 
	C1681.424194,292.420471 1702.064697,280.971313 1725.709351,274.962067 
	C1739.842773,271.370117 1754.227295,269.976837 1768.636108,271.137573 
	C1794.442139,273.216461 1817.940796,281.437531 1838.153442,298.452637 
	C1850.100708,308.509979 1859.000366,320.649872 1866.760742,334.362793 
M1772.466919,288.979340 
	C1771.058228,287.895050 1769.744507,286.650177 1768.225586,285.752563 
	C1758.311523,279.894287 1748.296509,283.202850 1739.498901,291.167084 
	C1726.280396,303.133179 1720.470093,319.340271 1716.141357,335.987640 
	C1713.992798,344.250732 1713.116089,352.873566 1712.058105,361.382599 
	C1711.098022,369.104584 1710.672485,376.893036 1709.999878,384.786377 
	C1737.157349,384.786377 1763.895752,384.786377 1790.010864,384.786377 
	C1790.010864,372.531250 1790.528564,360.468872 1789.855103,348.473358 
	C1789.264282,337.953247 1787.810547,327.419312 1785.865845,317.055176 
	C1783.960571,306.900879 1780.709839,297.068573 1772.466919,288.979340 
z"/>
<path fill="#8EAC2C" opacity="1.000000" stroke="none" 
	d="
M75.166176,477.233429 
	C85.834099,472.095856 96.400574,466.367493 107.618301,462.555695 
	C148.424103,448.689789 189.409378,435.346527 230.409546,422.061005 
	C245.332901,417.225311 260.487518,413.103424 276.050507,408.394897 
	C276.564362,408.133911 277.024689,408.241943 277.303375,408.470276 
	C297.036804,414.296875 316.551697,419.696198 335.928375,425.552826 
	C353.155273,430.759705 370.342285,436.146667 387.343597,442.040588 
	C412.485168,450.756531 437.493622,459.864990 462.450134,469.099792 
	C468.237244,471.241241 473.585846,474.567810 478.880096,477.572998 
	C476.368774,478.862610 474.177612,480.100067 471.848724,480.967865 
	C441.428223,492.303589 411.263519,504.413910 380.479584,514.662659 
	C346.274689,526.050354 311.500702,535.728760 276.974487,546.151367 
	C276.974487,546.151428 276.521881,546.051697 276.291443,546.075806 
	C267.621674,543.438782 259.214325,540.670105 250.733521,538.148560 
	C243.155807,535.895508 235.466446,534.019104 227.881378,531.789368 
	C217.280762,528.673157 206.681274,525.537415 196.171310,522.132202 
	C179.303650,516.667114 162.413498,511.245087 145.709854,505.306976 
	C126.456070,498.462311 107.361778,491.162567 88.273689,483.863098 
	C83.814171,482.157745 79.658836,479.656921 75.166176,477.233429 
z"/>
<path fill="#0B7F35" opacity="1.000000" stroke="none" 
	d="
M277.218445,546.430908 
	C311.500702,535.728760 346.274689,526.050354 380.479584,514.662659 
	C411.263519,504.413910 441.428223,492.303589 471.848724,480.967865 
	C474.177612,480.100067 476.368774,478.862610 479.213196,477.483765 
	C480.487244,477.097229 481.171997,477.023956 481.856781,476.950684 
	C491.243073,482.136719 500.785461,487.062225 509.978790,492.570343 
	C523.530090,500.689514 536.201599,509.987061 544.953613,523.528625 
	C549.497437,530.559082 552.171387,538.090088 552.119141,546.837769 
	C551.858398,590.492004 552.000000,634.148621 552.000000,677.804443 
	C552.000000,679.609070 552.000000,681.413757 552.000000,683.218384 
	C549.592224,663.161560 536.881470,650.329224 521.731995,639.227783 
	C496.404449,620.668030 467.693695,608.823364 438.591827,597.861328 
	C422.539673,591.814880 406.445496,585.793884 390.087463,580.663025 
	C353.458191,569.173889 316.652618,558.246643 279.913605,547.107727 
	C279.128540,546.869690 278.280884,546.838257 277.218445,546.430908 
z"/>
<path fill="#A0C637" opacity="1.000000" stroke="none" 
	d="
M482.041077,476.639709 
	C481.171997,477.023956 480.487244,477.097229 479.469360,477.259766 
	C473.585846,474.567810 468.237244,471.241241 462.450134,469.099792 
	C437.493622,459.864990 412.485168,450.756531 387.343597,442.040588 
	C370.342285,436.146667 353.155273,430.759705 335.928375,425.552826 
	C316.551697,419.696198 297.036804,414.296875 277.679962,408.367523 
	C278.685303,407.692230 279.575256,407.289459 280.502716,407.012360 
	C309.885498,398.233765 339.357513,389.741394 368.627228,380.601288 
	C387.687378,374.649292 406.583405,368.107300 425.312622,361.179688 
	C441.112396,355.335632 456.565918,348.555511 472.485077,342.229980 
	C473.216309,342.298584 473.635193,342.326843 474.297699,342.562988 
	C484.386078,347.857941 494.466766,352.540985 504.023376,358.121552 
	C520.668945,367.841705 536.600525,378.552734 546.535156,395.907898 
	C548.278381,398.953217 550.035095,401.990845 551.785583,405.032013 
	C552.701477,418.518219 547.285889,429.579468 538.344299,439.107605 
	C522.579895,455.906158 502.667633,466.536987 482.041077,476.639709 
z"/>
<path fill="#0B7F35" opacity="1.000000" stroke="none" 
	d="
M474.054077,342.355103 
	C473.635193,342.326843 473.216309,342.298584 472.112305,342.139465 
	C450.234772,333.814148 429.189087,325.210083 407.804810,317.551483 
	C389.835205,311.115784 371.509918,305.656433 353.270142,299.996887 
	C337.564331,295.123566 321.740540,290.631744 306.000549,285.866760 
	C296.602234,283.021606 287.264801,279.975250 278.230591,276.830200 
	C310.000336,267.133179 341.539703,257.941376 372.845337,248.012604 
	C395.846252,240.717712 418.675140,232.821777 441.320221,224.486099 
	C454.162842,219.758728 466.480591,213.605499 479.034729,208.094421 
	C479.740601,208.058960 480.446472,208.023499 481.504730,207.970428 
	C491.240662,213.136612 500.797119,218.033966 509.968109,223.569885 
	C524.496643,232.339890 538.290222,242.217117 546.714722,257.466309 
	C549.485779,262.482178 550.267639,268.597015 551.622803,274.844513 
	C548.198608,282.202515 545.897522,289.449707 541.845276,295.529755 
	C535.142700,305.586151 525.823364,313.417084 515.491150,319.552795 
	C501.942932,327.598328 487.889954,334.793945 474.054077,342.355103 
z"/>
<path fill="#D4E3A5" opacity="1.000000" stroke="none" 
	d="
M1814.249146,692.611328 
	C1821.966675,711.796021 1829.482910,730.635071 1836.998169,749.474426 
	C1841.887939,761.732605 1846.780029,773.989868 1851.651367,786.255432 
	C1851.819458,786.678772 1851.775024,787.186584 1851.869873,787.998535 
	C1846.593384,787.998535 1841.450317,788.158691 1836.331543,787.876526 
	C1835.173706,787.812683 1833.579346,786.437561 1833.076416,785.279419 
	C1830.507324,779.363403 1828.229736,773.320679 1825.794678,767.182129 
	C1809.469849,767.182129 1793.192627,767.182129 1776.480469,767.182129 
	C1774.374390,772.580688 1772.030884,778.167725 1770.033325,783.875732 
	C1768.949219,786.973633 1767.332642,788.309204 1763.925293,788.075012 
	C1759.468506,787.768799 1754.974854,788.000000 1749.990967,788.000000 
	C1754.395020,776.911804 1758.687378,766.148682 1762.946167,755.372253 
	C1771.643921,733.363892 1780.384399,711.371826 1788.940186,689.308289 
	C1790.106934,686.299255 1791.388794,684.733826 1794.882080,684.921936 
	C1800.351807,685.216492 1805.848877,685.000000 1811.523560,685.000000 
	C1812.385132,687.480225 1813.216309,689.872986 1814.249146,692.611328 
M1800.593018,702.084473 
	C1794.264404,718.534302 1787.935913,734.984131 1781.463501,751.807800 
	C1795.041748,751.807800 1807.757324,751.807800 1820.651611,751.807800 
	C1819.041748,747.514221 1817.560669,743.430725 1815.984497,739.384216 
	C1811.137573,726.941956 1806.254150,714.513855 1800.593018,702.084473 
z"/>
<path fill="#8EAC2C" opacity="1.000000" stroke="none" 
	d="
M474.297699,342.562988 
	C487.889954,334.793945 501.942932,327.598328 515.491150,319.552795 
	C525.823364,313.417084 535.142700,305.586151 541.845276,295.529755 
	C545.897522,289.449707 548.198608,282.202515 551.574890,275.273132 
	C551.895569,318.079193 551.927856,361.091797 551.872864,404.568207 
	C550.035095,401.990845 548.278381,398.953217 546.535156,395.907898 
	C536.600525,378.552734 520.668945,367.841705 504.023376,358.121552 
	C494.466766,352.540985 484.386078,347.857941 474.297699,342.562988 
z"/>
<path fill="#D4E3A5" opacity="1.000000" stroke="none" 
	d="
M1903.000000,734.000000 
	C1903.000000,717.526306 1903.000000,701.552673 1903.000000,685.290222 
	C1907.993530,685.290222 1912.726074,685.290222 1917.906006,685.290222 
	C1917.906006,697.007874 1917.906006,708.718994 1917.906006,721.312378 
	C1925.078003,714.811951 1932.462891,710.775696 1941.546387,711.007690 
	C1959.568359,711.467896 1970.211060,722.161621 1973.930786,738.900208 
	C1975.944092,747.960327 1975.375000,757.052734 1973.070557,766.114929 
	C1966.769409,790.894043 1936.195312,798.152039 1918.323486,779.976807 
	C1918.323486,782.711609 1918.323486,785.056458 1918.323486,787.701843 
	C1913.134766,787.701843 1908.379028,787.701843 1903.000000,787.701843 
	C1903.000000,770.020996 1903.000000,752.260498 1903.000000,734.000000 
M1920.399536,769.925476 
	C1923.328857,771.631165 1926.152710,773.560486 1929.207275,775.000488 
	C1938.225098,779.251526 1948.882812,776.145569 1954.492676,768.090515 
	C1959.974121,760.219971 1961.228516,751.602783 1958.764771,742.617676 
	C1953.764404,724.382141 1938.006836,719.700195 1923.037598,729.622131 
	C1919.846436,731.737305 1917.405762,734.597473 1917.823975,739.506714 
	C1918.485229,747.269836 1917.868286,755.134277 1918.086182,762.947693 
	C1918.145874,765.089966 1919.252197,767.203186 1920.399536,769.925476 
z"/>
<path fill="#D4E3A5" opacity="1.000000" stroke="none" 
	d="
M2046.274658,717.706421 
	C2055.723633,724.158691 2059.282715,733.522766 2060.965576,743.865784 
	C2061.588623,747.695496 2061.818359,751.589233 2062.274170,755.895630 
	C2042.255737,755.895630 2022.826416,755.895630 2003.384155,755.895630 
	C2003.834839,766.331421 2012.837524,775.283691 2021.928833,777.144043 
	C2032.723877,779.353149 2041.166870,775.097168 2049.799805,768.917114 
	C2052.152100,772.114624 2054.510986,775.321045 2056.952393,778.639832 
	C2049.493652,785.741516 2040.732056,789.314087 2030.665894,790.016907 
	C2019.179688,790.818970 2008.231567,788.837524 1999.675659,780.912964 
	C1989.206055,771.215942 1985.739990,758.841736 1987.637939,744.498596 
	C1988.983765,734.328186 1993.243164,726.269287 2000.803589,719.711487 
	C2009.349976,712.298401 2019.549072,709.713257 2030.410767,711.414978 
	C2035.787354,712.257263 2040.806763,715.379517 2046.274658,717.706421 
M2009.617676,745.000000 
	C2022.030273,745.000000 2034.442993,745.000000 2046.868408,745.000000 
	C2046.337158,731.387268 2036.769775,723.490662 2021.468872,724.065308 
	C2012.307129,724.409363 2003.747314,733.394226 2003.234375,745.000000 
	C2005.051636,745.000000 2006.854858,745.000000 2009.617676,745.000000 
z"/>
<path fill="#D4E3A5" opacity="1.000000" stroke="none" 
	d="
M2526.969971,756.000000 
	C2510.833252,756.000000 2495.190918,756.000000 2479.593994,756.000000 
	C2478.276855,763.109070 2484.790771,770.428406 2490.553955,774.160767 
	C2500.508057,780.607239 2514.672119,778.298279 2525.395264,768.660217 
	C2527.500488,771.534119 2529.810791,774.238037 2531.501709,777.285522 
	C2531.972656,778.134766 2531.034180,780.596191 2530.027832,781.307312 
	C2518.996582,789.104675 2506.888428,791.469299 2493.453369,789.264954 
	C2482.280518,787.431885 2473.832520,781.785034 2468.354980,772.479797 
	C2460.206299,758.637024 2460.998779,737.704529 2471.828857,724.351807 
	C2482.373291,711.351440 2503.560059,707.339355 2517.644775,714.914978 
	C2527.743164,720.346741 2533.698730,728.767883 2535.903076,739.773682 
	C2536.922363,744.864746 2536.930664,750.158386 2537.454590,756.000000 
	C2533.674316,756.000000 2530.569336,756.000000 2526.969971,756.000000 
M2509.041504,725.026611 
	C2491.119629,719.472351 2478.275146,732.990112 2479.306641,744.694702 
	C2493.806396,744.694702 2508.312500,744.694702 2522.906006,744.694702 
	C2518.862061,731.053284 2517.771240,729.452759 2509.041504,725.026611 
z"/>
<path fill="#D4E3A5" opacity="1.000000" stroke="none" 
	d="
M3119.000000,779.944580 
	C3119.000000,782.749023 3119.000000,785.062256 3119.000000,787.685425 
	C3114.059570,787.685425 3109.330811,787.685425 3104.296875,787.685425 
	C3104.296875,753.709412 3104.296875,719.668030 3104.296875,685.312927 
	C3108.943115,685.312927 3113.671875,685.312927 3118.827393,685.312927 
	C3118.827393,697.289978 3118.827393,709.338867 3118.827393,722.334534 
	C3127.224609,714.411316 3136.420410,710.512390 3147.104736,711.043335 
	C3160.218018,711.694824 3169.204346,717.969238 3169.043945,733.296570 
	C3168.856201,751.274536 3169.000000,769.256104 3169.000000,787.617981 
	C3164.531982,787.617981 3160.133301,787.617981 3155.299805,787.617981 
	C3155.217285,786.664001 3155.016357,785.408203 3155.014160,784.152039 
	C3154.991455,770.666260 3155.124512,757.178528 3154.917969,743.695923 
	C3154.861572,740.025452 3154.346191,736.175171 3153.101807,732.748596 
	C3150.478760,725.523865 3142.889648,722.773987 3133.620361,725.156006 
	C3127.822510,726.645874 3123.477539,730.321472 3119.850830,734.840698 
	C3119.063721,735.821716 3119.039795,737.589294 3119.033936,738.996155 
	C3118.977295,752.481689 3119.000000,765.967590 3119.000000,779.944580 
z"/>
<path fill="#D4E3A5" opacity="1.000000" stroke="none" 
	d="
M2996.009766,756.000000 
	C2991.189453,756.000000 2986.866699,756.000000 2982.519531,756.000000 
	C2985.246826,777.995789 3006.379150,783.823303 3029.249512,769.035889 
	C3031.460449,772.167664 3033.672363,775.301025 3035.923340,778.489868 
	C3028.944824,786.465088 3019.726318,789.118591 3009.791260,789.974243 
	C2998.465088,790.949707 2988.081299,788.480896 2979.173584,781.029419 
	C2972.579590,775.513611 2968.683838,768.315857 2967.122070,760.066650 
	C2964.799805,747.801880 2966.612793,736.008728 2974.105713,725.804443 
	C2982.951904,713.757202 2996.994141,709.386047 3010.002197,711.450623 
	C3032.166260,714.968323 3042.090820,734.183289 3040.744629,756.000000 
	C3026.029541,756.000000 3011.268311,756.000000 2996.009766,756.000000 
M3024.970215,737.918945 
	C3022.379883,732.246460 3018.791992,727.009399 3012.784180,725.155701 
	C2998.244873,720.669495 2984.255859,727.045776 2982.183105,744.719482 
	C2996.757568,744.719482 3011.318848,744.719482 3026.397705,744.719482 
	C3025.874756,742.468445 3025.441650,740.604431 3024.970215,737.918945 
z"/>
<path fill="#D4E3A5" opacity="1.000000" stroke="none" 
	d="
M3223.075684,711.000000 
	C3247.402100,710.506958 3263.031006,731.127502 3259.517090,755.965820 
	C3240.488525,755.965820 3221.401367,755.965820 3201.878174,755.965820 
	C3202.941895,765.962769 3208.395752,772.377197 3216.801270,775.814575 
	C3228.364258,780.543396 3238.641113,777.015625 3248.348633,768.657959 
	C3250.459473,771.536072 3252.799805,774.370239 3254.637939,777.499634 
	C3255.063477,778.224060 3254.142334,780.418945 3253.218018,781.155823 
	C3237.939453,793.337463 3210.009033,793.837402 3196.708984,779.182129 
	C3186.067627,767.456299 3183.760254,753.802734 3187.649902,738.744263 
	C3192.184326,721.189880 3206.614502,711.835266 3223.075684,711.000000 
M3227.134766,724.000122 
	C3224.808105,724.000122 3222.480469,723.958008 3220.155029,724.007874 
	C3212.730225,724.167053 3200.478516,734.527771 3202.449951,744.613525 
	C3216.942627,744.613525 3231.416260,744.613525 3246.075928,744.613525 
	C3244.145508,733.763184 3239.145752,726.180969 3227.134766,724.000122 
z"/>
<path fill="#D4E3A5" opacity="1.000000" stroke="none" 
	d="
M2195.478271,774.807373 
	C2208.601807,780.952209 2219.670654,777.078247 2230.256104,768.884094 
	C2232.398926,771.671997 2234.637695,774.404541 2236.607666,777.318726 
	C2236.948242,777.822937 2236.442139,779.422729 2235.834717,779.968079 
	C2219.958740,794.224060 2189.201416,794.917847 2174.761230,774.933716 
	C2171.311768,770.160156 2168.931396,763.844604 2168.270996,757.988831 
	C2166.981445,746.556519 2168.250977,735.565918 2175.604004,725.408630 
	C2182.662354,715.658020 2200.479492,708.972656 2211.490723,711.606934 
	C2218.816162,713.359497 2225.357910,715.558716 2230.699219,721.114807 
	C2238.902588,729.648254 2242.409912,739.802734 2241.878662,755.703247 
	C2222.502930,755.703247 2203.102783,755.703247 2183.585938,755.703247 
	C2184.337646,764.256714 2188.333252,770.310608 2195.478271,774.807373 
M2221.005615,729.512451 
	C2208.241943,718.171936 2185.346436,723.265015 2183.386230,744.808044 
	C2197.808105,744.808044 2212.222412,744.808044 2226.718994,744.808044 
	C2228.141602,738.636902 2223.851318,734.684509 2221.005615,729.512451 
z"/>
<path fill="#D4E3A5" opacity="1.000000" stroke="none" 
	d="
M2651.091553,740.000000 
	C2660.110352,739.869263 2667.576416,743.160828 2675.000000,748.098633 
	C2675.000000,745.495300 2674.838135,743.533691 2675.025391,741.606018 
	C2676.537354,726.042908 2662.352295,722.164124 2652.479980,724.496582 
	C2646.263916,725.965210 2640.636719,729.925476 2634.150146,733.055237 
	C2633.009033,731.319824 2630.959473,728.511414 2629.308350,725.485779 
	C2628.869385,724.681458 2629.239258,722.785278 2629.935547,722.108765 
	C2641.983398,710.404907 2666.037109,706.914246 2680.496826,716.737000 
	C2687.027588,721.173462 2689.554688,727.650818 2689.793701,734.497620 
	C2690.407959,752.112488 2689.999023,769.763062 2689.999023,787.699097 
	C2685.020020,787.699097 2680.276611,787.699097 2675.194824,787.699097 
	C2675.091064,786.033020 2674.982910,784.292542 2674.843018,782.044006 
	C2667.229492,788.161316 2658.737061,790.451843 2649.273682,790.064880 
	C2637.628174,789.588623 2626.205078,780.897583 2625.017822,768.838074 
	C2623.523926,753.659790 2631.132324,743.339417 2645.392822,740.986938 
	C2647.147217,740.697571 2648.889160,740.330872 2651.091553,740.000000 
M2669.870605,754.358765 
	C2664.872070,753.239258 2659.912354,751.465393 2654.864990,751.164856 
	C2648.474121,750.784424 2642.085449,755.765137 2640.234619,761.279419 
	C2638.676270,765.922363 2640.968262,772.588501 2645.683350,776.092651 
	C2651.452881,780.380554 2658.118164,780.070618 2664.335938,777.952942 
	C2668.215820,776.631531 2673.543945,773.996948 2674.476318,770.843811 
	C2676.015381,765.639465 2676.872803,758.872253 2669.870605,754.358765 
z"/>
<path fill="#D4E3A5" opacity="1.000000" stroke="none" 
	d="
M2807.387451,716.232422 
	C2821.080566,709.076355 2834.577637,708.833984 2847.633057,716.373474 
	C2857.851562,722.274475 2863.303223,731.609863 2865.093506,743.385071 
	C2866.614258,753.387085 2865.377686,762.901367 2860.627197,771.602112 
	C2854.254639,783.273804 2843.999268,789.333679 2830.595459,790.026794 
	C2821.044678,790.520569 2812.295898,788.836060 2804.345459,782.976746 
	C2796.112305,776.909363 2791.730225,768.557556 2790.188477,759.026917 
	C2788.526855,748.751831 2788.882812,738.165283 2795.119141,729.173340 
	C2798.401367,724.440552 2803.037354,720.646423 2807.387451,716.232422 
M2822.721436,725.003784 
	C2820.949219,725.704285 2819.041016,726.177307 2817.425537,727.140625 
	C2802.248779,736.189575 2800.833252,758.427612 2812.455078,770.469666 
	C2823.114502,781.514709 2838.780029,777.976746 2845.740967,766.473572 
	C2851.958008,756.199646 2851.993896,745.219177 2845.845215,735.033997 
	C2841.055664,727.100403 2834.107422,723.109802 2822.721436,725.003784 
z"/>
<path fill="#D4E3A5" opacity="1.000000" stroke="none" 
	d="
M2444.352539,698.156372 
	C2440.168213,702.396545 2439.580322,707.263428 2440.208496,712.898132 
	C2444.989014,712.898132 2449.740967,712.898132 2454.739258,712.898132 
	C2454.739258,717.381042 2454.739258,721.444275 2454.739258,725.950745 
	C2449.925049,725.950745 2445.181152,725.950745 2440.035156,725.950745 
	C2440.035156,746.770569 2440.035156,767.157532 2440.035156,787.769653 
	C2434.886475,787.769653 2430.157715,787.769653 2425.006836,787.769653 
	C2425.006836,767.199402 2425.006836,746.811829 2425.006836,726.169067 
	C2420.981934,726.169067 2417.364502,726.169067 2413.374023,726.169067 
	C2413.374023,721.857727 2413.374023,717.790161 2413.374023,713.271729 
	C2416.843018,713.271729 2420.578125,713.271729 2424.437256,713.271729 
	C2424.998535,709.525391 2425.668701,706.205750 2425.968506,702.852905 
	C2427.325928,687.681213 2440.166748,681.478516 2453.263184,683.146484 
	C2454.361328,683.286377 2455.415039,683.747742 2456.502197,684.006348 
	C2460.082275,684.858032 2462.109375,686.421753 2460.047852,690.482178 
	C2459.044678,692.458557 2458.516602,694.676331 2457.330078,695.512756 
	C2453.103271,696.305603 2448.876465,697.098450 2444.352539,698.156372 
z"/>
<path fill="#D4E3A5" opacity="1.000000" stroke="none" 
	d="
M2111.741699,777.372131 
	C2111.960449,777.882202 2111.953125,778.051880 2111.983887,778.214355 
	C2112.476074,780.818115 2114.190430,784.990967 2113.239990,785.727844 
	C2110.456543,787.885437 2106.707520,789.171753 2103.155273,789.851929 
	C2099.970215,790.461853 2096.408936,790.375183 2093.250977,789.613220 
	C2084.997314,787.622009 2081.009766,782.020996 2081.003174,773.358398 
	C2080.991455,757.733154 2081.000000,742.107849 2081.000000,726.042480 
	C2076.584473,726.042480 2072.503418,726.042480 2068.221680,726.042480 
	C2068.221680,721.660583 2068.221680,717.709045 2068.221680,713.315063 
	C2072.141113,713.315063 2076.213379,713.315063 2080.729980,713.315063 
	C2080.729980,706.491577 2080.729980,700.080200 2080.729980,693.337646 
	C2085.895996,693.337646 2090.629395,693.337646 2095.812256,693.337646 
	C2095.812256,699.600769 2095.812256,706.008423 2095.812256,712.853149 
	C2100.973145,712.853149 2105.719238,712.853149 2110.725586,712.853149 
	C2110.725586,717.355896 2110.725586,721.421936 2110.725586,725.936523 
	C2105.940430,725.936523 2101.193848,725.936523 2096.006348,725.936523 
	C2096.006348,741.320129 2095.903564,756.266235 2096.080811,771.209045 
	C2096.123535,774.807556 2101.619385,777.861938 2104.969482,776.513062 
	C2106.753662,775.794861 2108.429199,774.807129 2110.360107,773.837524 
	C2110.794678,775.019348 2111.163818,776.023804 2111.741699,777.372131 
z"/>
<path fill="#D4E3A5" opacity="1.000000" stroke="none" 
	d="
M2765.000000,763.913574 
	C2765.453369,767.566223 2764.970703,771.337646 2766.547852,773.777893 
	C2770.224365,779.466614 2775.019775,776.166138 2779.355957,773.823608 
	C2779.958984,775.412476 2780.516357,776.730652 2780.964111,778.084839 
	C2783.659668,786.237122 2782.807861,788.253235 2774.281250,789.692200 
	C2770.049316,790.406311 2765.465576,789.652771 2761.128174,788.990906 
	C2753.427002,787.815796 2750.217773,781.731995 2750.083008,774.019409 
	C2749.806885,758.223816 2750.000000,742.419983 2750.000000,726.179565 
	C2745.722412,726.179565 2741.646484,726.179565 2737.291016,726.179565 
	C2737.291016,721.684204 2737.291016,717.618347 2737.291016,713.106445 
	C2741.347656,713.106445 2745.427246,713.106445 2749.929688,713.106445 
	C2749.929688,706.279175 2749.929688,699.871033 2749.929688,693.238708 
	C2755.096924,693.238708 2759.826904,693.238708 2764.823730,693.238708 
	C2764.823730,699.676392 2764.823730,705.957458 2764.823730,712.680542 
	C2769.801758,712.680542 2774.538574,712.680542 2779.637451,712.680542 
	C2779.637451,717.175903 2779.637451,721.242004 2779.637451,725.753479 
	C2775.124756,725.753479 2770.387207,725.753479 2765.000000,725.753479 
	C2765.000000,738.597046 2765.000000,751.012268 2765.000000,763.913574 
z"/>
<path fill="#D4E3A5" opacity="1.000000" stroke="none" 
	d="
M2156.847412,788.030151 
	C2146.433838,792.455566 2134.205811,789.788391 2130.912354,783.259766 
	C2129.429932,780.320740 2128.186523,776.894531 2128.127930,773.665894 
	C2127.844482,758.024353 2128.000000,742.374878 2128.000000,726.288208 
	C2124.159424,726.288208 2120.422852,726.288208 2116.343262,726.288208 
	C2116.343262,721.792603 2116.343262,717.725830 2116.343262,713.215637 
	C2119.908936,713.215637 2123.648682,713.215637 2127.822998,713.215637 
	C2127.822998,706.389587 2127.822998,699.984802 2127.822998,693.293213 
	C2132.984375,693.293213 2137.714355,693.293213 2142.889404,693.293213 
	C2142.889404,699.680908 2142.889404,706.087463 2142.889404,712.922913 
	C2148.047363,712.922913 2152.791748,712.922913 2157.759277,712.922913 
	C2157.759277,717.424255 2157.759277,721.487671 2157.759277,725.994019 
	C2152.879883,725.994019 2148.135010,725.994019 2143.007324,725.994019 
	C2143.007324,741.040100 2142.823730,755.652954 2143.104736,770.256836 
	C2143.205811,775.524963 2148.636719,778.169739 2153.434814,775.865601 
	C2154.736084,775.240723 2156.004395,774.547485 2157.406738,773.824280 
	C2158.322266,776.476135 2158.895264,779.021606 2160.047363,781.270264 
	C2161.867188,784.822021 2160.710449,786.791870 2156.847412,788.030151 
z"/>
<path fill="#D4E3A5" opacity="1.000000" stroke="none" 
	d="
M3060.000000,770.843628 
	C3060.000000,755.738708 3060.000000,741.113708 3060.000000,726.050415 
	C3055.924316,726.050415 3052.176758,726.050415 3048.225342,726.050415 
	C3048.225342,721.543518 3048.225342,717.477112 3048.225342,713.148560 
	C3052.041504,713.148560 3055.660400,713.148560 3059.720215,713.148560 
	C3059.720215,706.504517 3059.720215,700.093079 3059.720215,693.343567 
	C3064.882568,693.343567 3069.616211,693.343567 3074.798340,693.343567 
	C3074.798340,699.584717 3074.798340,705.993225 3074.798340,712.837646 
	C3079.958252,712.837646 3084.702881,712.837646 3089.717529,712.837646 
	C3089.717529,717.338562 3089.717529,721.404297 3089.717529,725.918457 
	C3084.960205,725.918457 3080.214111,725.918457 3075.005859,725.918457 
	C3075.005859,740.963318 3074.856445,755.573059 3075.089844,770.176697 
	C3075.167725,775.053223 3079.813721,777.731079 3084.439697,776.147034 
	C3086.081055,775.584900 3087.659912,774.839233 3089.583984,774.046936 
	C3090.685303,776.924866 3092.050781,779.828918 3092.833496,782.882263 
	C3093.122314,784.009888 3092.444336,786.079590 3091.518555,786.713379 
	C3084.702393,791.380249 3069.471191,791.652039 3064.215576,784.931030 
	C3060.923096,780.720703 3059.964355,776.303162 3060.000000,770.843628 
z"/>
<path fill="#D4E3A5" opacity="1.000000" stroke="none" 
	d="
M2350.000000,699.006531 
	C2350.000000,694.202576 2350.000000,689.896912 2350.000000,685.296814 
	C2354.974854,685.296814 2359.704346,685.296814 2364.720459,685.296814 
	C2364.720459,719.325256 2364.720459,753.365845 2364.720459,787.703613 
	C2360.024414,787.703613 2355.294678,787.703613 2350.000000,787.703613 
	C2350.000000,758.312500 2350.000000,728.908691 2350.000000,699.006531 
z"/>
<path fill="#D4E3A5" opacity="1.000000" stroke="none" 
	d="
M2725.954102,786.748596 
	C2721.198242,787.602600 2716.480469,787.977539 2711.366455,788.383911 
	C2711.366455,753.847717 2711.366455,719.802368 2711.366455,685.378174 
	C2715.801758,685.378174 2720.538574,685.378174 2725.991943,685.378174 
	C2725.991943,718.836609 2725.991943,752.553040 2725.954102,786.748596 
z"/>
<path fill="#D4E3A5" opacity="1.000000" stroke="none" 
	d="
M2258.004150,715.216675 
	C2258.947266,714.157227 2259.863281,713.129028 2260.829346,713.080078 
	C2264.641113,712.886658 2268.468750,713.000671 2272.698242,713.000671 
	C2272.698242,716.199341 2272.698242,719.270325 2272.698242,723.898926 
	C2279.886230,715.715271 2287.741211,711.422119 2297.718262,710.938049 
	C2297.718262,715.869690 2297.718262,720.625732 2297.718262,725.478699 
	C2294.111084,725.975952 2290.316650,726.052063 2286.821045,727.112976 
	C2283.651611,728.075012 2280.612793,729.829773 2277.868652,731.740845 
	C2274.169434,734.317383 2272.707275,737.825195 2272.846191,742.723145 
	C2273.269775,757.661804 2273.000000,772.619995 2273.000000,787.783447 
	C2267.979736,787.783447 2263.363037,787.783447 2258.000244,787.783447 
	C2258.000244,763.838013 2258.000244,739.767883 2258.004150,715.216675 
z"/>
<path fill="#D4E3A5" opacity="1.000000" stroke="none" 
	d="
M3277.000000,765.000000 
	C3277.000000,747.549316 3277.000000,730.598633 3277.000000,713.324341 
	C3281.916992,713.324341 3286.642578,713.324341 3291.776367,713.324341 
	C3291.776367,715.929382 3291.776367,718.661682 3291.776367,722.574951 
	C3298.794189,715.412476 3306.248291,711.329407 3315.706543,711.110596 
	C3315.706543,715.852783 3315.706543,720.594421 3315.706543,724.087830 
	C3309.290039,726.474182 3303.163818,728.547058 3297.212158,731.037415 
	C3293.179932,732.724548 3291.812744,735.983337 3291.893555,740.538818 
	C3292.170410,756.149658 3292.000000,771.768494 3292.000000,787.691589 
	C3287.049805,787.691589 3282.322754,787.691589 3277.000000,787.691589 
	C3277.000000,780.340698 3277.000000,772.920349 3277.000000,765.000000 
z"/>
<path fill="#D4E3A5" opacity="1.000000" stroke="none" 
	d="
M2386.000000,768.999573 
	C2386.000000,750.210693 2386.000000,731.921753 2386.000000,713.316833 
	C2390.934814,713.316833 2395.663574,713.316833 2400.698730,713.316833 
	C2400.698730,737.947815 2400.698730,762.656250 2400.698730,787.682922 
	C2396.065674,787.682922 2391.336914,787.682922 2386.000000,787.682922 
	C2386.000000,781.681763 2386.000000,775.590637 2386.000000,768.999573 
z"/>
<path fill="#D4E3A5" opacity="1.000000" stroke="none" 
	d="
M2570.037598,776.179016 
	C2575.218018,788.096863 2566.594727,802.536499 2558.936035,807.135010 
	C2557.597168,807.938965 2554.122559,805.337585 2551.792236,804.027527 
	C2551.619141,803.930298 2552.491699,801.380981 2553.288086,800.263611 
	C2555.807861,796.726990 2558.522461,793.329041 2561.402344,789.563049 
	C2553.901123,788.463379 2550.312012,785.377136 2550.004639,780.339600 
	C2549.776123,776.595947 2553.109375,771.288574 2556.369629,770.204529 
	C2561.625732,768.456848 2567.077393,770.693848 2570.037598,776.179016 
z"/>
<path fill="#D4E3A5" opacity="1.000000" stroke="none" 
	d="
M2402.072266,688.267456 
	C2403.745605,693.988342 2401.937744,699.048828 2397.893555,700.608826 
	C2392.668701,702.624207 2386.713135,700.647522 2384.732666,696.240662 
	C2382.761963,691.855225 2384.823975,685.819214 2389.111328,683.423401 
	C2392.567627,681.492004 2398.235107,683.452454 2402.072266,688.267456 
z"/>
<path fill="#8EAC2C" opacity="1.000000" stroke="none" 
	d="
M478.837738,207.800095 
	C466.480591,213.605499 454.162842,219.758728 441.320221,224.486099 
	C418.675140,232.821777 395.846252,240.717712 372.845337,248.012604 
	C341.539703,257.941376 310.000336,267.133179 277.935791,276.807068 
	C276.915161,276.993927 276.519928,277.014771 276.124725,277.035614 
	C268.746826,274.700500 261.396027,272.275177 253.984512,270.052155 
	C243.730881,266.976654 233.424225,264.078400 223.153870,261.058044 
	C212.866928,258.032837 202.520294,255.183701 192.335800,251.842896 
	C173.932800,245.806198 155.576599,239.615753 137.304611,233.194275 
	C123.278267,228.264893 109.345444,223.050186 95.501427,217.629349 
	C88.603386,214.928299 81.997833,211.480270 75.075211,208.046448 
	C87.487953,202.263580 99.783524,195.916550 112.739250,191.510757 
	C152.478806,177.996597 192.431198,165.101700 232.387344,152.234634 
	C246.677048,147.632919 261.213745,143.798309 275.866852,139.307617 
	C276.095978,139.001648 276.594574,139.035309 276.832794,139.110718 
	C295.408722,144.514755 313.799774,149.667969 332.068298,155.224075 
	C348.524689,160.229050 364.888397,165.549927 381.217438,170.959457 
	C401.162933,177.567078 421.170197,184.030975 440.880280,191.291229 
	C453.716339,196.019440 466.070618,202.055557 478.837738,207.800095 
z"/>
<path fill="#000000" opacity="1.000000" stroke="none" 
	d="
M275.922791,277.366577 
	C276.519928,277.014771 276.915161,276.993927 277.605164,276.996216 
	C287.264801,279.975250 296.602234,283.021606 306.000549,285.866760 
	C321.740540,290.631744 337.564331,295.123566 353.270142,299.996887 
	C371.509918,305.656433 389.835205,311.115784 407.804810,317.551483 
	C429.189087,325.210083 450.234772,333.814148 471.799927,342.099121 
	C456.565918,348.555511 441.112396,355.335632 425.312622,361.179688 
	C406.583405,368.107300 387.687378,374.649292 368.627228,380.601288 
	C339.357513,389.741394 309.885498,398.233765 280.502716,407.012360 
	C279.575256,407.289459 278.685303,407.692230 277.401276,408.139191 
	C277.024689,408.241943 276.564362,408.133911 276.328552,408.150299 
	C263.196320,404.186157 250.305496,400.187317 237.402191,396.229126 
	C215.973801,389.655853 194.410172,383.492798 173.138657,376.447083 
	C149.821075,368.723633 126.736450,360.288879 103.621971,351.965088 
	C96.186913,349.287659 88.979141,345.979126 81.284309,342.880615 
	C80.901245,342.801849 80.969582,342.420624 81.019531,342.233643 
	C88.182625,339.314789 95.243111,336.435181 102.418282,333.877289 
	C129.501572,324.222290 156.428619,314.072418 183.780350,305.242188 
	C214.218887,295.415405 245.056824,286.825745 275.922791,277.366577 
z"/>
<path fill="#000000" opacity="1.000000" stroke="none" 
	d="
M2935.000000,744.060791 
	C2935.000000,750.216797 2935.128418,755.888000 2934.926758,761.547485 
	C2934.860840,763.402893 2934.490234,765.752380 2933.320068,766.983887 
	C2923.674316,777.137390 2906.501221,780.044739 2897.478516,765.993713 
	C2889.445068,753.483582 2892.208252,732.963257 2905.859863,726.486511 
	C2915.747559,721.795349 2928.743896,726.628052 2934.053711,733.988831 
	C2935.677246,736.239441 2934.756104,740.325806 2935.000000,744.060791 
z"/>
<path fill="#000000" opacity="1.000000" stroke="none" 
	d="
M1383.901611,591.594177 
	C1386.884521,591.221741 1389.678589,590.756714 1392.350586,591.140686 
	C1402.590820,592.612610 1412.738647,595.003784 1423.019897,595.847839 
	C1438.295898,597.101868 1453.656250,597.322083 1468.979858,598.003296 
	C1483.639038,598.654907 1498.309814,599.134644 1512.952026,600.059998 
	C1525.728394,600.867310 1537.295654,605.403992 1543.341431,617.162903 
	C1550.424438,630.939514 1549.397339,645.163452 1540.961548,658.538269 
	C1529.762085,676.294556 1512.325317,684.591003 1493.068481,689.955994 
	C1477.834229,694.200378 1462.158203,695.736816 1446.444092,694.866638 
	C1427.483643,693.816711 1408.908447,690.728271 1392.792480,679.365234 
	C1378.313232,669.156250 1370.844727,655.275085 1368.814209,637.682678 
	C1367.462646,625.973572 1369.161865,615.088562 1374.181519,604.781494 
	C1376.478271,600.065125 1380.446533,596.162964 1383.901611,591.594177 
z"/>
<path fill="#000000" opacity="1.000000" stroke="none" 
	d="
M1461.143066,284.000793 
	C1472.883545,281.766968 1481.144653,287.361420 1487.625732,295.400116 
	C1498.224731,308.546082 1503.223267,324.325317 1504.802734,340.816742 
	C1506.374023,357.220428 1507.542480,373.840881 1506.695068,390.253082 
	C1505.627808,410.924988 1501.754272,431.268341 1489.065186,448.740723 
	C1483.554199,456.329163 1476.444702,461.989746 1467.261108,462.723969 
	C1458.401733,463.432251 1450.786011,459.066162 1444.988281,452.013611 
	C1433.234253,437.715515 1428.652954,420.707977 1427.123291,402.833740 
	C1425.844604,387.892792 1424.638428,372.814362 1425.268433,357.875610 
	C1426.002563,340.465759 1428.650757,323.029175 1436.525024,307.130249 
	C1441.697754,296.685547 1448.584229,287.443024 1461.143066,284.000793 
z"/>
<path fill="#000000" opacity="1.000000" stroke="none" 
	d="
M1772.728516,289.232056 
	C1780.709839,297.068573 1783.960571,306.900879 1785.865845,317.055176 
	C1787.810547,327.419312 1789.264282,337.953247 1789.855103,348.473358 
	C1790.528564,360.468872 1790.010864,372.531250 1790.010864,384.786377 
	C1763.895752,384.786377 1737.157349,384.786377 1709.999878,384.786377 
	C1710.672485,376.893036 1711.098022,369.104584 1712.058105,361.382599 
	C1713.116089,352.873566 1713.992798,344.250732 1716.141357,335.987640 
	C1720.470093,319.340271 1726.280396,303.133179 1739.498901,291.167084 
	C1748.296509,283.202850 1758.311523,279.894287 1768.225586,285.752563 
	C1769.744507,286.650177 1771.058228,287.895050 1772.728516,289.232056 
z"/>
<path fill="#000000" opacity="1.000000" stroke="none" 
	d="
M1800.989014,702.082397 
	C1806.254150,714.513855 1811.137573,726.941956 1815.984497,739.384216 
	C1817.560669,743.430725 1819.041748,747.514221 1820.651611,751.807800 
	C1807.757324,751.807800 1795.041748,751.807800 1781.463501,751.807800 
	C1787.935913,734.984131 1794.264404,718.534302 1800.989014,702.082397 
z"/>
<path fill="#000000" opacity="1.000000" stroke="none" 
	d="
M1920.138916,769.627625 
	C1919.252197,767.203186 1918.145874,765.089966 1918.086182,762.947693 
	C1917.868286,755.134277 1918.485229,747.269836 1917.823975,739.506714 
	C1917.405762,734.597473 1919.846436,731.737305 1923.037598,729.622131 
	C1938.006836,719.700195 1953.764404,724.382141 1958.764771,742.617676 
	C1961.228516,751.602783 1959.974121,760.219971 1954.492676,768.090515 
	C1948.882812,776.145569 1938.225098,779.251526 1929.207275,775.000488 
	C1926.152710,773.560486 1923.328857,771.631165 1920.138916,769.627625 
z"/>
<path fill="#000000" opacity="1.000000" stroke="none" 
	d="
M2009.137939,745.000000 
	C2006.854858,745.000000 2005.051636,745.000000 2003.234375,745.000000 
	C2003.747314,733.394226 2012.307129,724.409363 2021.468872,724.065308 
	C2036.769775,723.490662 2046.337158,731.387268 2046.868408,745.000000 
	C2034.442993,745.000000 2022.030273,745.000000 2009.137939,745.000000 
z"/>
<path fill="#000000" opacity="1.000000" stroke="none" 
	d="
M2509.424805,725.164429 
	C2517.771240,729.452759 2518.862061,731.053284 2522.906006,744.694702 
	C2508.312500,744.694702 2493.806396,744.694702 2479.306641,744.694702 
	C2478.275146,732.990112 2491.119629,719.472351 2509.424805,725.164429 
z"/>
<path fill="#000000" opacity="1.000000" stroke="none" 
	d="
M3024.989502,738.329712 
	C3025.441650,740.604431 3025.874756,742.468445 3026.397705,744.719482 
	C3011.318848,744.719482 2996.757568,744.719482 2982.183105,744.719482 
	C2984.255859,727.045776 2998.244873,720.669495 3012.784180,725.155701 
	C3018.791992,727.009399 3022.379883,732.246460 3024.989502,738.329712 
z"/>
<path fill="#000000" opacity="1.000000" stroke="none" 
	d="
M3227.580078,724.001221 
	C3239.145752,726.180969 3244.145508,733.763184 3246.075928,744.613525 
	C3231.416260,744.613525 3216.942627,744.613525 3202.449951,744.613525 
	C3200.478516,734.527771 3212.730225,724.167053 3220.155029,724.007874 
	C3222.480469,723.958008 3224.808105,724.000122 3227.580078,724.001221 
z"/>
<path fill="#000000" opacity="1.000000" stroke="none" 
	d="
M2221.272217,729.776489 
	C2223.851318,734.684509 2228.141602,738.636902 2226.718994,744.808044 
	C2212.222412,744.808044 2197.808105,744.808044 2183.386230,744.808044 
	C2185.346436,723.265015 2208.241943,718.171936 2221.272217,729.776489 
z"/>
<path fill="#000000" opacity="1.000000" stroke="none" 
	d="
M2670.131836,754.643799 
	C2676.872803,758.872253 2676.015381,765.639465 2674.476318,770.843811 
	C2673.543945,773.996948 2668.215820,776.631531 2664.335938,777.952942 
	C2658.118164,780.070618 2651.452881,780.380554 2645.683350,776.092651 
	C2640.968262,772.588501 2638.676270,765.922363 2640.234619,761.279419 
	C2642.085449,755.765137 2648.474121,750.784424 2654.864990,751.164856 
	C2659.912354,751.465393 2664.872070,753.239258 2670.131836,754.643799 
z"/>
<path fill="#000000" opacity="1.000000" stroke="none" 
	d="
M2823.138672,725.001831 
	C2834.107422,723.109802 2841.055664,727.100403 2845.845215,735.033997 
	C2851.993896,745.219177 2851.958008,756.199646 2845.740967,766.473572 
	C2838.780029,777.976746 2823.114502,781.514709 2812.455078,770.469666 
	C2800.833252,758.427612 2802.248779,736.189575 2817.425537,727.140625 
	C2819.041016,726.177307 2820.949219,725.704285 2823.138672,725.001831 
z"/>
</svg>